<?xml version="1.0" encoding="utf-8"?>
<!-- Generator: Adobe Illustrator 22.1.0, SVG Export Plug-In . SVG Version: 6.00 Build 0)  -->
<svg version="1.1" id="ability-shield" xmlns="http://www.w3.org/2000/svg" xmlns:xlink="http://www.w3.org/1999/xlink" x="0px"
	 y="0px" viewBox="0 0 1024 1024" style="enable-background:new 0 0 1024 1024;" xml:space="preserve">
<path d="M900.6,378.3c0-90.2-0.5-180.3,0.4-270.4c0.2-17.1-6.2-23.2-21.8-25.6c-20.8-3.1-41.4-7.8-62.1-11.8
	c-83.4-16.2-166.9-32.2-250.2-48.6c-13.2-2.6-25.9-8.4-39.2-9.5c-24.9-2-48.9,3.1-73.6,8.5C352.2,43.2,249.6,62,147.1,81.5
	c-16.4,3.1-23.8,9-23.7,27.6c0.8,164.9,1.9,329.8-0.3,494.7c-0.6,48,13.6,89.4,36,129.1c43.1,76.2,106.2,133.9,178.2,181.5
	c44.6,29.5,92.3,54.3,138.9,80.7c11.7,6.6,20.9,21.4,37.3,15.6c11.2-4,21.6-10.5,32.4-15.8c74.1-37.2,144.8-79.5,208-134
	c58-50,102.2-109.6,134.7-179c8.6-18.4,12.2-35.8,12.1-55.3C900.3,543.8,900.5,461.1,900.6,378.3
	C900.5,378.3,900.5,378.3,900.6,378.3z M272.9,146.7l389.9,618.1L256.3,258.4C272.9,238.2,272.9,146.7,272.9,146.7z M208.7,504.5
	c14.3-21.4,8.3-107,8.3-107l398.2,380.4L208.7,504.5z M698.5,811.2l-41.6,16.6L256.3,674.5l11.9-95.1l373.3,222.3
	c13.1,2.4,10.7-5.9,10.7-5.9L295.5,432c9.5-4.8,8.3-77.3,8.3-77.3L668.8,791c23.8,14.3,20.2-8.3,20.2-8.3L328.8,169.3
	c19-21.4,16.6-89.2,16.6-89.2l378,720.4C722.3,820.7,698.5,811.2,698.5,811.2z M693.9,589.7c-3.7,3.5-7.9,8.2-12.3,8.7
	c-5.9,0.7-14.6-0.1-17.8-3.9c-3-3.5-2.5-12.9,0.2-17.6c3.8-6.6,11.3-11,16.7-16.9c33.5-36.2,47.7-79.4,45.4-128.3
	c-1.8-40.4-12.5-78.8-39.9-108.4c-39.5-42.7-86.9-71.3-149-63.3c-5.6,0.7-12.8-0.9-17.5-4.1c-17.4-11.9-34.3-24.4-50.6-37.8
	c-4.6-3.8-8.7-11.3-8.4-16.8c0.2-3.5,8.8-7.4,14.3-9.4c87.8-33.4,207.2,12.4,261.3,99c22.7,36.3,33.3,74.3,34.4,116
	C773.4,479.7,746.8,540.2,693.9,589.7z"/>
</svg>
