<?xml version="1.0" encoding="utf-8"?>
<!-- Generator: Adobe Illustrator 22.1.0, SVG Export Plug-In . SVG Version: 6.00 Build 0)  -->
<svg version="1.1" id="banner-1" xmlns="http://www.w3.org/2000/svg" xmlns:xlink="http://www.w3.org/1999/xlink" x="0px" y="0px"
	 viewBox="0 0 1024 1024" style="enable-background:new 0 0 1024 1024;" xml:space="preserve">
<path d="M153.2,979.2c-1.9-1-3.6-2.2-5-3.8c-9-9.8-6.1-29.3-6.1-41.4c0-17.1,0-34.1,0-51.2c0-34.1,0-68.2,0-102.4
	c0-83.2,0-166.5,0-249.7c0-83.2,0.1-166.5,0.2-249.7c0-33.9-0.1-34.2-34.6-34c-21.2,0.1-42.5,0.5-63.7,0.2
	c-24.8-0.3-32-7.8-31.9-32.1c0.1-29.4,0.1-58.7,0.1-88.1c0-22.8,6.1-29.5,29.7-29.9c25.6-0.4,51.2-0.7,76.8,0.4
	c17.3,0.7,24.1-6.7,23.5-23.1c-0.2-6.2-0.3-12.5,0.6-18.7c1.9-14,7.9-20.9,24.5-20.9c231.7,0.6,463.4,0.4,695.1,0.3
	c18.2,0,26.9,9.2,27.4,29.2c0.7,31.4,3.2,33.5,34.9,32.8c21.2-0.4,42.5,0,63.7-0.1c15.9-0.1,24.1,6.3,23.7,23.6
	c-0.7,33.7-0.6,67.4,0,101.2c0.3,17.5-7.2,25.5-24.4,25.2c-23.1-0.3-46.2-0.2-69.3-0.5c-23.6-0.3-29.4,4.8-29.4,27.8
	c0.2,226.7,0.3,453.4,0.9,680.1c0.1,21.3-6.4,30.8-30.3,22.1C764,942,667.6,910,571.6,876.8c-13.5-4.7-26.5-11-40.2-14.6
	c-8.6-2.3-19.2-3.6-27.3-0.8c-70.1,24.2-139.7,49.7-209.6,74.2c-22.1,7.7-44.4,14.9-66.6,22.2c-11.3,3.7-22.7,7.3-34,11.1
	c-9.4,3.1-17.7,7.6-26.8,11.3C162.6,981.9,157.5,981.4,153.2,979.2z M518.7,79.7C518.7,79.7,518.7,79.7,518.7,79.7
	c-101.1,0.1-202.3,0.2-303.4,0c-31.3-0.1-35.5,3.9-35.5,35.3c0.1,129.8,0.2,259.7-0.1,389.5c0,22.9,7.8,28.6,29.4,21.7
	c79.9-25.7,159.9-51.4,240.1-76.1c63.6-19.6,127.7-37.5,191.4-56.8c64.4-19.5,128.4-40.2,192.9-59.5c12.5-3.8,17.3-10.2,17.3-22.6
	c-0.2-69.9-0.2-139.8-0.1-209.7c0-15.5-6.7-22.1-22.9-22C724.7,79.9,621.7,79.7,518.7,79.7z M850.7,712c-0.1,0-0.2,0-0.3,0
	c0-7.5,0-15,0-22.5c0-56.8,0.2-113.6-0.1-170.4c-0.1-19.8-5.6-23.2-21.8-17.9c-61.1,19.6-122.2,39-183.5,57.7
	c-82.2,25.1-164.5,49.6-246.8,74.4c-64.9,19.6-129.7,39.8-194.8,59c-17.3,5.1-24,15.5-23.9,32.8c0.4,59.3,0.3,118.6,0.4,177.9
	c0,20.4,9,26.8,28.7,19.7c16.4-5.9,32.4-12.8,48.8-18.5c78.3-27,156.4-54.5,235.3-79.8c14.8-4.8,33.4-3.9,48.7,0.2
	c31.2,8.4,61.2,21,91.8,31.7c64.1,22.3,128.2,44.3,192.3,66.5c19,6.6,25.3,2.3,25.3-18C850.7,840.6,850.7,776.3,850.7,712z
	 M96,135.2c-3.7,0-7.5,0-11.2,0c-23.5,0.2-28.3,5-28.5,28.6c-0.4,42.6-0.4,42.6,41.9,42.9c3.5,0,7,0.1,10.4,0
	c4.7,0,9.5,0.6,14.2-0.4c1.9-0.4,3.8-1.1,4.9-2.7c1.7-2.6,0.8-6.3,0.7-9.2c-0.1-4.9-0.3-9.8-0.5-14.7c-0.4-12.4-0.3-24.8-0.9-37.2
	c-0.1-2.2-0.2-4.8-2.3-6.1c-1.1-0.7-2.4-1-3.7-1.2C112.8,134.2,104.1,135.2,96,135.2z M931.2,208c5.4,0.1,10.7,0.1,16.1,0.2
	c5.6,0.1,11.9-1.3,16.5-4.8c8.7-6.5,7.2-20.6,7.2-30.1c0-9.4,2.5-27.2-6.2-33.9c-5.1-3.9-12.6-3.6-18.7-3.9
	c-7.5-0.4-15.1-0.3-22.6-0.1c-6.1,0.1-16.2-0.5-21.4,3.5c-4,3.1-2.5,10.1-2.6,14.6c-0.1,5.3-0.2,10.6-0.1,16c0,8.3-0.1,16.7,0.4,25
	c0.3,4.6-0.2,8.3,4.5,11.1c3.8,2.2,8.4,2.3,12.7,2.4C921.7,207.9,926.4,207.9,931.2,208z"/>
</svg>
