<?xml version="1.0" encoding="utf-8"?>
<!-- Generator: Adobe Illustrator 22.1.0, SVG Export Plug-In . SVG Version: 6.00 Build 0)  -->
<svg version="1.1" id="beer-2" xmlns="http://www.w3.org/2000/svg" xmlns:xlink="http://www.w3.org/1999/xlink" x="0px" y="0px"
	 viewBox="0 0 1024 1024" style="enable-background:new 0 0 1024 1024;" xml:space="preserve">
<g>
	<path d="M541.5,501.7c5.4-5.7,8.6-13,13.1-19.3c6.2-8.7,14.7-15.7,24.6-20.2c6.4-2.9,13.8-5.1,17.6-10.9c1.1-1.7,1.9-3.6,3.4-4.9
		c3.3-2.7,8.5-1.3,11.8,1.4c3.3,2.7,5.6,6.4,9,8.9c2.9,2.1,6.4,3.2,9.9,3.9c14.9,2.6,31.2-4.2,39.2-16.5c1.1-1.6,2.1-3.4,3.8-4.4
		c5-2.9,10.5,2.9,16.1,4.4c6.5,1.9,13.1-2.2,19.7-3.7c14.9-3.3,29.7,6.5,45,5.7c19-1,33.9-18.2,52.9-18.9c3.9-0.1,8.2,0.6,10.9,3.4
		c2.1,2.2,2.9,5.2,5,7.4c6,6.2,16.5,0.9,25.1-0.9c8.3-1.8,17,0.2,25.5-0.3c8.5-0.5,18.1-4.7,19.6-12.8c0.4-2.3,0.1-4.6,0.9-6.8
		c1.3-3.6,5.1-5.7,8.1-8.1c9.7-7.6,13.6-20.7,12-32.6c-1.7-11.9-8.2-22.8-16.4-31.9c-19.3-21.4-48.5-34.4-78.1-34.6
		c-16.2-0.1-32.9,3.3-48.2-1.9c-8-2.7-14.9-7.6-22.3-11.6c-14.5-7.8-31.1-12-47.8-12.2c-8.9-0.1-18.2,1.1-25.5,6
		c-4.6,3-8.2,7.3-13.1,9.8c-12.7,6.4-27.6-1.6-41.6-4.6c-17.8-3.8-37.5,1.5-50.6,13.7c-7.3,6.7-14.2,16-24.3,15.8
		c-6.1-0.1-11.4-3.9-17.3-5.6c-11-3.2-22.8,1.4-32.7,6.9c-23.1,12.8-42.6,31.4-56.1,53.5c-5.2,8.5-9.6,18.1-8.8,27.9
		c0.7,8.6,5.2,16.4,9.7,23.9c10.3,17.3,15.3,42,32.5,53.7c13.2,9,30.6,18.7,45.8,23.7C527.7,511.5,536.2,507.4,541.5,501.7z"/>
	<path d="M905.1,452c-6.3-2.1-10.2-4.7-12.2-8c-4.3,5.1-11.8,7.9-18.5,8.2c-3.5,0.2-7,0-10.3-0.2c-5.2-0.3-10.1-0.6-14.8,0.5
		c-1.9,0.4-3.8,1-5.8,1.6c-7.5,2.2-16,4.8-21.7-1.4c-1.3-1.4-2.1-2.9-2.9-4.4c-0.7-1.2-1.3-2.4-2.1-3.3c-2.4-2.5-6.6-2.8-9-2.7
		c-9,0.3-17.1,4.7-25.6,9.4c-8.5,4.7-17.3,9.5-27.3,10c-7.2,0.4-14.3-1.5-21.2-3.4c-8.1-2.2-15.8-4.3-23.4-2.6
		c-1.9,0.4-3.8,1.1-5.8,1.8c-4.9,1.7-9.9,3.5-15.2,1.9c-2.1-0.6-4.1-1.7-6.1-2.8c-3.7-2-6.1-3.2-8-2c-1,0.6-1.7,1.8-2.5,3.1
		l-0.4,0.6c-8.6,13.6-25.8,21.1-41.8,18.1c-4.5-0.8-8.1-2.3-11-4.4c-2.1-1.5-3.7-3.4-5.3-5.2c-1.3-1.5-2.5-2.9-3.9-4
		c-2.5-2.1-6.4-3.3-8.6-1.5c-0.8,0.6-1.3,1.7-1.9,2.8c-0.3,0.6-0.6,1.2-1,1.7c-3.5,5.5-9.4,8.1-15.1,10.6c-1.2,0.5-2.3,1-3.5,1.6
		c-9.5,4.5-17.7,11.4-23.6,20c-1.7,2.4-3.1,4.9-4.6,7.4c-2.6,4.3-5.2,8.8-8.7,12.7c-4.2,4.6-11.1,9.2-18.5,9.2
		c-1.9,0-3.7-0.3-5.6-0.9c-12.1-4.1-27-11.8-40.9-21c4.2,10.3,5.6,21.1,5.6,33.5c-0.5,121.7-0.5,243.4-0.1,365.1
		c0.1,46.6,18.2,71.7,62.8,81.1c46.5,9.8,93.8,15.4,135.1,22c40.9-5,74.8-10.1,108.9-13.2c63.8-5.8,102.9-36.4,97.7-104.7
		c-0.9-11.6,4.7-27.6,13.1-35.3c63-57.9,95.1-129.9,107.1-213.6C1020.3,558.7,994.3,481.6,905.1,452z M589.3,912.8
		c-22,0.5-24.2-16.3-24.2-33.4c0-114.8,0-229.6,0-344.4c0-4.2-1.3-9.8,0.9-12.3c7.6-8.6,15.4-21.1,24.9-22.9
		c16.3-3,19.6,12,19.6,25.4c0.2,41.9,0.1,83.8,0.1,125.7c0,19.3,0,38.5,0,57.8c0,57,0,114,0,171
		C610.7,895.4,610.3,912.3,589.3,912.8z M709.6,890.8c0,15.9-0.5,32.3-21.7,32.9c-22.2,0.6-24.6-16.1-24.6-33.2c0-115-0.1-230,0-345
		c0-5.8-0.8-13.6,2.5-17c7.4-7.6,16.6-16.9,25.9-17.8c5-0.5,16.4,14.3,16.9,22.6c1.9,35.1,0.8,70.5,0.8,105.7c0,26,0,52,0,78.1
		C709.6,775,709.6,832.9,709.6,890.8z M786.3,912.7c-21.8,0.5-24.6-16.1-24.6-33.4c0-115.1,0-230.1-0.1-345.2c0-1.7-0.1-3.4,0.1-5
		c1.8-16.1,6.3-31.1,26.1-30.6c19.7,0.6,20.7,16.2,20.7,31.1c0.1,58.8,0,117.6,0,176.4c0,57.9-0.1,115.9,0,173.8
		C808.6,896.2,806.6,912.3,786.3,912.7z M898.2,786.2c-0.8,1-3.1,0.8-7.8,1.7c0-95.8,0-191,0-290.7c45.4,16.5,69.8,45.4,75.3,87.7
		C975.8,662.5,945.8,727.6,898.2,786.2z"/>
	<polygon points="500.5,264.4 519.2,54.3 439.5,106 489.9,264.4 	"/>
	<polygon points="663.4,60.2 596.7,16.8 531,251.5 541.5,251.5 	"/>
	<polygon points="581.4,271.4 770.4,199.3 694.1,134.1 572.1,264.4 	"/>
	<path d="M121.5,422.9c5.4-5.7,8.6-13,13.1-19.3c6.2-8.7,14.7-15.7,24.6-20.2c6.4-2.9,13.8-5.1,17.6-10.9c1.1-1.7,1.9-3.6,3.4-4.9
		c3.3-2.7,8.5-1.3,11.8,1.4c3.3,2.7,5.6,6.4,9,8.9c2.9,2.1,6.4,3.2,9.9,3.9c14.9,2.6,31.2-4.2,39.2-16.5c1.1-1.6,2.1-3.4,3.8-4.4
		c5-2.9,10.5,2.9,16.1,4.4c6.5,1.9,13.1-2.2,19.7-3.7c14.9-3.3,29.7,6.5,45,5.7c19-1,33.9-18.2,52.9-18.9c3.9-0.1,8.2,0.6,10.9,3.4
		c2.1,2.2,2.9,5.2,5,7.4c6,6.2,16.5,0.9,25.1-0.9c3.5-0.8,7.1-0.8,10.7-0.7c13.7-17.7,31-32.7,50.9-43.7c1.2-0.7,2.3-1.1,3.5-1.7
		c1.2-4.8,1.7-9.7,1-14.5c-1.7-11.9-8.2-22.8-16.4-31.9c-19.3-21.4-48.5-34.4-78.1-34.6c-16.2-0.1-32.9,3.3-48.1-1.9
		c-8-2.7-14.9-7.6-22.3-11.6c-14.5-7.8-31.1-12-47.8-12.2c-8.9-0.1-18.2,1.1-25.5,6c-4.6,3-8.2,7.3-13.1,9.8
		c-12.7,6.4-27.6-1.6-41.6-4.6c-17.8-3.8-37.5,1.5-50.6,13.7c-7.3,6.7-14.2,16-24.3,15.8c-6.1-0.1-11.4-3.9-17.3-5.6
		c-11-3.2-22.8,1.4-32.7,6.9C53.9,260.3,34.4,279,20.9,301c-5.2,8.5-9.6,18.1-8.8,27.9c0.7,8.6,5.2,16.4,9.7,23.9
		c10.3,17.3,15.3,42,32.5,53.7c13.2,9,30.6,18.7,45.8,23.7C107.7,432.8,116.1,428.7,121.5,422.9z"/>
	<path d="M465.4,510.9l-9.8-23.8c-8.1-9.5-13.3-21-17.9-31.5c-2.7-6.1-5.2-11.9-8.1-16.8c-4.7-8-10.7-17.9-11.6-29.9
		c-1.1-13.9,4.8-26.2,9.9-34.7c-1.5,0.4-3,0.8-4.6,1.3c-7.5,2.2-16,4.8-21.7-1.4c-1.3-1.4-2.1-2.9-2.9-4.4c-0.7-1.2-1.3-2.4-2.1-3.3
		c-2.4-2.5-6.6-2.8-9-2.7c-9,0.3-17.1,4.7-25.6,9.4c-8.5,4.7-17.3,9.5-27.3,10c-7.2,0.4-14.3-1.5-21.2-3.4
		c-8.1-2.2-15.8-4.3-23.4-2.6c-1.9,0.4-3.8,1.1-5.8,1.8c-4.9,1.7-9.9,3.5-15.2,1.9c-2.1-0.6-4.1-1.7-6.1-2.8c-3.7-2-6.1-3.2-8-2
		c-1,0.6-1.7,1.8-2.5,3.1l-0.4,0.6c-8.6,13.6-25.8,21.1-41.8,18.1c-4.5-0.8-8.1-2.3-11-4.4c-2.1-1.5-3.7-3.4-5.3-5.2
		c-1.3-1.5-2.5-2.9-3.9-4c-2.5-2.1-6.4-3.3-8.6-1.5c-0.8,0.6-1.3,1.7-1.9,2.8c-0.3,0.6-0.6,1.2-1,1.7c-3.5,5.5-9.4,8.1-15.1,10.6
		c-1.2,0.5-2.3,1-3.5,1.6c-9.5,4.5-17.7,11.4-23.6,20c-1.7,2.4-3.1,4.9-4.6,7.4c-2.6,4.3-5.2,8.8-8.7,12.7
		c-4.2,4.6-11.1,9.2-18.5,9.2c-1.9,0-3.7-0.3-5.6-0.9c-12.1-4.1-27-11.8-40.9-21c4.2,10.3,5.6,21.1,5.6,33.5
		c-0.5,121.7-0.5,243.4-0.1,365.1c0.1,46.6,18.2,71.7,62.8,81.1c46.5,9.8,93.9,15.4,135.1,22c40.9-5,74.8-10.1,108.9-13.2
		c63.8-5.8,102.9-36.4,97.7-104.7c-0.3-3.7,0.3-7.8,1.2-11.9c-0.1-96.4,0-180.6,0.4-259.6C470,527.3,468.6,518.7,465.4,510.9z
		 M169.2,834c-22,0.5-24.2-16.3-24.2-33.4c0-114.8,0-229.6,0-344.4c0-4.2-1.3-9.8,0.9-12.3c7.6-8.6,15.4-21.1,24.9-22.9
		c16.3-3,19.6,12,19.6,25.4c0.2,41.9,0.1,83.8,0.1,125.7c0,19.3,0,38.5,0,57.8c0,57,0,114,0,171C190.6,816.7,190.2,833.5,169.2,834z
		 M289.6,812.1c0,15.9-0.5,32.3-21.7,32.9c-22.2,0.6-24.6-16.1-24.6-33.2c0-115-0.1-230,0-345c0-5.8-0.8-13.6,2.5-17
		c7.4-7.6,16.6-16.9,25.9-17.8c5-0.5,16.4,14.3,16.9,22.6c1.9,35.1,0.8,70.5,0.8,105.7c0,26,0,52,0,78.1
		C289.6,696.2,289.5,754.2,289.6,812.1z M366.2,834c-21.8,0.5-24.6-16.1-24.6-33.4c0-115.1,0-230.1-0.1-345.2c0-1.7-0.1-3.4,0.1-5
		c1.8-16.1,6.3-31.1,26.1-30.6c19.7,0.6,20.7,16.2,20.7,31.1c0.1,58.8,0,117.6,0,176.4c0,57.9-0.1,115.9,0,173.8
		C388.5,817.4,386.6,833.5,366.2,834z"/>
</g>
</svg>
