<?xml version="1.0" encoding="utf-8"?>
<!-- Generator: Adobe Illustrator 22.1.0, SVG Export Plug-In . SVG Version: 6.00 Build 0)  -->
<svg version="1.1" id="blackclaw" xmlns="http://www.w3.org/2000/svg" xmlns:xlink="http://www.w3.org/1999/xlink" x="0px" y="0px"
	 viewBox="0 0 1024 1024" style="enable-background:new 0 0 1024 1024;" xml:space="preserve">
<path d="M803,496.9c-10.7,19.2-31.6,26.3-46.7,16.5c16.2-22.6,34.2-44.2,48.2-68.2c12.3-21.1,24.9-44,28.6-67.5
	c4.9-31.1,1-63.6,1.4-95.5c0.2-11-7.1-15.2-14.8-14.1c-5.2,0.7-11.6,7.7-13.4,13.2c-2.6,7.8-2.1,16.9-1.6,25.4
	c1.7,30.5-7.5,57.1-28.9,78.9c-11.8,12-24.6,23-37.5,33.9c-3.5,3-9.7,6-13.2,4.8c-3.2-1.1-5.6-7.6-6.5-12.2
	c-2.9-14.5-3.4-29.6-7.7-43.5c-12.2-39.1,2-75.2,10.3-112.1c6.9-30.7,18-61,20.7-92.1c4-45.6-8.7-89.7-26.7-131.4
	c-4.4-10.1-11-26.1-31.6-19.4c0.8,7.3,1,14.5,2.5,21.4c2.8,12.3,8.8,24.4,9.2,36.7c1.2,32,2.6,63.3-10.7,95.2
	c-13.9,33.2-31.6,62.7-54.8,89.4c-2.3,2.6-11.3,2.4-15.2,0.2c-14.4-8.4-27.7-9-40.9,1.7c-5.6,4.5-11.4,8.8-17.3,13.3
	c-9.3-14.5-18.7-27.8-26.8-41.9c-8-14-20.7-11.9-29.1-5.4c-9.2,7.1-14.3,19.6-20.8,29.9c-3.3,5.3-5.8,11.1-9.1,17.5
	c-4.2-2.9-6.1-4-7.8-5.4c-17.2-15.1-34.9-23.8-56.3-6.9c-2,1.6-9.6,0-11.3-2.4c-14.4-20.6-29-41.2-41.6-62.9
	c-7.5-12.9-11.5-27.8-16.8-41.9c-13.9-37.3-15.6-74.5,0.4-111.9c2.7-6.4,3.6-15,1.6-21.4c-1-3.1-15.3-5.7-15.8-4.6
	c-10.9,21.9-22.4,43.8-30.3,66.9c-5.2,15.3-4.6,32.5-7.3,48.8c-6.1,38.1,4.3,74.6,11.3,111.2c5.8,30.3,19.3,59.9,20.5,90.1
	c1.2,30.9-8.4,62.3-13.9,98c-10.7-7.1-19-11.7-26.5-17.6c-33.1-26-58.3-56.6-57.7-101.8c0.1-8.5,0.9-17.4-1.1-25.5
	c-1.6-6.6-7.1-12.2-10.8-18.2c-6.1,6.4-17.7,12.8-17.6,19.1c0.7,35.8-6.6,71.6,6.9,107.4c13.1,34.7,28.5,67.2,52.8,95.2
	c7.2,8.3,14.7,16.4,22,24.6c-1.2,2.6-2.5,5.1-3.7,7.7c-10.4-3.4-21.8-5.2-30.9-10.8c-8.2-5.1-13-15.5-20.9-21.4
	c-5-3.8-12.9-4.6-19.6-4.7c-2.2,0-7.3,7.3-6.4,9.3c8.8,20.6,15.2,43.5,28.8,60.4c19.2,23.7,43.5,43.6,66.7,63.9
	c54.2,47.6,80.7,107.8,89.8,178.8c2.5,19.8-4.3,26.6-17.3,34.2c-11.6,6.8-12.3,16.3-8.7,28c4.2,13.9,7.6,28.1,11.2,42.2
	c6.8,27,12.4,53.4,43.1,66.3c27.6,11.6,52.2,30.8,80.3,40.6c18.8,6.5,41.5,8.7,61.8-3.2c17.8-10.5,35.2-23.7,54.6-29.2
	c38.3-10.8,61.6-33,63.7-76.6c0.5-10.3,4.3-21,8.7-30.6c8.2-17.7,5.8-30.1-10.3-40.3c-10.4-6.5-15.4-13.3-13.7-27.6
	c3.9-33.6,14.1-64.8,26.7-96c15.6-38.6,41.1-68.9,73.3-93.5c29-22.2,56.3-45.9,72-78.9c6.9-14.4,19.9-29.7,11.7-48.6
	C814.2,480.8,811,482.4,803,496.9z M384.3,520.2c-7-4.2-13.8-11.5-17-18.9c-6.2-14.7-9.8-30.5-14.5-45.8c1.9-0.7,3.8-1.4,5.7-2.1
	c35.8,22.3,62.3,53.3,85.7,91.1c-5.7,0.3-8.8,1.5-10.8,0.5C416.9,537,400,529.5,384.3,520.2z M405.9,887.8
	c21.1,0.5,42.2,43.8,42.2,43.8C401.1,901.5,405.9,887.8,405.9,887.8z M575.9,931.6c0,0,21.1-43.3,42.2-43.8
	C618.1,887.8,622.9,901.5,575.9,931.6z M620.4,531.6c-12.3,3.7-24,9.4-41,16.3c23.3-40.1,49.9-70.2,86.7-94.2
	C672.5,485,656.4,520.7,620.4,531.6z"/>
</svg>
