<?xml version="1.0" encoding="utf-8"?>
<!-- Generator: Adobe Illustrator 22.1.0, SVG Export Plug-In . SVG Version: 6.00 Build 0)  -->
<svg version="1.1" id="brand-logo" xmlns="http://www.w3.org/2000/svg" xmlns:xlink="http://www.w3.org/1999/xlink" x="0px" y="0px"
	 viewBox="0 0 1024 1024" style="enable-background:new 0 0 1024 1024;" xml:space="preserve">
<style type="text/css">
	.st0{fill:#231F20;}
</style>
<g>
	<path class="st0" d="M119.4,364l94.2-201.9c1.8-3.9-0.6-7.8-5.1-7.8h-39.9c-2.4,0-4.5,1.8-5.1,3.3L114,267.1h-1.8L62.7,157.6
		c-0.6-1.5-2.7-3.3-5.1-3.3H17.7c-4.5,0-6.9,3.9-5.1,7.8L106.2,364c0.9,1.8,2.7,3.3,5.1,3.3h3C116.7,367.3,118.5,365.8,119.4,364z"
		/>
	<path class="st0" d="M293.7,154.4h-51.6c-2.1,0-4.2,1.5-5.1,3.3l-93.9,198.9c-1.8,3.9,0.6,7.8,5.1,7.8h36c6,0,9.3-3.6,10.8-7.2
		l10.8-24h43.9l-0.1,23.7c0,4.1,5.1,7.5,10.5,7.5h33.3c4.5,0,5.3-4.5,5.3-7.8l0-198.9C298.8,155.7,295.8,154.4,293.7,154.4z
		 M223.9,286.3l25.5-55.6h0.3l0.2,55.6H223.9z"/>
	<path class="st0" d="M322.9,364.3h36c3,0,5.7-2.7,5.7-5.7V160c0-3-2.7-5.7-5.7-5.7h-36c-3,0-5.7,2.7-5.7,5.7v198.6
		C317.2,361.6,319.9,364.3,322.9,364.3z"/>
	<path class="st0" d="M291.5,480.3h-60.3c-3.3,0-5.7,2.4-5.7,5.7v29.7c0,3,2.4,5.4,5.7,5.4h18.9v17.4c-9,3.6-18,4.8-26.7,4.8
		c-32.7,0-59.4-27-59.4-59.7c0-33,26.4-60.6,59.1-60.6c14.7,0,27.9,3.9,39.3,14.4c2.4,1.8,5.7,1.8,8.1-0.3l23.7-25.2
		c2.4-2.4,2.1-6-0.6-8.1c-20.4-17.7-48-28.2-73.2-28.2c-59.7,0-107.7,48-107.7,108c0,60,48,107.4,107.7,107.4
		c43.5,0,74.4-19.5,74.4-19.5c1.2-0.9,2.4-3.3,2.4-4.8l-0.3-80.7C296.9,483,294.5,480.3,291.5,480.3z"/>
	<path class="st0" d="M435.8,544.2h-71.4V384c0-3-2.7-5.7-5.7-5.7h-35.7c-3.3,0-5.7,2.7-5.7,5.7v198.6c0,3,2.4,5.7,5.7,5.7h112.8
		c3.3,0,5.7-2.7,5.7-5.7v-32.7C441.4,546.9,439.1,544.2,435.8,544.2z"/>
	<path class="st0" d="M572.5,378.4V160c0-3-2.7-5.7-5.7-5.7h-36c-3.3,0-5.7,2.7-5.7,5.7v130.8h-0.3L400.5,156c0,0-1-1.6-3-1.6
		c-2,0-6.1,0-6.1,0c-3,0-5.7,2.4-5.7,5.4l0.3,198.9c0,3,2.7,5.7,5.7,5.7h35.7c3.3,0,5.7-2.7,5.7-5.7v-84.6h0.3l91.7,103.4
		C475.7,387.4,439,431,439,483.6c0,56.8,42.8,102.6,98.2,107.3c-5.5,5.4-10.7,10.7-10.7,11c0,12.8,23.2,267.8,23.2,267.8
		s23.2-255,23.2-267.8c0-0.4-5.6-6-11.3-11.6c52.8-7.2,93.1-51.7,93.1-106.7C654.7,432.5,619.9,389.9,572.5,378.4z M546.7,543.3
		c-32.7,0-59.7-27-59.7-59.7c0-33,27-60.3,59.7-60.3c33,0,60,27.3,60,60.3C606.7,516.3,579.7,543.3,546.7,543.3z"/>
	<path class="st0" d="M833.8,443.1c0-35.7-29.4-64.8-65.4-64.8h-89.7c-3.3,0-5.7,2.7-5.7,5.7v198.6c0,3,2.4,5.7,5.7,5.7h35.7
		c3,0,5.7-2.7,5.7-5.7v-76.5h20.7l39.9,79.5c0.6,1.2,2.4,2.7,4.8,2.7h39.9c5.1,0,7.2-4.8,5.1-8.7l-41.1-76.2
		C815.5,492.9,833.8,470.7,833.8,443.1z M764.5,468h-44.4v-46.8h44.4c12.3,0,22.8,10.2,22.8,22.8C787.3,456.6,776.8,468,764.5,468z"
		/>
	<path class="st0" d="M1006.3,378.3h-39c-2.7,0-3.9,1.5-4.8,2.7l-41.7,61.5L879.1,381c-0.9-1.2-2.4-2.7-4.8-2.7h-39
		c-4.8,0-7.2,4.8-4.8,8.7l66.3,100.2v95.4c0,3,2.4,5.7,5.7,5.7h35.7c3,0,5.7-2.7,5.7-5.7v-95.7l67.2-99.9
		C1013.5,383.1,1011.1,378.3,1006.3,378.3z"/>
</g>
</svg>
