<?xml version="1.0" encoding="utf-8"?>
<!-- Generator: Adobe Illustrator 22.1.0, SVG Export Plug-In . SVG Version: 6.00 Build 0)  -->
<svg version="1.1" id="chest" xmlns="http://www.w3.org/2000/svg" xmlns:xlink="http://www.w3.org/1999/xlink" x="0px" y="0px"
	 viewBox="0 0 1024 1024" style="enable-background:new 0 0 1024 1024;" xml:space="preserve">
<g>
	<path d="M949.6,556c0,104,0,206.3,0,309.4c-78.9,17.3-130.1,62.5-145,144.8c-195.5,0-390.6,0-587.6,0
		c-5.5-36.3-17.5-70.5-43.6-98.2c-25.9-27.5-58.1-42.2-96.7-46.4c0-102.8,0-205.6,0-309.5C367.2,556,657.6,556,949.6,556z
		 M539.1,788.9c9.3-6.2,17.2-10.8,24.3-16.3c31.5-24.4,40.5-67.6,21.7-102.4c-18.8-34.8-60.1-51.6-97.4-38.5
		c-32.6,11.5-51.8,35.2-55,69.5c-3.2,34.3,11.1,61.6,41.4,78.2c14.1,7.7,16.4,15.1,11.1,29.7c-10.9,30-19.9,60.6-29.7,91
		c-4.3,13.4-8.5,26.8-12.9,41c48.1,0,93.7,0,141.6,0C568.9,889.5,554.1,839.5,539.1,788.9z"/>
	<path d="M138.6,365.4c0-90.6,0-179.1,0-270c7,0,13.4,0,19.8,0c90.4,0,180.9-0.2,271.3,0.3c13.3,0.1,22.8-2,28.8-15.3
		c3.4-7.4,9.6-13.9,15.5-19.8c20.6-20.5,44.4-23.2,68.8-7.2c9,5.9,18.8,12.6,24.2,21.4c11.8,19.5,28.4,21.3,48.8,21
		c83.2-0.9,166.4-0.4,249.6-0.4c6.6,0,13.1,0,21.2,0c0,90.4,0,179.7,0,270C637.5,365.4,388.8,365.4,138.6,365.4z"/>
	<path d="M1012,491.4c-333.9,0-666.5,0-1000,0c0-159.4,0-317.8,0-477.6c20.3,0,40.9,0,63.4,0c0,137.1,0,274.2,0,412.7
		c292.1,0,582.4,0,874.7,0c0-137,0-274.2,0-412.7c21.5,0,41,0,61.9,0C1012,172.1,1012,330.9,1012,491.4z"/>
	<path d="M948.7,1010.3c-30.1,0-58.8,0-87.6,0c3.3-41.5,39.1-77.9,87.6-88.7C948.7,950.9,948.7,979.9,948.7,1010.3z"/>
	<path d="M76.7,920.9c43.6,1.8,76.5,36.2,85,88.8c-28,0-55.8,0-85,0C76.7,980.7,76.7,951.5,76.7,920.9z"/>
</g>
</svg>
