<?xml version="1.0" encoding="utf-8"?>
<!-- Generator: Adobe Illustrator 22.1.0, SVG Export Plug-In . SVG Version: 6.00 Build 0)  -->
<svg version="1.1" id="gg" xmlns="http://www.w3.org/2000/svg" xmlns:xlink="http://www.w3.org/1999/xlink" x="0px" y="0px"
	 viewBox="0 0 1024 1024" style="enable-background:new 0 0 1024 1024;" xml:space="preserve">
<g>
	<path d="M1012,587.4c0-80,0-80-80.6-80c-99.7,0-98.9,0-96.9,98.6c0.5,25.3,9.2,34.6,33.5,32.3c7.2-0.7,14.7,1.5,21.5,2.3
		c14.8,63.1,1.5,82.7-59.7,82.2c-53-0.4-94.3-26.3-123.9-69.8c-50.4-73.9-57-154.4-24.8-235.5c44.6-112.1,160.3-153.8,238.5-73.4
		c5.1,5.3,27.4,3,33.4-3.4c19.7-21.2,37.3-45.1,52-70c4.7-8.1,2.6-27.2-3.9-33.7c-49.6-49.1-107.2-87.7-178.7-90.4
		c-68.8-2.6-129.4,26.2-175.4,76.9c-115,126.7-137.2,273.8-87.3,434.2c48.9,157.5,186.6,271.8,380.1,195.9
		c61.2-24,72.4-38.6,72.4-106.1C1012,694.1,1012,640.8,1012,587.4z"/>
	<path d="M482.9,518.1c-21-19-68.7-10.1-104.9-10.3c-73.8-0.5-63.5-7.4-64,65.5c-0.5,61.5-0.1,61.5,59.3,68.5
		c-7.2,26,21.2,57.8-26.2,71.8c-59.5,17.7-123.4-2.4-161.4-58.3c-51-74.9-58.8-156-25.6-238.6c43.2-107.7,157.4-155,238.6-72.4
		c5,5.1,27.1,2.3,33.3-4.2c19-20.1,36-42.8,49.7-66.9c5.2-9.2,4.4-29.9-2.3-36.6c-49.5-49-107.1-89.3-178.4-90
		c-101.4-1-176,54.7-224.8,138.9c-68.3,117.8-83.8,243.2-38,375c56,161.4,192.9,267.8,382.3,192.1c57.2-22.9,70.4-39,70.4-88.2
		c0-48.2,0.6-96.4-0.2-144.6C490.1,584.6,501.2,534.7,482.9,518.1z"/>
</g>
</svg>
