<?xml version="1.0" encoding="utf-8"?>
<!-- Generator: Adobe Illustrator 22.1.0, SVG Export Plug-In . SVG Version: 6.00 Build 0)  -->
<svg version="1.1" id="glory" xmlns="http://www.w3.org/2000/svg" xmlns:xlink="http://www.w3.org/1999/xlink" x="0px" y="0px"
	 viewBox="0 0 1024 1024" style="enable-background:new 0 0 1024 1024;" xml:space="preserve">
<path d="M865.2,187.9L697.1,351.3l-34.4,33.5c-27.1-34.5-65.7-59.4-110.1-69v-48.6V12h-81.2v255.2v48.6c-44.4,9.6-83,34.5-110.1,69
	l-34.4-33.5L158.8,187.9c0,0-9.5,52.8,0,75.8l148.8,114.8c-3.6,5.9-7,12.1-10.1,18.3l-121-85.4c0,0-5.4,32.1,5.4,52.4l102.4,65.3
	c-1.9,5.7-3.5,11.5-4.9,17.4L194,405c0,0,2.7,37.4,13.5,45.5l66.2,28.7c-0.7,7.3-1.1,14.7-1.2,22.1l-54.2-19.7
	c0,0-5.7,45.8,76.7,123.1c15.7,14.7,34.6,30.5,57.3,47.4l26.4-11.1c24.5,23.7,55.4,40.9,89.8,48.9l-2.6,12.2h-14.9l3.7,33.6
	l23.4,214L512,1012l33.8-62.2l23.4-214l3.7-33.6H558l-2.6-12.2c34.4-8,65.3-25.1,89.8-48.9l26.4,11.1c22.7-16.9,41.6-32.7,57.3-47.4
	c82.4-77.2,76.7-123.1,76.7-123.1l-54.2,19.7c-0.1-7.5-0.4-14.8-1.2-22.1l66.2-28.7C827.3,442.3,830,405,830,405l-85.3,41.5
	c-1.4-5.9-3.1-11.7-4.9-17.4l102.4-65.3c10.8-20.3,5.4-52.4,5.4-52.4l-121,85.4c-3.1-6.3-6.5-12.4-10.1-18.3l148.8-114.8
	C874.7,240.7,865.2,187.9,865.2,187.9z M512,601.4c-54.3,0-98.2-44-98.2-98.2s44-98.2,98.2-98.2s98.2,44,98.2,98.2
	S566.3,601.4,512,601.4z"/>
</svg>
