<?xml version="1.0" encoding="utf-8"?>
<!-- Generator: Adobe Illustrator 22.1.0, SVG Export Plug-In . SVG Version: 6.00 Build 0)  -->
<svg version="1.1" id="guild-officer" xmlns="http://www.w3.org/2000/svg" xmlns:xlink="http://www.w3.org/1999/xlink" x="0px"
	 y="0px" viewBox="0 0 1024 1024" style="enable-background:new 0 0 1024 1024;" xml:space="preserve">
<g>
	<path d="M175.9,725.8c335.3,300.3,672.3,0,672.3,0v-26.3H175.9V725.8z"/>
	<path d="M147.9,535.3v132.6h299.7c-10.5-12.6-21.6-27.8-33.7-45.2c-1.2-1.7-2.2-3.2-3.1-4.5c-14.9-21.2-32.7-50.1-39.4-82.9H147.9z
		"/>
	<path d="M610.4,619c-2.5,3.6-4.9,7.3-7.4,11c-8.5,12.6-17.2,25.5-27,37.9h300.1V535.3H651.3C643.9,566.3,627.2,594.4,610.4,619z"/>
	<path d="M814.6,248c-92.1,52.6-307-83.3-307-83.3C415.5,270,262,217.3,262,217.3C235.7,296.3,12,348.9,12,348.9l136,140.4h222.5
		c0,0,0-0.1,0-0.1c7.6-43.6,37.4-79.9,86-104.9c19.6-10.1,38.1-15,56.4-15c31.7,0,57.9,14.9,79.5,29.5c36.7,24.8,58,56.1,62,90.6
		h226L1012,327C915.5,348.9,814.6,248,814.6,248z"/>
	<path d="M514.9,678.3c6.6-1,12-5.5,16.8-10.1c20.4-19.8,35.6-44.4,51.5-67.7c21.2-31,42.1-66.9,38.7-105.7
		c-2.6-29.9-24.2-52.8-47.9-68.9c-35.9-24.3-63.1-32.7-102.5-12.4c-32.8,16.9-62,43.5-68.6,81.3c-6.6,37.5,14,74.9,34.8,104.5
		C449.1,615.5,492.8,681.6,514.9,678.3z"/>
</g>
</svg>
