<?xml version="1.0" encoding="utf-8"?>
<!-- Generator: Adobe Illustrator 22.1.0, SVG Export Plug-In . SVG Version: 6.00 Build 0)  -->
<svg version="1.1" id="heroes" xmlns="http://www.w3.org/2000/svg" xmlns:xlink="http://www.w3.org/1999/xlink" x="0px" y="0px"
	 viewBox="0 0 1024 1024" style="enable-background:new 0 0 1024 1024;" xml:space="preserve">
<g>
	<path d="M654.9,137.9c0,0-48-27.6-82.8-31.2L510.9,12l-61.2,94.8c-34.8,3.6-82.8,31.2-82.8,31.2l143.9,148.7L654.9,137.9z"/>
	<polygon points="440.7,275.2 408.5,310.1 510.9,416.2 617.7,308.3 584.1,277.1 510.9,351.5 	"/>
	<path d="M827.7,605l-4-248.7c-1.6-112.8-126.3-197.5-126.3-197.5L603,257.9l54,54.4L512,455.4L367,312.3l54-54.4l-94.4-99.2
		c0,0-124.8,84.8-126.3,197.5l-4,248.7l37.6,41.6L233,790.5c0,0,52,142.3,157.5,221.5L389,557.8c0,0-12.8,7.2-63.2,2.4
		c0,0-56.8-9.6-75.2-66.4c0,0,13-59.1,88.2-59.1c20.4,0.4,39.7,0.3,59,7.8c12.6,4.9,24.8,11.4,35,20.4c14.4,12.7,23.2,30,23.2,49.3
		l-0.8,106.4l56.7,69.6l56.7-69.6l-0.8-106.4c0-19.4,8.8-36.7,23.2-49.3c10.2-9,22.4-15.5,35-20.4c19.3-7.5,38.6-7.4,59-7.8
		c75.2,0,88.2,59.1,88.2,59.1c-18.4,56.8-75.2,66.4-75.2,66.4c-50.4,4.8-63.2-2.4-63.2-2.4l-1.6,454.2
		C739,932.8,791,790.5,791,790.5l-0.8-143.9L827.7,605z"/>
</g>
</svg>
