<?xml version="1.0" encoding="utf-8"?>
<!-- Generator: Adobe Illustrator 22.1.0, SVG Export Plug-In . SVG Version: 6.00 Build 0)  -->
<svg version="1.1" id="home" xmlns="http://www.w3.org/2000/svg" xmlns:xlink="http://www.w3.org/1999/xlink" x="0px" y="0px"
	 viewBox="0 0 1024 1024" style="enable-background:new 0 0 1024 1024;" xml:space="preserve">
<g>
	<path d="M154.8,740v161c0,0,291.2,249.7,714.5,0V740C869.2,740,532.7,966.6,154.8,740z"/>
	<path d="M245.4,305.1c-50.1,38.6-90.6,61.7-90.6,61.7v350c30.5,18.3,60.8,33.6,90.6,46.4V305.1z"/>
	<path d="M864.4,366.8c0,0-40.5-23.1-90.6-61.7v459.7c47.3-19.1,79.1-37.8,90.6-45V366.8z"/>
	<path d="M365,498c0-6,7-16,9.6-21.4c3.1-6.3,6.3-12.5,9.8-18.5c7.8-13.4,16.4-26.4,25-39.4c22.3-33.6,47.3-66.8,78.6-92.7
		c3.9-3.2,21.6-17,21.6-17s17.8,13.8,21.6,17c31.3,25.8,56.3,59.1,78.6,92.7c8.6,12.9,17.2,26,25,39.4c3.5,6,6.7,12.3,9.8,18.5
		c2.7,5.4,9.6,15.4,9.6,21.4c0,0,0,205.5,0,303.7c29.5-6.4,56.7-14.2,81-22.5V287.8L509.6,12L284,287.8v490.5
		c27.5,9.9,54.5,17.6,81,23.5C365,703.6,365,498,365,498z"/>
</g>
</svg>
