<?xml version="1.0" encoding="utf-8"?>
<!-- Generator: Adobe Illustrator 22.1.0, SVG Export Plug-In . SVG Version: 6.00 Build 0)  -->
<svg version="1.1" id="leaderboard" xmlns="http://www.w3.org/2000/svg" xmlns:xlink="http://www.w3.org/1999/xlink" x="0px"
	 y="0px" viewBox="0 0 1024 1024" style="enable-background:new 0 0 1024 1024;" xml:space="preserve">
<g>
	<path d="M673.2,469.8c0-25.2-5.9-31.1-31.3-31.1c-87,0-174.1,0-261.1,0c-26.8,0-32.8,6.5-32.5,33.7c0.7,57,1.6,114.1,1.7,171.1
		c0.3,92.9,0,185.9,0,278.8c0,23.8,0.1,23.9,24.6,23.9c91.2,0,182.3,0,273.5,0c23.7,0,23.6-0.1,23.6-24.7c0-74.1,0-148.2,0-222.3
		c0.5,0,1,0,1.6,0C673.2,622.7,673.3,546.3,673.2,469.8z"/>
	<path d="M329.5,628.5c0-23.3-5.8-29.2-29.4-29.2c-89.4-0.1-178.8,0.4-268.2-0.2c-16.2-0.1-20.9,5-20.8,21.2
		c0.7,103.5,0.3,207,0.3,310.5c0,4.5,0,9.1,0,15.4c6.2,0,10.8,0,15.3,0c94.1,0,188.2-0.4,282.3,0.4c17.2,0.1,20.6-6.5,20.5-21.6
		C329.2,826.1,329.6,727.3,329.5,628.5z"/>
	<path d="M1011.2,726.8c0.2-16.2-6.1-19.9-20.5-19.9c-90,0.3-179.9,0-269.9,0.1c-21.6,0-28.4,6.9-28.5,28.9
		c-0.2,63.5,0.4,127-0.1,190.5c-0.1,15,4.6,20.2,20.3,20.1c94.7-0.7,189.4-0.3,284-0.3c4,0,8,0,14.2,0
		C1010.8,871.3,1010.3,799.1,1011.2,726.8z"/>
	<path d="M429.6,179.7h45.8v214.7c0,4.8,3.8,9.1,9.1,9.1h53c4.8,0,8.6-4.3,8.6-9.1V88.1c0-4.8-3.8-9.1-8.6-9.1h-43.9l-69.7,54.4
		c-1.4,1.4-2.9,5.2-2.9,7.2v30.1C421,175.5,424.9,179.7,429.6,179.7z"/>
	<path d="M92.4,565.5h123.3c3.1,0,5.9-2.8,5.9-5.9v-27.7c0-3.1-2.8-5.9-5.9-5.9h-54.3c14.5-20.3,39.8-53.3,49.6-70.9
		c7.4-14.5,12-23.7,12-40.1c0-34.2-25.9-62.3-70-62.3c-36.7,0-61.7,30.2-61.7,30.2c-2.2,2.5-1.8,6.2,0.3,8l18.8,19.1
		c2.5,2.5,6.2,2.5,8.6,0c5.9-6.5,17.3-15.4,29.9-15.4c17.3,0,27.1,10.5,27.1,22.2c0,8.6-4,17.3-8,23.4
		c-18.2,27.7-63.8,89.7-81.7,113.1v6.2C86.6,562.8,89,565.5,92.4,565.5z"/>
	<path d="M863,680.6c42.5,0,71.8-25.3,71.8-58.9c0-26.5-22.8-45.6-37.3-51.8V569c13.9-6.5,31.8-24,31.8-47.8
		c0-34.5-30.8-56.4-66.6-56.4c-33.6,0-58.9,27.1-58.9,27.1c-2.2,2.2-2.5,5.9,0,8l18.8,18.5c2.5,2.2,6.2,2.2,8.3-0.3
		c4.6-5.2,13.3-12.3,26.8-12.3c13.3,0,24.7,9.9,24.7,23.1c0,13.3-11.4,23.7-33,23.7h-17.3c-3.1,0-5.9,2.5-5.9,5.9v25.6
		c0,3.1,2.8,5.9,5.9,5.9h17.3c22.8,0,36.7,11.4,36.7,25c0,13.6-13.6,24.7-26.8,24.7c-14.8,0-33.9-14.2-33.9-14.2
		c-2.5-1.8-5.5-1.5-7.7,0.6l-19.4,19.4c-1.8,2.2-2.2,5.5-0.3,7.7C804.4,661.5,824.1,680.6,863,680.6z"/>
</g>
</svg>
