<?xml version="1.0" encoding="utf-8"?>
<!-- Generator: Adobe Illustrator 22.1.0, SVG Export Plug-In . SVG Version: 6.00 Build 0)  -->
<svg version="1.1" id="lightbulb" xmlns="http://www.w3.org/2000/svg" xmlns:xlink="http://www.w3.org/1999/xlink" x="0px" y="0px"
	 viewBox="0 0 1024 1024" style="enable-background:new 0 0 1024 1024;" xml:space="preserve">
<g>
	<path d="M511.6,752.9c-30.6,0-61.3,0.4-91.9-0.1c-25.3-0.4-32.2-7.8-32-33.1c0.3-32.9-18.5-57.7-36.6-81.8
		c-28.9-38.4-61-74.5-90.3-112.6c-25-32.5-38.9-70.1-51.5-109.2c-14.5-44.9-8.5-89.7-7.2-134.2c0.7-24.7,11.5-50.1,21.7-73.5
		c21.6-49.1,51.2-93,94.2-126.4c35.4-27.5,74.6-46,117.9-59.6c44.1-13.8,88.3-11.7,130.6-5.9c42.9,5.9,84.1,25.4,121,51.5
		c51,36,86.8,83.7,112.3,139.5c23,50.4,25.5,104.1,23.7,158.7c-1.1,35.8-13.8,67.9-26.3,100c-18.2,46.5-51.4,83.2-84,120.3
		c-27.9,31.8-55.7,64.3-71.2,104.6c-3.7,9.7-5.4,20.6-5.9,31c-1,22.3-7.1,30.1-29.4,30.6C575.2,753.4,543.4,752.8,511.6,752.9
		C511.6,752.9,511.6,752.9,511.6,752.9z M450.6,459.6c-0.2,0-0.5,0-0.7,0c0-10.2,0.1-20.4,0-30.6c-0.1-10.2-0.1-20.4-0.8-30.6
		c-0.9-14.9,6.8-23.8,18.4-31.8c18.6-12.8,39.2-9.5,59.3-9.1c32.8,0.6,49.5,19.4,47.9,51.7c-4.7,98.5-9.4,197-13.5,295.5
		c-0.2,5.6,4,11.5,6.1,17.2c2.8-5.3,7.3-10.4,8.1-15.9c5.2-37.5,9.3-75.2,14.2-112.8c5-38.1,11.1-76.1,15.9-114.2
		c5.4-43.2,9.6-86.5,15.1-129.7c1.8-14.2-2.5-25.3-14.2-31.9c-10.2-5.7-21.7-10.6-33.2-12.2c-50.1-7.3-100.1-10-148.8,9.1
		c-15.2,6-23.2,17.8-21,34.1c1.8,13.4,2.6,27,4.2,40.5c4.4,35.9,9,71.8,13.4,107.7c5.9,48.2,11.7,96.5,17.7,144.7
		c3,24.1,6.4,48.2,10.1,72.2c0.5,3.1,4.5,5.6,6.8,8.3c2.6-3.2,6.3-5.9,7.5-9.6c1.2-3.5-0.2-7.8-0.4-11.8
		C458.8,620.3,454.7,540,450.6,459.6z"/>
	<path d="M513.1,781c45.3,0,90.7-0.1,136,0c22.6,0,26.5,3.4,26.9,22.8c0.6,24.2-3.4,29.5-25.5,30c-12.1,0.3-15.6,5.3-15.4,16.6
		c0.5,26.1-1.5,52.3,0.6,78.2c3.6,45.2-22.2,58.2-57,72.4c-31.6,13-64.4,12.1-96.7,9.1c-28-2.6-55.9-11.4-76.8-31.3
		c-8.8-8.4-15.3-23-16.2-35.3c-2.2-31-1.1-62.3-0.5-93.5c0.2-11.6-4-16.1-15.7-16.3c-21.1-0.4-25.5-6.1-25.1-28.8
		c0.3-20,4.4-23.9,26-24C420.2,780.9,466.6,781,513.1,781z"/>
</g>
</svg>
