<?xml version="1.0" encoding="utf-8"?>
<!-- Generator: Adobe Illustrator 22.1.0, SVG Export Plug-In . SVG Version: 6.00 Build 0)  -->
<svg version="1.1" id="meet-outline" xmlns="http://www.w3.org/2000/svg" xmlns:xlink="http://www.w3.org/1999/xlink" x="0px"
	 y="0px" viewBox="0 0 1024 1024" style="enable-background:new 0 0 1024 1024;" xml:space="preserve">
<path d="M980.5,757.3L846.4,652.5l3-4.9c16.3-26.6,15.4-59.5-2.4-83.8c-17.8-24.3-48.8-35.1-79.1-27.6l-98.7,24.4
	c-6.8-35.1-25-66.2-50.7-89.1l64.7-64c22.2-22,29.1-54.1,17.7-81.9c-11.4-27.8-39-45.8-70.2-45.8h-5.5l-13.5-122.5
	c-4.6-41.5-39.5-72.8-81.2-72.8h-42.6c-42,0-77.7,32.8-81.2,74.7l-9.9,120.6h-3.5c-31.2,0-58.8,18-70.2,45.8
	c-11.4,27.8-4.5,59.9,17.7,81.9l64.7,64c-25.7,22.9-44,54-50.7,89.1l-98.7-24.4c-30.3-7.5-61.4,3.3-79.1,27.6
	c-17.8,24.2-18.7,57.1-2.4,83.8l3,4.9L43.8,757.1c-33,25.6-41.5,71.7-19.7,107.3l22.2,36.3c15.2,24.9,42.2,38.9,69.8,38.9
	c12.3,0,24.7-2.8,36.3-8.6c0.9-0.5,1.9-1,2.8-1.5l142.7-80.1l0.5,0.8c16.3,26.7,46,40.8,75.7,36c29.7-4.8,53.5-27.5,60.6-57.8
	l20.7-87.7C473,747.3,492.1,751,512,751s39-3.7,56.7-10.4l20.6,87.7c7.1,30.4,30.9,53.1,60.6,57.9c29.7,4.8,59.4-9.4,75.7-36
	l0.5-0.8l142.7,80.1c0.9,0.5,1.8,1,2.8,1.5c11.6,5.8,24,8.6,36.3,8.6c27.6,0,54.6-14,69.8-38.9l22.2-36.3
	C1021.7,828.7,1013.2,782.6,980.5,757.3z M403,655.5L386.8,724c-1.3,5.4-3.3,14.2-4.6,19.6l-16.1,68.5c-1.3,5.4-4.7,5.9-7.6,1.2
	l-30.4-49.8c-2.9-4.7-9.3-6.6-14.3-4.1L120.6,868c-5,2.5-11.4,0.7-14.3-4.1l-22.2-36.3c-2.9-4.7-1.7-11.4,2.7-14.8l175.6-137.3
	c4.4-3.4,5.6-10,2.7-14.8l-30.6-50c-2.9-4.7-0.9-7.5,4.5-6.2l68.4,16.9c5.4,1.3,14.2,3.5,19.6,4.8l68.4,16.9
	C400.9,644.6,404.2,650.1,403,655.5z M512,680.5c-49.5,0-89.6-40.1-89.6-89.6c0-49.5,40.1-89.6,89.6-89.6
	c49.5,0,89.6,40.1,89.6,89.6C601.6,640.4,561.5,680.5,512,680.5z M583.6,406.9c-3.9,3.9-10.4,10.3-14.3,14.2l-50.1,49.5
	c-3.9,3.9-10.4,3.9-14.3,0L454.8,421c-3.9-3.9-10.4-10.3-14.3-14.2l-50.1-49.5c-3.9-3.9-2.6-7.1,2.9-7.1h58.4
	c5.5,0,10.5-4.5,10.9-10L477,165c0.5-5.5,5.4-10,10.9-10h42.6c5.5,0,10.6,4.5,11.2,10l19.3,175.3c0.6,5.5,5.6,10,11.2,10h58.6
	c5.5,0,6.9,3.2,2.9,7.1L583.6,406.9z M939.8,827.6l-22.2,36.3c-2.9,4.7-9.3,6.6-14.3,4.1L710.2,759.5c-5-2.5-11.4-0.7-14.3,4.1
	l-30.4,49.8c-2.9,4.7-6.3,4.2-7.6-1.2l-16.1-68.5c-1.3-5.4-3.3-14.2-4.6-19.6L621,655.5c-1.3-5.4,2.1-10.9,7.5-12.2l68.4-16.9
	c5.4-1.3,14.2-3.5,19.6-4.8l68.4-16.9c5.4-1.3,7.4,1.5,4.5,6.2l-30.6,50c-2.9,4.7-1.7,11.4,2.7,14.8l175.6,137.3
	C941.5,816.2,942.7,822.9,939.8,827.6z"/>
</svg>
