<?xml version="1.0" encoding="utf-8"?>
<!-- Generator: Adobe Illustrator 22.1.0, SVG Export Plug-In . SVG Version: 6.00 Build 0)  -->
<svg version="1.1" id="meet" xmlns="http://www.w3.org/2000/svg" xmlns:xlink="http://www.w3.org/1999/xlink" x="0px" y="0px"
	 viewBox="0 0 1024 1024" style="enable-background:new 0 0 1024 1024;" xml:space="preserve">
<g>
	<path d="M512,499.5c-57.6,0-104.3,46.7-104.3,104.3S454.4,708.2,512,708.2c57.6,0,104.3-46.7,104.3-104.3S569.6,499.5,512,499.5z"
		/>
	<path d="M376.3,664.8l-79.6-19.7c-6.3-1.5-16.5-4.1-22.8-5.6l-79.6-19.7c-6.3-1.5-8.6,1.7-5.3,7.2l35.6,58.2
		c3.4,5.5,1.9,13.2-3.2,17.2L17,862.3c-5.1,3.9-6.5,11.7-3.2,17.2l25.9,42.3c3.4,5.5,10.8,7.6,16.6,4.7l224.9-126.3
		c5.8-2.9,13.2-0.8,16.6,4.7l35.5,58c3.4,5.5,7.3,4.9,8.8-1.4l18.8-79.8c1.5-6.3,3.9-16.6,5.4-22.9L385,679
		C386.5,672.7,382.6,666.3,376.3,664.8z"/>
	<path d="M1007,862.3L802.5,702.5c-5.1-3.9-6.5-11.7-3.2-17.2l35.6-58.2c3.4-5.5,1-8.7-5.3-7.2l-79.6,19.7
		c-6.3,1.5-16.5,4.1-22.8,5.6l-79.6,19.7c-6.3,1.5-10.2,8-8.7,14.2l18.8,79.8c1.5,6.3,3.9,16.6,5.4,22.9l18.8,79.8
		c1.5,6.3,5.4,6.9,8.8,1.4l35.5-58c3.4-5.5,10.8-7.6,16.6-4.7l224.9,126.3c5.8,2.9,13.2,0.8,16.6-4.7l25.9-42.3
		C1013.5,874,1012.1,866.2,1007,862.3z"/>
	<path d="M428.7,389.5c4.6,4.5,12.1,12,16.7,16.5l58.3,57.7c4.6,4.5,12.1,4.5,16.7,0l58.3-57.7c4.6-4.5,12.1-12,16.7-16.5l58.3-57.7
		c4.6-4.5,3.1-8.3-3.4-8.3H582c-6.5,0-12.3-5.3-13-11.7l-22.4-204.1c-0.7-6.4-6.6-11.7-13-11.7H484c-6.5,0-12.2,5.3-12.7,11.7
		l-16.8,204c-0.5,6.4-6.2,11.7-12.7,11.7h-68c-6.5,0-8,3.7-3.4,8.3L428.7,389.5z"/>
</g>
</svg>
