<?xml version="1.0" encoding="utf-8"?>
<!-- Generator: Adobe Illustrator 22.1.0, SVG Export Plug-In . SVG Version: 6.00 Build 0)  -->
<svg version="1.1" id="ok" xmlns="http://www.w3.org/2000/svg" xmlns:xlink="http://www.w3.org/1999/xlink" x="0px" y="0px"
	 viewBox="0 0 1024 1024" style="enable-background:new 0 0 1024 1024;" xml:space="preserve">
<g>
	<path d="M70.8,288.7C30,358.4,12.9,433.8,12,543.7c-0.8,41.5,14.6,109.6,47.4,172.7c43.8,84.3,109.8,144.3,208.3,147.6
		c90.5,3,156.9-46,205.6-120.8c85.8-131.8,84.6-337.8-3.4-467.8C361.9,115.9,168.3,122.6,70.8,288.7z M319.2,699.6
		c-36.8,18.5-73.3,13.6-107-7.7c-110.4-69.7-114-279.7-6.6-354.5c48.3-33.7,104.5-30.5,149.5,10c49.2,44.3,65,102.6,67.8,171.2
		C417.2,591.9,395.8,661.2,319.2,699.6z"/>
	<path d="M1009.3,831.1c-6.1-8.4-12-16.9-17.6-25.6c-10.8-16.8-20.7-34.1-30.4-51.6c-16.5-29.6-33-59.3-50.3-88.5
		c-28.1-47.8-56.3-95.6-85-143.1c-13.3-22-11.9-38.7,1.4-59.8c28.2-44.7,55.9-89.6,83.1-134.8c17.4-28.9,36.7-55.9,54.8-84.3
		c9.1-14.2,37.7-56.1,12.7-68.9c-15.3-7.9-33.1-4.2-50.1-4.6c-17.4-0.4-38.1-1.4-53.5,8c-14.1,8.6-22.4,32-30.7,45.6
		c-11.8,19.5-23.3,39.2-35.3,58.6c-11.3,18.4-22.8,36.8-34.3,55.2c-5.7,9.2-11.5,18.4-17.2,27.6c-3.8,6.1-50.2,87.6-52.6,87.2
		c-2-0.4-0.9-42.8-0.9-52.7c-0.1-54.4,0.3-108.9,0.4-163.3c0.1-66.2,0-66.2-68-65.9c-51.8,0.2-53.2,1.5-53.2,53.8
		c0,186.3,0,372.6,0,558.9c0,72.6,0,71.3,75.7,72.2c33.9,0.4,46.7-11.8,46-44.6c-1.5-71.3-0.9-142.7-0.8-214.1
		c0-11.2-0.6-24.9,1-45.9c11.5,14.7,17,25.4,20.9,32.2c16.3,28.9,33.2,57.5,49.9,86.2c34.1,58.5,62.6,120.6,104.9,174.1
		c2.1,2.7,5.1,5,8.5,5.7c11.6,2.4,24.5,2,36.2,1.8c14.8-0.3,22.4,0.4,37.2,0.1c13.7-0.3,28.4,0.1,41.7-3.4
		C1012.6,844.8,1014.2,837.9,1009.3,831.1z"/>
</g>
</svg>
