<?xml version="1.0" encoding="utf-8"?>
<!-- Generator: Adobe Illustrator 22.1.0, SVG Export Plug-In . SVG Version: 6.00 Build 0)  -->
<svg version="1.1" id="other-shield" xmlns="http://www.w3.org/2000/svg" xmlns:xlink="http://www.w3.org/1999/xlink" x="0px"
	 y="0px" viewBox="0 0 1024 1024" style="enable-background:new 0 0 1024 1024;" xml:space="preserve">
<g>
	<path d="M900,106.5c0.1-14.7-4.6-21.7-19.1-24c-24-3.9-47.8-8.8-71.7-13.4c-82.3-16-165-30.2-246.5-49.2
		c-24.7-5.8-48.5-9.1-73.1-7.5c-12,0.8-23.5,6.9-35.5,9.3C352,41.8,249.8,61.9,147.5,81.4c-16.6,3.2-23.2,9.7-23.1,27.7
		c0.7,165.4,1.8,330.9-0.4,496.3c-0.6,47.1,13.7,87.6,35.5,126.6c42.4,75.9,104.8,133.5,176.2,181c51.6,34.4,106.1,64.5,159.4,96.3
		c2.7,1.6,6.7,0.7,9.9,1.6c17.8,5.3,27.5-9.7,40.5-16.2c67.2-33.2,131.1-71.5,189.7-118.6c66.1-53.1,116.8-117.6,153-194.5
		c8.7-18.5,11.5-35.9,11.5-55c0-83.3,0-166.6,0-249.9c0,0,0,0,0.1,0C899.7,286.7,899.4,196.6,900,106.5z M443.1,150.3
		c22.6,0,45.2,0,67.8,0c0,0,0,0,0-0.1c24.3,0,48.6-0.2,72.9,0.1c16.6,0.2,19.8,5.6,14.8,21.2c-4.7,14.5-8.6,29.2-12.3,43.9
		c-3.2,12.8-11,19.2-24.1,19.2c-35,0-70.1,0-105.1-0.1c-11.8,0-18.9-5.5-21.8-17.2c-3.6-14.2-7.9-28.3-11.9-42.4
		C417.6,154.2,420.8,150.3,443.1,150.3z M715.8,716.3c-18.9,45.4-50.1,80.1-88.4,109.4c-33.7,25.8-74.4,38.7-122.5,38.6
		c-99.1-0.5-169-54.4-205.3-146.9c-6.1-15.7-11-32-15.1-48.3c-25.9-104.9,42-215.6,141-253.4c11.2-4.3,16.7-11.3,16.9-22.6
		c0.3-17,0.3-34,0.1-50.9c-0.2-13.2-7.2-19-20.5-19.2c-20.3-0.3-33-12.6-32.7-30.3c0.3-16.9,15-29.3,34.7-29.3
		c57.2-0.1,114.4,0,171.6-0.2c19.8,0,32.6,10.7,33.4,28.3c0.9,19.5-10.1,31-30.8,32.1c-17,0.9-21.8,6.2-21.4,23.2
		c0.3,14.1,0.6,28.3,0.4,42.4c-0.2,12.8,4.6,21,16.8,26.4c58.6,25.5,102.4,66.4,125,127C740.7,600.6,739.8,658.5,715.8,716.3z"/>
	<path d="M663.6,567.7c-52.1,0-104.1,0-156.2,0c0,0,0,0,0,0.1c-53.8,0-107.5,0.1-161.3-0.1c-14.4,0-26.6,2.8-27.8,20
		c-3.4,47.9-7.8,94.7,19.6,139.8c40,65.7,90.4,109.4,172.2,103.2c18-1.4,37.1,1,53.7-4.5c37.1-12.4,67.5-35.7,92.2-66.7
		c38.9-48.8,43.7-105.1,38.4-163.9C692.2,571.5,688,567.7,663.6,567.7z M402,722.6c-22.7,0.3-42.5-18.6-43.2-41.2
		c-0.7-23.2,19.1-44.5,41.6-44.8c23-0.3,43,19.8,43,43.3C443.5,702.7,424.5,722.3,402,722.6z M475.1,785
		c-12.2,0.3-25.5-12.1-26.2-24.4c-0.8-13.9,11.8-27.9,25.8-28.7c13.7-0.8,26.7,11.1,27.1,24.8C502.3,769.8,488.1,784.8,475.1,785z"
		/>
</g>
</svg>
