<?xml version="1.0" encoding="utf-8"?>
<!-- Generator: Adobe Illustrator 22.1.0, SVG Export Plug-In . SVG Version: 6.00 Build 0)  -->
<svg version="1.1" id="pickaxe-coin" xmlns="http://www.w3.org/2000/svg" xmlns:xlink="http://www.w3.org/1999/xlink" x="0px"
	 y="0px" viewBox="0 0 1024 1024" style="enable-background:new 0 0 1024 1024;" xml:space="preserve">
<g>
	<ellipse cx="742.4" cy="821.6" rx="96.3" ry="186.3"/>
	<path d="M626.9,821.6c0-95.9,37.5-174.8,85.6-185.1c-3.5-0.7-7.1-1.2-10.7-1.2c-0.5,0-41.2,0-41.8,0c-53.2,0-96.3,83.4-96.3,186.3
		s43.1,186.3,96.3,186.3c0.5,0,40.1,0,40.1-0.1c0,0,1.1,0.1,1.6,0.1c3.6,0,7.2-0.4,10.7-1.2C664.3,996.4,626.9,917.5,626.9,821.6z"
		/>
	<path d="M787.6,323.4c13.2-12.6,16.2-26.2,2-40.1c-16.2-15.9-32.5-31.8-49.3-47.1c-17.3-15.9-23.4-16-39.6,1.4
		c-34.3,36.7-68,74-101.5,111.4c-63.2,70.7-124,143.8-189.8,212c-73.1,75.8-149.6,148.6-226.9,220.2c-49.2,45.7-102.5,87-154,130.3
		c-16.6,14-21,24.2-7.8,40.6c16.7,20.7,38.1,37.7,57.8,56c2.4,2.2,6.9,2.2,13.1,4c4.7-3.2,11.7-6.1,16.3-11.3
		c34.3-38.7,66.7-79.2,102.4-116.5c87.5-91.4,174.9-183,265.3-271.5c71.4-69.8,147.3-135,220.8-202.6
		C727.3,381.7,757.3,352.4,787.6,323.4z"/>
	<path d="M395.7,110.3c45.4,34.8,89.5,71.4,132.9,108.8c24.7,21.3,47.1,45.4,70.1,68.7c8.6,8.7,15.9,10.5,25,1
		c11.1-11.6,22.7-22.7,34-34.2c8.4-8.5,10-16.8-1.2-24.5c-21.8-14.9-43.4-30.2-65.3-44.9c-34.7-23.3-69.6-46.4-104.5-69.5
		c-9.2-6.1-18.4-12.5-28.2-17.7c-42.5-22.4-84.8-45.2-127.9-66.2c-18-8.8-38-13.4-57.1-19.9c-1.1,2.8-2.2,5.6-3.4,8.4
		c4.4,4,8.5,8.6,13.3,12C320.9,58.3,359.6,82.7,395.7,110.3z"/>
	<path d="M1009.2,731.8c-31.5-61.3-62.9-122.7-95.7-183.4c-15.2-28.1-32.7-55-50.3-81.8C840.6,432,817,398,793.6,363.9
		c-6.6-9.6-13.2-11.2-21.9-0.7c-9.7,11.8-20.5,23.1-32.4,32.7c-13.5,10.8-9.4,18.6,0.6,28.5c26,25.5,52.2,50.9,76.9,77.6
		c25.5,27.6,50.6,55.7,73.3,85.6c26.8,35.2,51,72.4,76.1,108.9c12.4,18,24.3,36.3,36.4,54.5c2.3-0.9,4.6-1.7,6.9-2.6
		C1009.5,742.8,1011.5,736.2,1009.2,731.8z"/>
</g>
</svg>
