<?xml version="1.0" encoding="utf-8"?>
<!-- Generator: Adobe Illustrator 22.1.0, SVG Export Plug-In . SVG Version: 6.00 Build 0)  -->
<svg version="1.1" id="pickaxe" xmlns="http://www.w3.org/2000/svg" xmlns:xlink="http://www.w3.org/1999/xlink" x="0px" y="0px"
	 viewBox="0 0 1024 1024" style="enable-background:new 0 0 1024 1024;" xml:space="preserve">
<g>
	<path d="M91.6,1012c-6.2-1.8-10.7-1.7-13.1-4c-19.7-18.2-41.1-35.2-57.8-56c-13.1-16.3-8.8-26.6,7.8-40.6
		c51.5-43.3,104.8-84.6,154-130.3c77.3-71.7,153.7-144.4,226.9-220.2c65.8-68.2,126.6-141.3,189.8-212
		c33.5-37.4,67.2-74.7,101.5-111.4c16.3-17.4,22.3-17.3,39.6-1.4c16.8,15.3,33.1,31.2,49.3,47.1c14.2,13.9,11.1,27.5-2,40.1
		c-30.3,29-60.3,58.3-91.2,86.7c-73.5,67.6-149.5,132.8-220.8,202.6c-90.4,88.5-177.8,180.1-265.3,271.5
		c-35.7,37.3-68.1,77.8-102.4,116.5C103.3,1005.9,96.2,1008.8,91.6,1012z"/>
	<path d="M273.5,12c19.1,6.5,39.1,11.1,57.1,19.9c43.2,21,85.5,43.8,127.9,66.2c9.8,5.2,18.9,11.6,28.2,17.7
		c34.9,23.1,69.8,46.1,104.5,69.5c21.9,14.7,43.5,29.9,65.3,44.9c11.2,7.7,9.6,16,1.2,24.5c-11.3,11.5-22.9,22.5-34,34.2
		c-9.1,9.5-16.4,7.7-25-1c-23-23.3-45.4-47.4-70.1-68.7c-43.4-37.4-87.4-74-132.9-108.8c-36.1-27.7-74.8-52-112.3-78
		c-4.9-3.4-8.9-8-13.3-12C271.2,17.6,272.4,14.8,273.5,12z"/>
	<path d="M1002.6,751c-12.1-18.2-24-36.5-36.4-54.5c-25.1-36.5-49.3-73.7-76.1-108.9c-22.7-29.8-47.8-58-73.3-85.6
		c-24.7-26.8-50.9-52.1-76.9-77.6c-10-9.8-14.1-17.6-0.6-28.5c11.9-9.6,22.7-20.9,32.4-32.7c8.7-10.6,15.3-8.9,21.9,0.7
		c23.4,34.1,47,68.1,69.6,102.7c17.5,26.8,35.1,53.7,50.3,81.8c32.8,60.6,64.3,122,95.7,183.4c2.3,4.4,0.3,11,0.3,16.6
		C1007.2,749.3,1004.9,750.1,1002.6,751z"/>
</g>
</svg>
