<?xml version="1.0" encoding="utf-8"?>
<!-- Generator: Adobe Illustrator 22.1.0, SVG Export Plug-In . SVG Version: 6.00 Build 0)  -->
<svg version="1.1" id="practice" xmlns="http://www.w3.org/2000/svg" xmlns:xlink="http://www.w3.org/1999/xlink" x="0px" y="0px"
	 viewBox="0 0 1024 1024" style="enable-background:new 0 0 1024 1024;" xml:space="preserve">
<g>
	<path d="M367.5,328.5c0,0,22.7,16.3,22.7,16.3c1.6,160.9,123.5,139.7,123.5,139.7c115.4,1.6,117-144.6,117-144.6l19.5-9.7
		c34.1-103.9,25.9-261.1-91.4-308.1c-16.4-6.6-34.3-10-52-8.8c-1.1,0.1-19.1,3.3-19.1,3.3c0,0,17.9,29.2,17.9,29.2
		c-39.7-2.8-88.8,2.4-115.1,36.4c-31.6,40.8-35.5,112.2-34.1,161.5C356.8,256.9,354.7,319.4,367.5,328.5z"/>
	<path d="M785.1,592.4c-110.5-22.7-160.9-60.1-160.9-60.1c-1.6-22.7-14.6-35.7-14.6-35.7C569,478.6,530,598.9,530,598.9
		s1.6,81.2,0,102.4c-1.6,21.1-18,17.9-18,17.9s-16.4,3.3-18-17.9c-1.6-21.1,0-102.4,0-102.4s-39-120.2-79.6-102.4
		c0,0-13,13-14.6,35.7c0,0-50.4,37.4-160.9,60.1c0,0-144.6,6.5-125.1,186.9h35.7c0,0,135.1,243.7,362.5,232.4
		c227.4,11.4,362.5-232.4,362.5-232.4h35.7C929.7,598.9,785.1,592.4,785.1,592.4z"/>
</g>
</svg>
