<?xml version="1.0" encoding="utf-8"?>
<!-- Generator: Adobe Illustrator 22.1.0, SVG Export Plug-In . SVG Version: 6.00 Build 0)  -->
<svg version="1.1" id="profile" xmlns="http://www.w3.org/2000/svg" xmlns:xlink="http://www.w3.org/1999/xlink" x="0px" y="0px"
	 viewBox="0 0 1024 1024" style="enable-background:new 0 0 1024 1024;" xml:space="preserve">
<g>
	<path d="M555,553.4c-3-2.2-4.3-3.5-5.9-4.3c-62.4-35.3-103.3-14-103.6,58c-0.2,32-11.4,54.5-30.8,77.5
		c-49.2,58.3-96.6,118.1-144.8,177.3c-3,3.6-6.1,7.1-11.9,13.9c0-8.4-0.3-13.3,0-18c4.2-60.1-10.6-115.4-39.8-167.8
		C95.1,469.6,236.8,194,488.1,167c103.8-11.1,195.1,22.1,272.7,91.8c9.7,8.7,18.4,18.9,25.5,29.8c22.6,35,45,70.2,65.8,106.3
		c31.8,55.2,62.1,111.1,91,169.1c-3.4-2.3-6.9-4.4-10.1-7c-38-31.6-76.4-62.9-113.8-95.3c-10.1-8.7-18.9-9.8-30.5-5.3
		c-43.6,16.6-74.5,47.9-101.8,86.6c42.5,20.6,85.1,22,130.1,10.1c57.8,152.5,115.4,304.2,174,458.9c-8-2.5-13.5-3.8-18.7-5.8
		C865.6,963.9,759.2,920.8,652,879.5c-78-30.1-113-88.8-118.4-168.8C530,657.1,539,605.1,555,553.4z"/>
	<path d="M276.4,218.6c-27.5-29.1-56.5-59.7-85.3-90.3C213.4,98.9,293.9,51,344.2,37.6c11.8,40.3,23.5,80.7,35.2,120.7
		C345.3,178.2,311.8,197.9,276.4,218.6z"/>
	<path d="M563.3,18.7c-7.7,38.8-15,76-22,111.1c-41.6,4.9-81.5,9.5-123.9,14.5c-10.9-37.3-22.4-77-34.6-118.7
		C442.7,10.4,501.6,7.7,563.3,18.7z"/>
	<path d="M35.4,519.1c-6.9-63.5,0.7-122.8,18.7-183.7c39.1,14.6,76.6,28.6,112.9,42.1c-9,42.5-17.8,83.5-27.1,127.4
		C107.5,509.3,72.1,514.1,35.4,519.1z"/>
	<path d="M245.8,245.5c-21.6,31.8-42.2,62.1-63.8,93.9c-36.3-13.6-74.6-27.9-113.6-42.5c21.8-53.6,52.4-99.8,91.9-142.2
		C189.6,185.9,218.5,216.5,245.8,245.5z"/>
	<path d="M733.8,83c-16.6,29.4-32,56.9-47.4,84.2c-34.9-10.8-69.2-21.4-104.8-32.4c6.9-35,13.9-70.5,21.3-107.6
		C650,37.9,692,57.4,733.8,83z"/>
	<path d="M138.9,546.4c7.6,38.6,14.7,74.5,22.3,112.6c-21.3,13.1-44.9,27.6-73.3,45c-17.4-48.6-33.9-94.6-51.4-143.5
		C74.3,555.3,107,550.8,138.9,546.4z"/>
</g>
</svg>
