<?xml version="1.0" encoding="utf-8"?>
<!-- Generator: Adobe Illustrator 22.1.0, SVG Export Plug-In . SVG Version: 6.00 Build 0)  -->
<svg version="1.1" id="pve" xmlns="http://www.w3.org/2000/svg" xmlns:xlink="http://www.w3.org/1999/xlink" x="0px" y="0px"
	 viewBox="0 0 1024 1024" style="enable-background:new 0 0 1024 1024;" xml:space="preserve">
<g>
	<path d="M622.8,464.3c0,0,16.3,11.6,16.3,11.6c1.2,115,88.3,99.9,88.3,99.9c82.5,1.2,83.6-103.4,83.6-103.4l13.9-7
		c24.4-74.3,18.5-186.6-65.3-220.2c-11.7-4.7-24.5-7.2-37.2-6.3c-0.8,0.1-13.7,2.3-13.7,2.3c0,0,12.8,20.9,12.8,20.9
		c-28.4-2-63.4,1.7-82.3,26c-22.6,29.1-25.3,80.2-24.4,115.4C615.1,413.1,613.6,457.8,622.8,464.3z"/>
	<path d="M921.2,652.9c-79-16.3-115-43-115-43c-1.2-16.3-10.5-25.5-10.5-25.5c-29-12.8-56.9,73.2-56.9,73.2s1.2,58.1,0,73.2
		c-1.2,15.1-12.9,12.8-12.9,12.8s-11.7,2.3-12.9-12.8s0-73.2,0-73.2s-27.9-85.9-56.9-73.2c0,0-9.3,9.3-10.5,25.5c0,0-36,26.7-115,43
		c0,0-103.4,4.6-89.4,133.6H467c0,0,96.6,174.2,259.1,166.1c162.5,8.1,259.1-166.1,259.1-166.1h25.5
		C1024.6,657.5,921.2,652.9,921.2,652.9z"/>
	<path d="M461,546.6H295.4V480c89.8,1.6,75.9-68.1,75.9-68.1H236.5H101.8c0,0-13.9,69.7,75.9,68.1v66.6H12V576l86.7,168.8h137.8
		h137.8L461,576V546.6z"/>
	<path d="M98.7,391.7h137.8h137.8v-49.5h29.4V233.8h-31c1.5-69.7-55.7-86.7-55.7-86.7h-60.4v-18c7.5-6,12.4-15,12.4-25.4
		c0-18-14.6-32.5-32.5-32.5c-18,0-32.5,14.6-32.5,32.5c0,10.3,4.9,19.4,12.4,25.4v18H156c0,0-57.3,17-55.7,86.7h-31v108.4h29.4
		V391.7z M300,233.8c24.8,0,44.9,20.1,44.9,44.9s-20.1,44.9-44.9,44.9s-44.9-20.1-44.9-44.9S275.2,233.8,300,233.8z M171.5,233.8
		c24.8,0,44.9,20.1,44.9,44.9s-20.1,44.9-44.9,44.9c-24.8,0-44.9-20.1-44.9-44.9S146.7,233.8,171.5,233.8z"/>
</g>
</svg>
