<?xml version="1.0" encoding="utf-8"?>
<!-- Generator: Adobe Illustrator 22.1.0, SVG Export Plug-In . SVG Version: 6.00 Build 0)  -->
<svg version="1.1" id="question" xmlns="http://www.w3.org/2000/svg" xmlns:xlink="http://www.w3.org/1999/xlink" x="0px" y="0px"
	 viewBox="0 0 1024 1024" style="enable-background:new 0 0 1024 1024;" xml:space="preserve">
<g>
	<path d="M502.3,12c-92.5,0.1-185.2,32.7-255.8,92.8c-26.3,22.4-51.3,52.9-48,87.4c2.6,26.5,21.8,48.7,44.2,63.1
		c17.3,11.2,38.1,18.9,58.5,15.4c34.1-5.8,55.6-39.7,86-56.1c21.7-11.7,47.2-14.1,71.9-14.1c26.3,0,53,2.7,77.2,12.9
		c24.2,10.2,46.9,28.6,54.9,54.4c12.1,39.2-12.2,71.6-38.5,98c-33.4,33.5-72.2,61.1-105.3,94.9c-24.6,25.1-54.6,51.9-65.5,86.5
		c-5.9,18.8-13.3,51.1-8.4,70.5c6.8,27.2,50,16.3,70.5,16.2c36.2-0.1,72.5-0.2,108.7-0.3c25.4-0.1,39.7,7.4,46.4-16.1
		c3.8-13.4,0.3-29,3.8-42.7c5.8-22.6,21.4-42.9,37.3-59.4c40.4-42,89-75.1,126-120.4c30.7-37.6,53-83,58.4-131.2
		C843.6,92.5,643.3,11.9,502.3,12z"/>
	<circle cx="473.5" cy="874.1" r="137.9"/>
</g>
</svg>
