<?xml version="1.0" encoding="utf-8"?>
<!-- Generator: Adobe Illustrator 22.1.0, SVG Export Plug-In . SVG Version: 6.00 Build 0)  -->
<svg version="1.1" id="question-mark" xmlns="http://www.w3.org/2000/svg" xmlns:xlink="http://www.w3.org/1999/xlink" x="0px"
	 y="0px" viewBox="0 0 1024 1024" style="enable-background:new 0 0 1024 1024;" xml:space="preserve">
<g>
	<path d="M744.5,90.7c-170.7-151.2-480.1-75.8-536,150.7c-2,7.9-3.6,15.9-4.8,24c-1,6.6-4.2,18.1,0.5,23.8c0.1,0.1,0.2,0.2,0.3,0.3
		c5,5.3,19.2,2.6,26.1,2.6c10.3,0,20.5,0,30.8,0c23,0,45.9,0,68.9,0c10.4,0,20.9,0.3,31.3,0c9.5-0.2,17.3-2.5,20.4-12
		c2.8-8.8,5.8-17.4,8.7-26.2c24.6-74.5,115.7-117.2,187-80.5c66.8,34.4,91.2,129.3,40.9,187.9c-38.6,45-80.1,87.7-122.8,128.8
		c-47.5,45.7-60,98-66.4,165.3c-1.2,13,0.2,24.7-0.3,37.1c-0.9,21.9,3,26.6,24.6,26.8c37.1,0.2,74.2,0.1,111.4,0.1
		c28.6,0,31-2.2,29.4-30.8c-2.7-48.6,4.4-93.8,42.2-129.3c21.6-20.3,42.4-41.5,64.1-61.8c31.2-29.3,62.1-60.3,84.5-97
		C845.7,302,832,168.3,744.5,90.7z"/>
	<ellipse transform="matrix(0.9871 -0.1602 0.1602 0.9871 -138.6561 93.7285)" cx="512" cy="906.9" rx="105.1" ry="105.1"/>
</g>
</svg>
