<?xml version="1.0" encoding="utf-8"?>
<!-- Generator: Adobe Illustrator 22.1.0, SVG Export Plug-In . SVG Version: 6.00 Build 0)  -->
<svg version="1.1" id="question-outline" xmlns="http://www.w3.org/2000/svg" xmlns:xlink="http://www.w3.org/1999/xlink" x="0px"
	 y="0px" viewBox="0 0 1024 1024" style="enable-background:new 0 0 1024 1024;" xml:space="preserve">
<path d="M799.9,131.3C721,43.2,591.5,12,504.4,12c-0.1,0-0.2,0-0.2,0c-99.7,0.1-195.5,35-269.9,98.3c-68,58-77.7,117.8-73.8,157.7
	c4.9,50.2,34.7,96.4,81.8,126.8c38.2,24.6,79.5,34,119.6,27.2c1.1-0.2,2.2-0.4,3.2-0.6c-20.3,21.5-42.7,49.3-54.7,87.4
	c-9.3,29.3-18.3,72.6-8.4,112.2c2.6,10.4,7.9,25.4,18.1,40.3c-31.9,37.2-51.2,85.4-51.2,138.1c0,117.2,95.3,212.5,212.5,212.5
	S694,916.7,694,799.5c0-46.9-15.3-90.2-41.1-125.4c16.8-18.9,24.4-39.8,27.3-50.1c3.9-13.6,5-25.8,5.3-35.2c0.7-0.8,1.5-1.6,2.4-2.6
	c10.3-10.7,22.8-21.6,36-33.1c22-19.3,47-41.1,69.6-68.8c38.9-47.6,62.7-102.2,68.9-157.9C870.6,253.6,849,186.2,799.9,131.3z
	 M481.4,909c-60.5,0-109.5-49-109.5-109.5c0-60.5,49-109.5,109.5-109.5s109.5,49,109.5,109.5C590.9,859.9,541.9,909,481.4,909z
	 M760.1,314.9c-4.3,38.3-22,74.3-46.4,104.2c-29.4,36-68,62.3-100,95.6c-12.6,13.1-25,29.2-29.6,47.1c-2.8,10.9,0,23.2-3,33.9
	c-5.3,18.6-16.6,12.7-36.8,12.8c-28.8,0.1-57.5,0.2-86.3,0.3c-16.3,0-50.6,8.7-56-12.9c-3.9-15.4,1.9-41.1,6.7-56
	c8.7-27.5,32.5-48.7,52-68.6c26.3-26.8,57.1-48.7,83.6-75.3c20.8-20.9,40.2-46.7,30.5-77.8c-6.3-20.5-24.4-35-43.6-43.2
	c-19.2-8.1-40.4-10.2-61.3-10.2c-19.6,0-39.9,1.8-57.1,11.2c-24.2,13-41.2,39.9-68.3,44.5c-16.1,2.8-32.6-3.4-46.4-12.2
	c-17.7-11.4-33-29.1-35.1-50.1c-2.6-27.3,17.2-51.6,38.1-69.4c56-47.7,129.6-73.7,203.1-73.7C616.3,115,775.3,179,760.1,314.9z"/>
</svg>
