<?xml version="1.0" encoding="utf-8"?>
<!-- Generator: Adobe Illustrator 22.1.0, SVG Export Plug-In . SVG Version: 6.00 Build 0)  -->
<svg version="1.1" id="scroll-attention" xmlns="http://www.w3.org/2000/svg" xmlns:xlink="http://www.w3.org/1999/xlink" x="0px"
	 y="0px" viewBox="0 0 1024 1024" style="enable-background:new 0 0 1024 1024;" xml:space="preserve">
<style type="text/css">
	.st0{fill-rule:evenodd;clip-rule:evenodd;}
</style>
<g id="Shape_13">
	<g>
		<path class="st0" d="M102.2,120.3l-13-18.7c-114.7,9.6-78.8,168.5-37,248.4c34-12.3,46.8-24.5,98.6-30.3
			C159.9,252.8,149.4,188.2,102.2,120.3z M944.9,691.6c-13.4,10.6-30.7,23.3-50.8,36.8l0,0c-65,43.9-165.7,81.8-247.3,100.9
			c-85.1,19.9-201.4,13-319.1,26.4c57.2,27.7,48.8,156.3,0,156.3c32.5,0,63.9-9.7,87.8-29.2c47.9-38.9,152.5-98.7,260.2-113.7
			c107.7-15,242.2-20.9,302.1-12C1036.5,861.2,1018.6,714.6,944.9,691.6z M208.1,824c40.3-4.6,116.2-11.7,116.2-11.7
			c50.5-5.8,99.7-7.8,147.4-9.8c62.6-2.6,121.7-5.1,168.3-16c87.7-20.5,180.8-58.4,237.4-96.5l0.6-0.4
			c-40.8-99.3-63.6-215.9-19.4-339.4C907.2,214.4,848,119.7,725.4,12c-62.3,85.2-149.2,113.4-289.2,113.4
			c-79.7,0-176.5-9.2-295.9-22.2c95.7,137.6,53.8,264.3,0,397.9c-58.3,144.6,13.2,427.3,92.7,481.7c15.6,10.7,19.2,18.4,37,23.2
			c32.9-8.3,59.1-28.6,53.7-72.3C320.8,909.2,299.7,838.2,208.1,824z M440.4,210.6c34.8-6.1,69.6-12.3,104.2-18.5
			c7.4-1.4,18.8,4.4,23.3,12.1c16.8,28.7,26.1,57.6,30.2,86.4c-2.3,74.3-37.3,148-63.9,221.2c-2,6.2-10.1,12.9-17,13.3
			c-10.8,0.7-21.6,1.4-32.4,2c-6.9,0.4-12.9-5.2-12.5-11.2c0.2-69.6,7.8-137.9-12.4-204.9c-3-28.1-10.7-56-25.6-84
			C430.3,219.6,432.9,211.9,440.4,210.6z M492.7,596.7c39.8-1.8,69.6,31.4,78.6,72.6c8.2,40.4-1.2,74.4-37.9,73.9
			c-36.1-0.5-90.6-33.4-101.5-71.7C420.2,632.6,454.3,598.4,492.7,596.7z"/>
	</g>
</g>
</svg>
