<?xml version="1.0" encoding="utf-8"?>
<!-- Generator: Adobe Illustrator 22.1.0, SVG Export Plug-In . SVG Version: 6.00 Build 0)  -->
<svg version="1.1" id="swords-alt" xmlns="http://www.w3.org/2000/svg" xmlns:xlink="http://www.w3.org/1999/xlink" x="0px" y="0px"
	 viewBox="0 0 1024 1024" style="enable-background:new 0 0 1024 1024;" xml:space="preserve">
<g>
	<path d="M418.3,304.2c-12.1-11.2-15.9-22.6-11.7-38.3c12.5-45.9,24.7-91.9,36.2-138.1c1.6-6.3-1.9-13.8-3.1-20.8
		c-6.3,1.6-13.9,1.5-18.7,5.1c-8.2,6.2-14.7,14.7-22,22.1c-26,26.4-51.7,53-78.2,78.9c-4.2,4.1-131.5,130.9-137.1,136.1
		c-28.2,26.6-55.5,54-83.2,81.1c-7.4,7.2-15.6,13.8-22,21.8c-3.5,4.4-3.7,11.2-5.5,17c5.6,1.2,11.8,4.4,16.8,3.2
		c47.6-11.4,95.1-23,142.3-35.9c21.6-5.9,39.2-6.3,56,12.6c22.2,24.9,46.9,47.6,71.6,70.1c1.4,1.2,2.5,2.4,3.4,3.5l139.1-136.5
		c-2.1-1.1-4.3-2.8-6.5-5.2C470.5,354.9,444.9,329,418.3,304.2z"/>
	<path d="M845.5,329.3c0.2-0.5,0.5-1,0.8-1.3c52-53.5,104.7-106.3,157.5-159c9.5-9.5,11.5-44.2,1.9-53.6
		c-21-20.6-42.1-41.1-63.2-61.6c-7.8-7.5-35.8-8.5-43.1-1.2C846.7,105.2,794,157.8,741.5,210.7c-3.5,3.5-6.2,6.2-8.5,8.2
		L845.5,329.3z"/>
	<path d="M175.8,316.1c1.8,1.8,3.2,3.4,4.4,5L292,211.4c-0.5-0.4-0.9-0.8-1.4-1.3C236.7,155.4,182.2,101.3,128,47
		c-7.9-7.9-35-9.9-42.7-2.4C62.8,66.2,40.6,88,18.5,109.9c-8.4,8.3-8.7,39.6-0.6,47.8C70.5,210.5,122.8,263.6,175.8,316.1z"/>
	<path d="M952.3,831.2C859.5,742,768.9,650.6,676.7,560.8c-2.9-2.9-5-5.5-6.4-7.9L531.7,689c1.2,0.9,2.5,1.9,3.8,3.3
		c41.1,42.1,82.5,83.8,124.1,125.5c51,51,102.7,101.4,152.9,153.1c9.5,9.8,18,13.5,30.9,13.3c38.8-0.7,77.5-0.2,116.3-0.3
		c6.1,0,12.3-0.5,17.6-0.8c0-31.2-1.1-60.6,0.3-89.9C979,867.8,971.5,849.6,952.3,831.2z"/>
	<path d="M669,524.9c24-23.2,49.2-45.6,71.3-70.5c15.9-17.8,32.7-15.7,51.8-10.7c47.3,12.4,94.7,24.7,142.2,36.5
		c5.3,1.3,11.6-1.2,17.4-1.9c-1.5-6.2-2.3-12.7-4.7-18.5c-1.7-4-5.5-7.4-8.8-10.6c-32.9-31.6-66.2-62.9-98.5-95.1
		c-1.5-1.5-128.7-126.7-136.9-135c-30.5-30.8-60.7-62-91.2-92.8c-4-4-8.5-8-13.5-10.3c-3.7-1.7-10.4-2.5-12.6-0.4
		c-3.1,2.9-5.5,9.5-4.5,13.6c4.6,20,10.7,39.6,15.7,59.5c7.9,31.8,16,63.6,22.5,95.7c1.3,6.4-2.4,16.1-7.2,21
		c-27.2,28.3-55.5,55.7-83.4,83.4c-3.4,3.4-156.4,155.5-161.1,160.1C270.7,644,174.1,739.3,77.7,834.7c-5.9,5.8-13.4,13.8-13.7,21
		c-1.3,39.2-0.6,78.5-0.6,120.4c41.6,0,82-0.6,122.3,0.3c19.7,0.4,33.8-3.9,49.1-19.5c89.8-91.8,181.8-181.5,272.9-272
		C510.7,681.8,664.5,529.2,669,524.9z"/>
</g>
</svg>
