<?xml version="1.0" encoding="utf-8"?>
<!-- Generator: Adobe Illustrator 22.1.0, SVG Export Plug-In . SVG Version: 6.00 Build 0)  -->
<svg version="1.1" id="target" xmlns="http://www.w3.org/2000/svg" xmlns:xlink="http://www.w3.org/1999/xlink" x="0px" y="0px"
	 viewBox="0 0 1024 1024" style="enable-background:new 0 0 1024 1024;" xml:space="preserve">
<path d="M1012,458.2h-92.3c-24.1-183.8-170.1-329.8-353.9-353.9V12H458.2v92.3c-183.8,24.1-329.8,170.1-353.9,353.9H12v107.5h92.3
	c24.1,183.8,170.1,329.8,353.9,353.9v92.3h107.5v-92.3c183.8-24.1,329.8-170.1,353.9-353.9h92.3V458.2z M565.8,805.4v-202H458.2v202
	c-121.5-22.2-217.5-118.2-239.7-239.7h202V458.2h-202c22.2-121.5,118.2-217.5,239.7-239.7v202h107.5v-202
	c121.5,22.2,217.5,118.2,239.7,239.7h-202v107.5h202C783.2,687.3,687.3,783.2,565.8,805.4z"/>
</svg>
