<?xml version="1.0" encoding="utf-8"?>
<!-- Generator: Adobe Illustrator 22.1.0, SVG Export Plug-In . SVG Version: 6.00 Build 0)  -->
<svg version="1.1" id="thumbs-up-2" xmlns="http://www.w3.org/2000/svg" xmlns:xlink="http://www.w3.org/1999/xlink" x="0px"
	 y="0px" viewBox="0 0 1024 1024" style="enable-background:new 0 0 1024 1024;" xml:space="preserve">
<g>
	<path d="M997.6,662c-4.6-7.3-0.3-22.4,3.4-32.6c24.9-67.6-9.7-122-82.7-128.4c-13.4-1.2-27-1.5-42.4-2.3
		c8.1-40.4,16.9-73.2,20.9-106.6c4.1-34.7,6.1-70.1,4.5-105c-2.1-45.9-18.8-88.3-54.9-117.5c-16.2-13.1-44.4-24.5-61.8-19.2
		c-14.8,4.5-26.4,32.8-31.9,52.6c-10.2,37.1-15.2,75.6-22.1,113.6c-11.3,62.2-49.2,103.1-105.9,125.8
		c-48.8,19.6-99.1,35.5-149.1,51.7c-83.2,26.8-111,62.8-112,151.4c-0.8,67.9,0,135.8,0.4,203.8c0.3,64.3,28.7,97.1,92.5,112.4
		c111.8,26.8,224.9,29.9,338.6,20.4c32.3-2.7,64.9-9.5,95.8-19.4c13.1-4.2,23-20.5,32.6-32.7c8.8-11.1,13.2-26.1,23.1-35.9
		c23.6-23.5,49.3-44,34.2-84.1c-3.1-8.3,4.9-22,10-32C1010.1,740.2,1023.6,703.1,997.6,662z"/>
	<path d="M238.7,527.3c-61.1,0.2-97.8,31-98.4,85.4c-0.8,84.3-0.8,168.7,0.3,253c0.6,46.5,33.7,78.8,79.8,81.1
		c11.7,0.6,23.4,0.4,35.1,0c48.8-1.5,81.7-32.6,83.3-81c1.3-42.1,0.3-84.3,0.3-126.5c0.3,0,0.6,0,1,0c0-42.2,0.7-84.3-0.2-126.5
		C338.7,556.4,303.4,527.1,238.7,527.3z"/>
	<path d="M566.7,426.5c65.1-24.3,112.7-65.8,125.2-138.7c4.9-28.8,13-57.1,17-86c5-36.5,6.6-73.7,52.8-89.3
		c-13.6-19.3-20.7-37.4-34-46.4c-20-13.7-45.3-30.8-66.6-28.6c-28.4,2.9-32.1,35.4-36.2,61.4c-5.1,32.3-12.3,64.3-17.4,96.7
		c-12.5,78.6-62.9,122.7-134,147.5c-50.8,17.7-102.1,33.7-153.2,50.7c-40,13.3-64.1,41.9-74.8,81.7c-1.9,7.1,1.6,22.1,5.9,23.5
		c29.3,9.6,59.3,17.1,89.4,23.9c3.7,0.8,8.9-6.4,13.8-9.2c24-13.7,47-30.3,72.5-40.1C472.8,455.7,520.7,443.7,566.7,426.5z"/>
	<path d="M186.1,504.2c25.1-2.7,30.1-14,22.1-35c-15.3-40.4-64.8-60.6-123.1-50.6c-40.9,7-70,38.2-71.2,79.3
		c-1.2,43.3-0.3,86.6-0.3,129.9c-0.1,42.1-4.6,84.9,1.6,126.1c3.7,24.9,22.2,48.7,37.9,70.2c5.7,7.7,23.5,10.5,34.5,8.4
		c4.7-0.9,8.3-19.8,8.4-30.6c0.8-65.5,0.3-131.1,0.4-196.6C96.5,539.4,120.4,511.4,186.1,504.2z"/>
</g>
</svg>
