<?xml version="1.0" encoding="utf-8"?>
<!-- Generator: Adobe Illustrator 22.1.0, SVG Export Plug-In . SVG Version: 6.00 Build 0)  -->
<svg version="1.1" id="thumbs-up-3" xmlns="http://www.w3.org/2000/svg" xmlns:xlink="http://www.w3.org/1999/xlink" x="0px"
	 y="0px" viewBox="0 0 1024 1024" style="enable-background:new 0 0 1024 1024;" xml:space="preserve">
<g>
	<path d="M528,513.2c26.9-8.5,53.6-17.3,80.1-26.9c57.2-20.8,100.8-55.1,113.9-118.4c6.9-33.3,13.1-66.7,20.6-99.8
		c3.6-15.8,6.8-32.7,15.1-46.1c10.3-16.5,19.4-32.2,1.4-46c-20.3-15.5-42.5-30.6-66.3-37.9c-5.7-1.7-25.7,26.9-30.9,44
		c-8.8,28.9-11.5,59.8-15.9,90c-11.1,76.1-57.3,120.8-127.7,144.1c-41.2,13.6-82.6,26.9-123.7,40.8c-33.5,11.3-56.9,34-65,68.1
		c-2.1,8.8,7.4,26.6,15.9,30.3c21.9,9.7,46.2,13.8,73.4,21.2C441.1,536.3,485.5,526.6,528,513.2z"/>
	<path d="M316.9,579.8c-55.4-0.1-78.2,21-79.1,74.6c-0.6,37.5-0.1,75-0.1,112.4c0,17.6,0,35.1,0.1,52.7c0.1,17.6,0.1,35.1,0.3,52.7
		c0.6,53.7,23.5,80.4,69.9,81.8c67.3,2,96.5-18.4,98.8-75.7c2.9-74.9,2.5-149.9,2.2-224.8C408.9,600.6,382.2,580,316.9,579.8z"/>
	<path d="M225.2,453.1c22.7,8,46.7,12.2,76.6,19.3c-0.3,0.2,5.3-3.4,11.2-6.7c23.3-12.8,45.6-27.7,70.1-37.5
		c38-15.2,78.1-25.3,116.2-40.5c49.6-19.9,90.5-50.1,103.5-106.3c5.8-25.1,12-50.2,16.9-75.5c6.6-33.8,1.8-71.8,36.6-94.8
		c2.4-1.6,3.6-6.1,3.9-9.4c2-18.2-40.2-61.3-64-64.2c-29.2-3.6-39.5,17.5-44.7,39.9c-6.8,29.6-11.1,59.9-15,90.1
		c-10.6,80.5-58.3,127.4-133.2,151.1C363,331.2,323,344.7,283,358.3c-33.5,11.4-55.8,34.5-64.7,68.5
		C216.3,434.8,220.2,451.3,225.2,453.1z"/>
	<path d="M272.4,556.3c22.1-6.4,28.7-18.8,18.2-39.2c-15.6-30.4-61.4-46.1-105.9-36.7c-34.9,7.3-58.5,35.2-59.3,72.4
		c-0.8,38.6-0.2,77.3-0.2,115.9c0,38.6,0,77.3,0,115.9c0.1,33.5,18.1,55,47.5,67.2c23.6,9.7,37.8,4.5,37.2-25.5
		c-1.1-62.1-0.4-124.1-0.3-186.2C209.6,583.1,217.5,572.2,272.4,556.3z"/>
	<path d="M180,420.7c-16.7-33.4-61.1-49.1-108-38.7c-34.4,7.7-57.9,36.2-58.7,73.6c-0.8,37.5-0.2,75.1-0.2,112.6
		c0,37.5-3.3,75.5,1.3,112.5c2.6,21.2,16.2,42.2,28.7,60.7c5.1,7.6,20.4,8.4,31,12.3c3.5-10.3,9.9-20.6,10.1-31.1
		c1-58.6,0.3-117.3,0.5-176c0.3-54.2,22-81.1,74.6-88.1C186.7,454.9,191.1,442.8,180,420.7z"/>
	<path d="M997.5,697.6c-4.1-6.5-0.3-20,3-29c22.2-60.2-8.6-108.6-73.6-114.4c-12-1.1-24-1.3-37.8-2c7.3-35.9,15.1-65.2,18.6-94.9
		c3.7-30.9,5.5-62.4,4-93.5c-1.9-40.9-16.8-78.7-48.9-104.7c-14.4-11.7-39.5-21.8-55.1-17.1c-13.2,4-23.5,29.2-28.4,46.9
		c-9.1,33-13.5,67.3-19.7,101.1c-10.1,55.4-43.8,91.8-94.3,112.1c-43.4,17.4-88.2,31.6-132.8,46C458.6,572,433.9,604,433,682.9
		c-0.7,60.5,0,121,0.3,181.5c0.3,57.3,25.5,86.4,82.4,100.1c99.6,23.8,200.3,26.6,301.6,18.1c28.8-2.4,57.8-8.4,85.3-17.3
		c11.7-3.7,20.5-18.2,29-29.1c7.8-9.9,11.8-23.2,20.5-31.9c21.1-20.9,43.9-39.2,30.5-74.9c-2.8-7.4,4.4-19.5,8.9-28.5
		C1008.6,767.3,1020.6,734.3,997.5,697.6z"/>
</g>
</svg>
