<?xml version="1.0" encoding="utf-8"?>
<!-- Generator: Adobe Illustrator 22.1.0, SVG Export Plug-In . SVG Version: 6.00 Build 0)  -->
<svg version="1.1" id="utility-shield" xmlns="http://www.w3.org/2000/svg" xmlns:xlink="http://www.w3.org/1999/xlink" x="0px"
	 y="0px" viewBox="0 0 1024 1024" style="enable-background:new 0 0 1024 1024;" xml:space="preserve">
<g>
	<path d="M899.9,107.4c0.1-16.2-6.1-22.5-20.9-24.8c-20.9-3.4-41.7-7.9-62.5-12c-81.1-15.8-162.3-31.4-243.4-47.4
		c-14.4-2.8-28.3-9.3-42.8-10.5c-24.4-2.1-48,1.4-72.4,7.6c-58.9,14.9-119.1,24.6-178.9,36.2c-45,8.8-90.1,17.3-135.2,26
		c-11.2,2.2-20,5.3-19.9,20.4c0.5,180.3,0.5,360.7,0.7,541c0,5.7-0.8,12.2,1.5,17c15,31.5,28.2,64.2,46.8,93.5
		c46.3,73.2,111.9,127.4,184.1,173.5c38.1,24.4,78.6,45.2,118.3,66.9c11.9,6.5,20.9,21.8,37.5,15.9c11.3-4.1,21.8-10.4,32.7-15.9
		c66.8-33.6,130.9-71.4,189.3-118.6c66-53.2,117.1-117.3,152.9-194.5c8.4-18.1,11.7-35.1,11.7-54.1c-0.1-83.3,0-166.5,0-249.8
		c0,0,0,0,0.1,0C899.5,287.7,899.1,197.5,899.9,107.4z M697.3,331.7c-20.2,39.7-46.9,73.2-83.1,99.1c-12.2,8.7-17.6,19.4-16.5,35.2
		c5.9,88.7,11.3,177.4,16.1,266.2c2,35.9,6.1,72.5,2.1,107.9c-6.2,54.2-75.2,100.7-127.1,85.2c-39.9-11.9-86.8-51.6-83.4-109.8
		c3.2-55,5.7-110,9-165c3.8-63,8-126,12.5-188.9c1-14-5.6-22.8-16.1-30.1c-35.6-24.8-61.9-57.3-81.7-95.8
		c-16.4-31.8-16.4-63.6-4.5-96.5c14.9-41.3,37.4-77.4,71.8-105.3c4.8-3.9,14.2-8.4,17.6-6.4c5,3,8.7,11.6,9.2,18.1
		c1.3,16,0.4,32.1,0.4,48.2c0,2.9,0.5,5.8,0,8.6c-7.8,41,14.2,71.3,36.3,101.5c2,2.8,4.3,7.2,6.8,7.5c25.9,2.3,51.9,5.5,77.8,4.6
		c8.6-0.3,18.3-10.6,24.8-18.6c10-12.4,18.6-26.3,26-40.5c3.8-7.2,4.9-16.4,5-24.8c0.5-28.1-0.5-56.3,0.5-84.4
		c0.2-7.1,3.9-17.9,8.8-19.9c5-2,14.7,3.3,20.4,7.9c36.7,29.2,59.6,68.3,73.1,112.3C711.7,275.7,711.4,304.1,697.3,331.7z"/>
	<path d="M511.6,792.8c-12.4,2.3-20.9,10.4-20.7,23.4c0.2,13.1,10,18,20.5,19.4c13.1-0.3,22.4-9.7,22.1-20.7
		C533.2,803.8,521.3,791,511.6,792.8z"/>
</g>
</svg>
