<?xml version="1.0" encoding="utf-8"?>
<!-- Generator: Adobe Illustrator 22.1.0, SVG Export Plug-In . SVG Version: 6.00 Build 0)  -->
<svg version="1.1" id="vain-crystal" xmlns="http://www.w3.org/2000/svg" xmlns:xlink="http://www.w3.org/1999/xlink" x="0px"
	 y="0px" viewBox="0 0 1024 1024" style="enable-background:new 0 0 1024 1024;" xml:space="preserve">
<g>
	<path d="M497.1,12c1.2,14.3,2.8,24.9,2.9,35.6c0.2,218.1,0.2,436.3,0.2,654.4c0,5.7-0.1,11.5-1,17c-2.3,13.6-8.4,15.2-19.5,7.2
		c-30.8-21.9-62.2-43.1-93.1-64.9c-24.1-17-47.8-34.7-71.9-51.8c-23.7-16.8-47.7-33-71.4-49.7c-10.9-7.7-21.4-15.8-32-23.8
		c-0.9-0.7-1.5-1.7-2.4-2.4c-7-5.2-18.7-9.2-20.2-15.6c-4.4-19.1,0.6-36.6,13.4-53.3c15.2-19.7,26.7-42.3,39.9-63.5
		c11.3-18,22.9-35.8,34.2-53.8c12.7-20.3,25.2-40.7,38-61c11.9-19,24-37.8,35.9-56.8c11.9-18.9,23.8-37.8,35.5-56.8
		c12.4-20,24.6-40.1,36.8-60.1c12.8-20.9,25.8-41.7,38-62.9c5.5-9.6,7.9-21.2,14.5-29.7C478.3,15.4,487.7,15.1,497.1,12z"/>
	<path d="M526.7,16.9c12.4-4.7,17.6-1.7,23.3,9.7c10.3,21,24.2,40.3,36.6,60.2c11.6,18.6,23.4,37.1,34.9,55.8
		c12.7,20.5,25.2,41.1,37.7,61.7c12.2,20.2,24.2,40.5,36.4,60.7c11.1,18.2,22.5,36.3,33.8,54.4c12.8,20.5,25.5,40.9,38.3,61.4
		c12.5,20,24.8,40.2,37.6,60c9.7,15,21.5,28.9,29.6,44.7c4,7.8,1,19,2,28.5c1.4,13.4-9.9,12.2-17,16.8
		C802.6,542,786.4,555,769.6,567c-23.2,16.6-46.4,33-69.7,49.5c-24.2,17.1-48.6,34.1-72.8,51.3c-28.3,20-56.3,40.3-84.6,60.3
		c-8.9,6.3-14.1,1-16.3-7.2c-1.5-5.9-1.1-12.4-1.1-18.7c-0.1-219.6-0.1-439.3-0.1-658.9C525,34.3,526.1,25.3,526.7,16.9z"/>
	<path d="M484.3,1010.7c-12-20.3-23.6-40.8-36-60.8c-28.3-45.6-57.2-90.8-85.4-136.5c-26.4-42.8-51.9-86.1-78.3-128.8
		c-16.3-26.4-34-52-50.3-78.4c-3.1-5-2.8-12-4-18.1c6.6,0.4,14.9-1.7,19.6,1.5c33.2,22.6,65.7,46.4,98.4,69.7
		c46,32.8,92.4,65.2,137.9,98.9c6.5,4.8,12,15.6,12.1,23.6c1,67.2,1,134.4,0.4,201.6c-0.1,9.3-5.1,18.5-7.9,27.8
		C488.5,1011,486.4,1010.9,484.3,1010.7z"/>
	<path d="M533.7,1011.7c-2.4-13.6-5.4-23-5.4-32.5c-0.2-59.7,1.6-119.5-0.1-179.1c-0.7-23.6,7.7-37.7,26.3-50.4
		c66-45.2,131.3-91.3,196.8-137.2c9.2-6.5,17.9-13.9,27.5-19.8c3.5-2.2,9-1.2,13.5-1.6c-0.3,4.6,0.9,10.3-1.2,13.8
		c-24.1,39-48.9,77.7-73.3,116.6c-33.1,52.8-65.9,105.9-98.8,158.8c-24.8,39.9-49.6,79.9-74.6,119.7
		C542.5,1002.7,539.8,1004.9,533.7,1011.7z"/>
</g>
</svg>
