<?xml version="1.0" encoding="utf-8"?>
<!-- Generator: Adobe Illustrator 22.1.0, SVG Export Plug-In . SVG Version: 6.00 Build 0)  -->
<svg version="1.1" id="weapon" xmlns="http://www.w3.org/2000/svg" xmlns:xlink="http://www.w3.org/1999/xlink" x="0px" y="0px"
	 viewBox="0 0 1024 1024" style="enable-background:new 0 0 1024 1024;" xml:space="preserve">
<g>
	<path d="M427,940.9c2-12.4,3.2-20.5,4.7-28.4c6.3-32.7,13.6-65.2,18.6-98c1.3-8.5-3.1-18.7-6.9-27.1
		c-11.2-24.5-23.6-48.6-35.4-72.9c-2.3-4.7-3.7-9.9-6.6-17.7c8.8,1.1,14.1,1.8,19.5,2.5c51,6.5,100.2,1.5,145.9-23.8
		c39.5-21.9,65.2-55.9,77.6-98.3c7.7-26.2,9.2-54.2,13.1-81.4c1.5-10.2-0.9-18.6-12.2-23.1c-5.5-2.2-11-6.6-14.3-11.5
		c-2.5-3.7-4-12.3-1.8-14.5c44.5-43.9,89.6-87.2,135.2-131.1c0.1,0.2,2.6,1.9,3.4,4.2c9.7,28.6,43,29.1,61.4,13.4
		c4.7-4,7.1-14.2,6-20.8c-3.2-19.4-8.8-38.4-13-57.6c-3-13.7,3.2-19.9,16.3-14.9c20.1,7.6,37,20,43.5,41.7
		c19.4,64.7,37.9,129.7,58.1,194.2c3.2,10.4,12.7,19.5,21.1,27.3c15,13.9,31.4,26.4,50.8,42.4c-16.4,4.7-27.8,9.7-39.5,10.9
		c-42.9,4.4-72.9,32.7-107,54.4c-23.6,15-29.7,37.4-37.8,61c-14.4,42.1-17.8,84.1-8.2,127.8c4.8,21.8,6.2,44.3,9.8,71.1
		c-8.9-4.1-14.3-6-19-9c-12.4-7.8-24.8-15.6-36.5-24.4c-14.3-10.7-29.4-14.4-47.4-12.1c-57.6,7.4-115.4,13.3-173,20.8
		c-8.2,1.1-16.6,6.7-23.4,12.2c-31,25.3-61.5,51.2-92.2,76.9C436.1,936.5,434,937.2,427,940.9z M778.6,562.4
		c-0.2-21-13.2-37.8-34.6-44.7c-15.9-5.1-37,2.2-48.1,16.8c-12.6,16.5-14.5,38.1-0.5,54.8c11,13.1,8.2,24.1,3.3,37.1
		c-5.8,15.2-12,30.4-16,46.1c-1.2,4.8,4.1,11.4,6.4,17.1c5-3.4,12.5-5.6,14.6-10.3c7.2-15.8,12.5-32.5,18.6-48.8
		c4.2-11.1,7.9-21.1,23-23.3C765.1,604.5,778.8,583.9,778.6,562.4z"/>
	<path d="M489.6,369.3c-59.3-35.4-110.2-5.1-162,16.8c-1.5-0.9-3.1-1.8-4.6-2.8c3.7-11.3,5.4-23.8,11.5-33.6
		c25-40.4,18.3-84.6,17.3-128.1c-0.5-23.6-1.5-47.8-6.9-70.6c-5.9-24.8-17.2-48.3-26-72.4c-2-5.5-3.4-11.1-5.1-16.7
		c1.3-1.3,2.5-2.5,3.8-3.8c5.1,2.9,10,6.3,15.3,8.5c37.9,15.5,75.5,31.6,118,30.8c29.8-0.6,59.8,3.6,89.6,1.9
		c17.9-1,35.5-8.5,52.9-14.2c10-3.3,19.1-9.1,28.9-13.2c3.2-1.3,7.3-0.6,10.9-0.9c0.2,4.2,1.8,8.8,0.5,12.4
		c-5.6,15.2-9.8,31.6-18.6,44.8c-14.8,22.3-4.5,40.5,4.8,59.8c2.2,4.6,4,9.8,7.6,13.1c16.1,14.6,6.8,24.4-4.8,35.8
		C578.2,280.6,534.2,324.9,489.6,369.3z"/>
	<path d="M489.2,557.7c-16.6,14.4-30.5,24.4-41.7,36.9c-6.1,6.7-9.6,17.1-10.8,26.3c-1.7,12.2-0.4,24.8,0.4,37.2
		c0.7,12.2-4.5,16.8-16.2,14.3c-17.9-3.7-31.4,2.3-42.7,16.6c-8.3,10.5-18.8,19.4-28.4,28.9c-9.9,9.9-18.9,20.5-36,17.5
		c-4.9-0.9-12.1,5.3-16.7,9.9c-70.5,70.8-140.9,141.6-210.6,213.1c-9.8,10-14.1,9.9-23.1-0.5C49.4,941.7,34,926.6,18,912.4
		c-8.4-7.5-7.5-11.2-0.2-18.5c69.4-69.4,138.3-139.3,207.6-208.9c8.5-8.5,12.7-16.8,11.2-29.8c-1-8.2,2.9-19.1,8.5-25.4
		c16.7-19.1,34.6-37.3,53.6-54c6.6-5.8,18-9,27-8.6c22.6,1,45-20.7,42-43.1c-3.9-29.8-3.8-28,26.4-29.7c21.8-1.2,37,5.5,50.9,21.7
		C456.6,529.6,471,540.8,489.2,557.7z"/>
	<path d="M689,191.8c26.1,26.8,51,52.1,75.6,77.6c9.1,9.5,2.2,15.9-4.6,22.7c-56.1,56.5-111.8,113.3-168.2,169.5
		c-11.6,11.5-18.7,20.7-7.2,37.3c8.9,12.8,0.8,35.8-13.4,48.7c-14.7,13.3-37.3,16.1-53.2,8.4c-32-15.6-55.8-41-79.4-66.4
		c-15.2-16.4-14.1-33.9,1-49c77.6-77.9,155.3-155.8,232.9-233.6C677,202.6,681.7,198.6,689,191.8z"/>
</g>
</svg>
