<?xml version="1.0" encoding="utf-8"?>
<!-- Generator: Adobe Illustrator 22.1.0, SVG Export Plug-In . SVG Version: 6.00 Build 0)  -->
<svg version="1.1" id="academy" xmlns="http://www.w3.org/2000/svg" xmlns:xlink="http://www.w3.org/1999/xlink" x="0px" y="0px"
	 viewBox="0 0 1024 1024" style="enable-background:new 0 0 1024 1024;" xml:space="preserve">
<g>
	<path d="M841.9,599.8c0,9,0.1,15.8,0,22.7c-0.6,52.8-0.8,105.5-2,158.3c-0.9,43.2-23.3,65.8-66.4,67.5c-25.2,1-50.4,1-75.6,1.7
		c-37.9,1-63.4,26.7-63.9,64.9c-0.4,25.8,0.1,51.6-0.1,77.4c-0.2,17.8-5.5,22.1-22.7,18.6C486,985.4,361,959.8,236,934.1
		c-19.9-4.1-27.2-13.4-27.4-34.7c-0.3-45.1-0.6-90.3,0.2-135.4c0.3-14.7-4.3-24.5-14.8-34.9c-25.8-25.5-50.9-51.9-73.9-79.9
		c-45.1-55-65.9-119.5-66.9-190.3c-1.3-97.3,20.2-189.5,74.9-270.2C196,88.5,296,35.1,413.5,17c122.1-18.7,231.8,15.7,329.3,90.8
		c27.5,21.2,49.3,47.3,63.4,78.7c52,115.8,103.1,232,154.5,348.1c2.1,4.8,3.9,9.8,5.8,14.7c12.1,31.1-0.9,50.1-34.9,50.4
		C902.4,599.9,873.2,599.8,841.9,599.8z M420.3,491c7.2,0,14.2-0.1,21.1,0c82.7,1.3,165.3,3.1,248,3.2c10.8,0,24.1-5.9,31.9-13.4
		c16.7-16.2,22.3-37.7,12.7-59.8c-6.8-15.6-2.1-27.4,4-41.4c5-11.4,6.9-25.5,5.6-37.9c-1.9-18.2-15.5-29.2-31.6-37.2
		c-15.4-7.6-26.6-17.7-25.7-37.8c1.5-35.4-6.9-43.2-43.3-46.9c-17.5-1.8-32.9-5.1-43.2-24.1c-13.9-25.4-47.2-33.7-67.4-18
		c-16.4,12.7-28.1,13.5-45.2,0.6c-20.2-15.1-45.8-24.6-68.8-8.5c-19.9,14-37.8,16.8-60.5,10.8c-25-6.6-40.2,3.2-48.4,27.7
		c-5.3,15.6-15.7,22.2-31.7,22.4c-48.5,0.5-62,13.7-62.3,60.9c-0.1,11.4-2.7,18.9-14.8,24.6c-32.2,15.1-40,40.1-24.2,72.6
		c4.4,9,4.6,15.1-2.8,23.2c-26.9,29.3-20.8,58,17.9,69c23.5,6.7,32.3,17.3,35.3,40.1c3.4,26.2,20,42.1,47.7,42.4
		c21.6,0.2,43.5,1,64.7-2.1C379.8,555.5,411,536.4,420.3,491z"/>
</g>
</svg>
