<?xml version="1.0" encoding="utf-8"?>
<!-- Generator: Adobe Illustrator 22.1.0, SVG Export Plug-In . SVG Version: 6.00 Build 0)  -->
<svg version="1.1" id="academy-2" xmlns="http://www.w3.org/2000/svg" xmlns:xlink="http://www.w3.org/1999/xlink" x="0px" y="0px"
	 viewBox="0 0 1024 1024" style="enable-background:new 0 0 1024 1024;" xml:space="preserve">
<g>
	<path d="M524.5,76.5c-12.5-5.7-31.9-6.5-44.1-0.9c-157.2,72.4-313.6,146.4-456,213.4c12.9,52.6,31.3,91.5,29.8,129.7
		c-2.7,68.1-20.1,135.4-26.5,203.5C19,713.3,10.1,804.9,12.4,896c0.5,21.2,44.2,53.6,71.2,57.3c17.7,2.4,59.7-38.1,59.1-58.3
		c-3.4-109-16.1-217.7-26.8-326.5c-6.3-64.4-14.7-128.6-24.2-210.5c129.9,60.6,239.1,115.5,351.9,161.7c33,13.5,81,13.9,113.9,0.2
		C684.9,467,809,406.3,934,347.6c22.1-10.4,42.2-24.9,77-45.8C839.2,221.9,682.2,148.5,524.5,76.5z"/>
	<path d="M574.9,575.4c-50.3,26.4-92.5,29-143.8,1.9c-64.9-34.3-134.7-59.6-207.2-90.9c-57.5,129.3-51.9,189.3,19.2,257.6
		c121.6,116.8,330.7,135.6,467.6,35.5c119-86.9,137.2-131.9,65.6-292C709.1,516.4,639.6,541.4,574.9,575.4z"/>
</g>
</svg>
