<?xml version="1.0" encoding="utf-8"?>
<!-- Generator: Adobe Illustrator 22.1.0, SVG Export Plug-In . SVG Version: 6.00 Build 0)  -->
<svg version="1.1" id="armory" xmlns="http://www.w3.org/2000/svg" xmlns:xlink="http://www.w3.org/1999/xlink" x="0px" y="0px"
	 viewBox="0 0 1024 1024" style="enable-background:new 0 0 1024 1024;" xml:space="preserve">
<style type="text/css">
	.st0{fill:#010101;}
</style>
<g>
	<path class="st0" d="M615.2,768.3v-383c-3.6-25.2,0-91.2,0-91.2l-42-46.8l-8.4-10.8L512,12l-52.8,224.5l-8.4,10.8l-42,46.8
		c0,0,3.6,66,0,91.2v383c0,0,1.2,67.2-22.8,105.6c0,0,44.4,105.6,103.2,129.7c0,0,15.6,7.2,22.8,8.4c7.2-1.2,22.8-8.4,22.8-8.4
		c58.8-24,103.2-129.7,103.2-129.7C614,835.5,615.2,768.3,615.2,768.3z"/>
	<path class="st0" d="M364.7,866.6c31.1-68,23.4-96.3,23.4-96.3s-4.1-465.9-3.6-470.9c0.5-5,3.2-12.2,3.2-12.2s38.7-39.6,43.7-45.9
		c5-6.3,9.9-20.3,9.9-20.3l40.1-171.5c-10.8-3.4-18.5,4.5-18.5,4.5c-97.7,157.6-211.1,216.1-211.1,216.1
		c14.9,18.5,12.6,61.7,12.6,61.7V632c-1.4,142.3-38.3,222.8-38.3,222.8c-3.5,7.7,22.5,36.7,27.4,42.3c20.8,24,48,46.4,75.5,62.4
		c25.3,14.7,52.5,20.6,81.6,17.9c1.8-0.2,14.9-3.4,16.1-2.3C367.4,921.1,364.7,866.6,364.7,866.6z"/>
	<path class="st0" d="M797.9,854.8c0,0-36.9-80.4-38.3-222.8V331.8c0,0-2.3-43.2,12.6-61.7c0,0-113.4-58.5-211.1-216.1
		c0,0-7.7-7.9-18.5-4.5L582.7,221c0,0,5,14,9.9,20.3s43.7,45.9,43.7,45.9s2.7,7.2,3.2,12.2c0.5,5-3.6,470.9-3.6,470.9
		s-7.7,28.4,23.4,96.3c0,0-2.7,54.5-61.9,108.5c1.2-1.1,14.3,2.1,16.1,2.3c29.1,2.7,56.3-3.1,81.6-17.9c27.4-16,54.7-38.4,75.5-62.4
		C775.4,891.5,801.5,862.5,797.9,854.8z"/>
</g>
</svg>
