<?xml version="1.0" encoding="utf-8"?>
<!-- Generator: Adobe Illustrator 22.1.0, SVG Export Plug-In . SVG Version: 6.00 Build 0)  -->
<svg version="1.1" id="banner-2" xmlns="http://www.w3.org/2000/svg" xmlns:xlink="http://www.w3.org/1999/xlink" x="0px" y="0px"
	 viewBox="0 0 1024 1024" style="enable-background:new 0 0 1024 1024;" xml:space="preserve">
<path d="M1011.9,135.2c0-21.3-6.5-28.5-28.6-29.1c-20.6-0.6-41.2-0.1-61.8,0c-33.1,0.2-33.8-0.9-36.7-33.7
	c-1.8-20.1-6.8-28.8-29.5-28.7c-228,0.8-456,0.5-684.1,0.5c-26.9,0-33.4,6.5-34,34c-0.5,23.6-5.4,28.3-29,28.2
	c-25-0.1-50-0.3-75-0.2c-14.5,0.1-21.4,7.1-21.2,22.2c0.4,33.7,0,67.5,0.1,101.2c0.1,21.6,4.5,26.2,26.7,26.4
	c23.1,0.3,46.2-0.4,69.3-0.4c22.2-0.1,27.9,5.5,28,27.3c0.3,86.2,0.8,172.4,0.9,258.6c0,55.3,0,110.6,0,165.8
	c0,55.6,0,111.1,0,166.7c0,18.3,0,36.7,0.1,55c0,16.9-2.4,35.9,1.9,52.3c0.8,3.2,2.1,6.6,4.8,8.4c0.9,0.6,1.9,1,3,1.3
	c5,1.4,10.3,0,15-2.1c41.8-18,86.3-30,129.3-45.1c70-24.5,139.6-50,209.7-73.9c8.3-2.8,19.3,0.8,28.7,2.9c7.2,1.6,13.6,6.2,20.6,8.5
	c55.5,18.7,111.2,37,166.7,55.8c49.6,16.8,98.9,34.5,148.7,50.5c4.6,1.5,13.7-4.5,17.4-9.5c3.1-4.2,1.7-12,1.7-18.2
	c-0.1-225.5-0.2-451-0.3-676.5c0-23.6,3.5-27.4,26.9-27.7c22.5-0.2,45,0.4,67.5,0.2c26-0.2,33.2-7.5,33.1-32.8
	C1011.9,193.9,1011.9,164.5,1011.9,135.2z M128.7,205.8c0,5.4-4.3,9.7-9.7,9.7H58.9c-5.4,0-9.7-4.3-9.7-9.7v-53.2
	c0-5.4,4.3-9.7,9.7-9.7H119c5.4,0,9.7,4.3,9.7,9.7V205.8z M840.2,450c0.1,28.4-3.9,31.9-30.8,39.8c-46.6,13.7-92.5,29.5-138.9,44
	c-58.8,18.3-117.7,36-176.5,54.2c-44.5,13.8-88.9,28.2-133.4,41.9c-22.6,7-45.6,12.7-68.2,19.8c-31.4,9.9-62.6,20.5-93.8,31
	c-15.7,5.3-22.3,1-22.6-15.8c-0.3-18.1-0.1-36.2-0.1-54.3c0,0,0.1,0,0.1,0c0-16.2,0.8-32.5-0.2-48.7c-1.1-17.3,6.4-26.7,22.5-31.5
	c28.1-8.5,55.8-17.9,83.8-26.6c66.6-20.9,133.2-41.7,199.9-62.3c61.8-19.1,123.8-37.7,185.6-56.9c48.1-14.9,96-30.5,144-45.7
	c21.9-6.9,28.9-1.4,28.7,21.1C840.1,390,840.1,420,840.2,450z M971.6,206.4c0,5.4-4.3,9.7-9.7,9.7h-60.1c-5.4,0-9.7-4.3-9.7-9.7
	v-53.2c0-5.4,4.3-9.7,9.7-9.7h60.1c5.4,0,9.7,4.3,9.7,9.7V206.4z"/>
</svg>
