<?xml version="1.0" encoding="utf-8"?>
<!-- Generator: Adobe Illustrator 22.1.0, SVG Export Plug-In . SVG Version: 6.00 Build 0)  -->
<svg version="1.1" id="beer-3" xmlns="http://www.w3.org/2000/svg" xmlns:xlink="http://www.w3.org/1999/xlink" x="0px" y="0px"
	 viewBox="0 0 1024 1024" style="enable-background:new 0 0 1024 1024;" xml:space="preserve">
<g>
	<polygon points="497.7,207.9 512.6,41.7 449.5,82.6 489.4,207.9 	"/>
	<polygon points="626.7,46.4 573.9,12 521.9,197.7 530.2,197.7 	"/>
	<polygon points="561.8,213.5 711.3,156.4 651,104.9 554.4,207.9 	"/>
	<path d="M372.7,541.5c5-5.3,8-12.1,12.2-18c5.7-8.1,13.7-14.6,22.9-18.8c5.9-2.7,12.8-4.8,16.3-10.1c1-1.6,1.7-3.4,3.2-4.6
		c3.1-2.5,7.9-1.2,11,1.3c3.1,2.5,5.2,5.9,8.4,8.3c2.7,1.9,5.9,3,9.2,3.6c13.9,2.5,29-3.9,36.5-15.4c1-1.5,1.9-3.1,3.5-4.1
		c4.7-2.7,9.8,2.7,15,4.1c6.1,1.7,12.2-2,18.4-3.4c13.8-3.1,27.7,6.1,41.8,5.3c17.7-1,31.6-16.9,49.3-17.6c3.7-0.1,7.7,0.6,10.1,3.2
		c1.9,2,2.7,4.9,4.6,6.9c5.6,5.8,15.3,0.9,23.4-0.9c7.8-1.7,15.8,0.1,23.8-0.3c7.9-0.4,16.9-4.4,18.2-11.9c0.4-2.1,0.1-4.3,0.8-6.3
		c1.2-3.4,4.7-5.3,7.6-7.5c9-7.1,12.7-19.2,11.2-30.3c-1.5-11.1-7.7-21.2-15.3-29.7c-18-20-45.1-32-72.7-32.2
		c-15-0.1-30.6,3-44.8-1.8c-7.4-2.5-13.9-7.1-20.7-10.8c-13.5-7.3-29-11.2-44.5-11.3c-8.3-0.1-16.9,1-23.7,5.5
		c-4.2,2.8-7.6,6.8-12.2,9.1c-11.8,6-25.7-1.5-38.7-4.3c-16.6-3.5-34.9,1.4-47.1,12.7c-6.8,6.2-13.2,14.9-22.6,14.7
		c-5.7-0.1-10.6-3.7-16.1-5.2c-10.2-2.9-21.2,1.3-30.5,6.4c-21.5,11.9-39.7,29.3-52.2,49.8c-4.8,7.9-9,16.8-8.2,26
		c0.6,8,4.9,15.3,9,22.2c9.6,16.1,14.2,39,30.3,50c12.2,8.4,28.4,17.4,42.6,22C359.8,550.7,367.7,546.9,372.7,541.5z"/>
	<path d="M807.4,670.6c10.8-76-13.3-147.8-96.3-175.3c-5.8-1.9-9.5-4.3-11.3-7.4c-4,4.8-11,7.3-17.2,7.7c-3.2,0.2-6.5,0-9.6-0.2
		c-4.8-0.3-9.4-0.5-13.8,0.4c-1.7,0.4-3.5,0.9-5.4,1.5c-7,2.1-14.9,4.4-20.2-1.3c-1.2-1.3-1.9-2.7-2.7-4.1c-0.6-1.1-1.2-2.2-1.9-3
		c-2.2-2.4-6.2-2.6-8.3-2.5c-8.4,0.3-15.9,4.4-23.8,8.8c-7.9,4.3-16.1,8.8-25.4,9.3c-6.7,0.4-13.3-1.4-19.7-3.1
		c-7.6-2.1-14.7-4-21.7-2.4c-1.8,0.4-3.5,1-5.4,1.7c-4.5,1.6-9.2,3.2-14.1,1.8c-2-0.6-3.9-1.6-5.7-2.6c-3.4-1.9-5.6-3-7.5-1.9
		c-0.9,0.5-1.6,1.7-2.4,2.9l-0.3,0.6c-8,12.7-24,19.6-38.9,16.9c-4.2-0.8-7.5-2.1-10.2-4.1c-1.9-1.4-3.4-3.2-4.9-4.8
		c-1.2-1.4-2.3-2.7-3.6-3.7c-2.4-2-6-3-8-1.4c-0.7,0.6-1.2,1.6-1.8,2.6c-0.3,0.5-0.6,1.1-0.9,1.6c-3.3,5.1-8.8,7.5-14.1,9.8
		c-1.1,0.5-2.2,1-3.2,1.4c-8.9,4.2-16.4,10.6-22,18.6c-1.5,2.2-2.9,4.6-4.3,6.9c-2.4,4-4.8,8.2-8.1,11.9c-3.9,4.3-10.3,8.5-17.2,8.5
		c-1.7,0-3.5-0.3-5.2-0.9c-11.2-3.8-25.1-11-38-19.5c3.9,9.6,5.2,19.6,5.2,31.2c-0.5,113.3-0.4,226.5-0.1,339.8
		c0.1,43.4,16.9,66.7,58.5,75.5c43.3,9.1,87.3,14.4,125.8,20.5c38.1-4.7,69.6-9.4,101.4-12.3c59.4-5.4,95.8-33.9,91-97.4
		c-0.8-10.8,4.4-25.7,12.1-32.8C766.3,815.5,796.3,748.5,807.4,670.6z M437,734.2c0,53,0,106.1,0,159.1c0,14.6-0.4,30.3-19.9,30.8
		c-20.5,0.5-22.5-15.1-22.5-31.1c0-106.9,0-213.7,0-320.6c0-3.9-1.2-9.1,0.8-11.4c7-8,14.4-19.6,23.2-21.3
		c15.2-2.8,18.2,11.2,18.3,23.7c0.2,39,0.1,78,0.1,117C437,698.4,437,716.3,437,734.2z M529.1,742c0,53.9,0,107.8,0.1,161.7
		c0,14.8-0.5,30.1-20.2,30.6c-20.7,0.5-22.9-14.9-22.9-30.9c0-107-0.1-214.1,0-321.1c0-5.4-0.7-12.7,2.3-15.8
		c6.9-7.1,15.5-15.7,24.1-16.6c4.7-0.5,15.3,13.3,15.7,21c1.8,32.7,0.8,65.6,0.8,98.4C529.1,693.5,529.1,717.8,529.1,742z
		 M600.5,924.1c-20.3,0.5-22.9-15-22.9-31c0-107.1,0-214.2,0-321.2c0-1.6-0.1-3.1,0.1-4.7c1.7-14.9,5.9-29,24.3-28.5
		c18.4,0.5,19.2,15.1,19.2,29c0.1,54.7,0,109.4,0,164.1c0,53.9-0.1,107.9,0,161.8C621.2,908.7,619.4,923.6,600.5,924.1z
		 M697.4,807.9c0-89.2,0-177.7,0-270.6c42.2,15.4,65,42.2,70.1,81.7c9.4,72.2-18.6,132.7-62.9,187.3
		C703.9,807.2,701.7,807,697.4,807.9z"/>
	<path d="M879.5,439.8c-1.8,0.6-3.6,0.9-5.4,0.9c-7.1,0-13.8-4.4-17.8-8.8c-3.4-3.8-6-8.1-8.4-12.3c-1.4-2.4-2.9-4.9-4.5-7.2
		c-5.7-8.3-13.6-14.9-22.8-19.3c-1.1-0.5-2.2-1-3.3-1.5c-5.5-2.4-11.2-4.9-14.6-10.2c-0.3-0.5-0.7-1.1-1-1.6
		c-0.6-1.1-1.2-2.1-1.9-2.7c-2-1.7-5.8-0.7-8.3,1.4c-1.3,1.1-2.5,2.5-3.7,3.9c-1.5,1.7-3.1,3.5-5.1,5c-2.8,2.1-6.3,3.5-10.6,4.3
		c-15.4,2.8-32-4.4-40.3-17.5l-0.4-0.6c-0.8-1.2-1.5-2.4-2.5-3c-1.9-1.1-4.2,0-7.7,2c-1.9,1-3.8,2.1-5.9,2.7
		c-4.6,1.4-9,0.1-13.3-1.4c4.7,3.7,9.1,7.6,13.1,12c10.7,11.8,17,24.3,18.8,37.1c0.7,4.9,0.6,9.7-0.2,14.4c1.5,1.4,2.9,2.9,4.3,4.3
		c3.1,3.2,2.4,10.8,2.4,16.4c0,11.4,0,22.9,0,34.3c20.7,10.5,37.8,24.4,51,41.3c0-31.7-0.1-63.5,0.1-95.2c0.1-13,3.2-27.5,18.9-24.5
		c9.1,1.7,16.7,13.8,24,22c2.1,2.4,0.9,7.8,0.9,11.8c0,110.8,0,221.6,0,332.3c0,16.5-2.1,32.7-23.3,32.2
		c-20.3-0.5-20.7-16.7-20.7-31.9c0-1.2,0-2.4,0-3.6c-17.8,39.1-42.2,73.2-74.2,102.6c-4.4,4-8.2,14.7-7.7,21.5c0,0.3,0,0.5,0,0.8
		c4.4,0.6,8.6,1.1,13.2,1.7c39.8-6.3,85.5-11.8,130.4-21.2c43.1-9,60.5-33.2,60.6-78.2c0.3-117.4,0.4-234.9-0.1-352.3
		c-0.1-11.9,1.3-22.4,5.4-32.3C905.5,428.5,891.1,435.9,879.5,439.8z"/>
	<path d="M955.1,298.3c-13-21.3-31.8-39.3-54.1-51.6c-9.6-5.3-20.9-9.7-31.6-6.7c-5.6,1.6-10.8,5.3-16.6,5.4
		c-9.7,0.2-16.4-8.8-23.4-15.2c-12.7-11.7-31.6-16.8-48.8-13.2c-13.5,2.9-27.9,10.6-40.2,4.4c-4.7-2.4-8.2-6.6-12.6-9.5
		c-7-4.7-16-5.8-24.6-5.7c-16.1,0.1-32.1,4.2-46.1,11.8c-7.1,3.8-13.8,8.5-21.5,11.2c-14.7,5-30.9,1.7-46.5,1.8
		c-28.5,0.2-56.7,12.7-75.3,33.4c-4.5,5-8.3,10.5-11.2,16.4c-2.4-3.9-5.1-7.7-8.2-11.2c-18-20-45.1-32-72.7-32.2
		c-15-0.1-30.6,3-44.8-1.8c-7.4-2.5-13.9-7.1-20.7-10.8c-13.5-7.3-29-11.2-44.5-11.3c-8.3-0.1-16.9,1-23.7,5.5
		c-4.2,2.8-7.6,6.8-12.2,9.1c-11.8,6-25.7-1.5-38.7-4.3c-16.6-3.5-34.9,1.4-47.1,12.7c-6.8,6.2-13.2,14.9-22.6,14.7
		c-5.7-0.1-10.6-3.7-16.1-5.2c-10.2-2.9-21.2,1.3-30.5,6.4c-21.5,11.9-39.7,29.3-52.2,49.8c-4.8,7.9-9,16.8-8.2,26
		c0.6,8,4.9,15.3,9,22.2c9.6,16.1,14.2,39,30.3,50c12.2,8.4,28.4,17.4,42.6,22c7.1,2.3,14.9-1.5,19.9-6.8c5-5.3,8-12.1,12.2-18
		c5.7-8.1,13.7-14.6,22.9-18.8c5.9-2.7,12.8-4.8,16.3-10.1c1-1.6,1.7-3.4,3.2-4.6c3.1-2.5,7.9-1.2,11,1.3c3.1,2.5,5.2,5.9,8.4,8.3
		c2.7,1.9,5.9,3,9.2,3.6c13.9,2.5,29-3.9,36.5-15.4c1-1.5,1.9-3.2,3.5-4.1c4.7-2.7,9.8,2.7,15,4.1c6.1,1.7,12.2-2,18.4-3.4
		c6.3-1.4,12.7-0.2,19,1.4c10.1-3.5,19.3-4.2,27.8-1.7c2.5,0.7,4.9,1.7,7.3,2.8c0.1,0,0.2,0.1,0.3,0.1c1.6,0.7,4.1,2,4.9,1.8
		c1.7,0,6-4.3,8.6-6.9c1.3-1.3,2.5-2.5,3.8-3.7c0,0,0,0,0,0c0.1-0.1,0.3-0.3,0.4-0.4c15.6-14.4,38.4-20.6,59.4-16.1
		c3.7,0.8,7.5,1.9,11.3,3c7.4,2.2,14.5,4.3,18.3,2.4c1.2-0.6,2.7-1.9,4.4-3.3c2-1.7,4.1-3.5,6.3-5c2.5-1.7,5.3-3,8.3-4.1
		c2.5-2.1,8.6-4,10.3-2.7c4.1-0.7,8.3-1.1,12.9-1.1c17.8,0.2,35.4,4.7,51,13c2.2,1.2,4.4,2.5,6.5,3.7c3.8,2.2,7.4,4.2,10.8,5.6
		c0.1-0.1,0.1-0.1,0.1-0.2c-0.1,0.1-0.1,0.1-0.1,0.2c0.4,0.2,0.8,0.4,1.2,0.6c7.5,2.5,16.6,2,26.3,1.5c0.6,0,1.2,0,1.7-0.1
		c-3-1.4-6-2.8-9.1-3.7c3.1,1,6.1,2.3,9.1,3.7c4.1-0.2,8.3-0.4,12.4-0.4c14.9,0.1,29.7,3.4,43.4,9.1c6.7-1.7,13.4-3,20-1.5
		c6.4,1.4,12.7,5.3,19,3.5c5.4-1.5,10.7-7.1,15.5-4.3c1.6,0.9,2.6,2.6,3.6,4.2c7.8,11.9,23.5,18.5,37.8,15.9
		c3.4-0.6,6.8-1.7,9.6-3.7c3.3-2.4,5.5-6,8.7-8.6c3.2-2.6,8.2-4,11.4-1.4c1.5,1.2,2.3,3.1,3.3,4.7c3.7,5.5,10.8,7.7,16.9,10.5
		c9.5,4.3,17.8,11.1,23.7,19.5c4.4,6.1,7.5,13.1,12.7,18.7c5.2,5.5,13.3,9.5,20.7,7.1c14.7-4.9,31.5-14.2,44.2-22.9
		c16.6-11.4,21.5-35.1,31.4-51.8c4.3-7.2,8.7-14.8,9.3-23C964.3,315.7,960.1,306.5,955.1,298.3z"/>
	<path d="M298.5,808.5c-20.7,0.5-22.9-14.9-22.9-30.9c0-92.7,0-185.4,0-278.1c-0.1-0.2-0.2-0.5-0.3-0.7c-2.5-5.7-4.8-11.1-7.5-15.5
		c-4.5-7.5-10-16.8-10.9-28.2c-1.1-14,5.3-26.3,10.2-34.4c10.4-17.1,24.3-32.1,40.7-44.1c-2.6,0.6-5.3,0.8-8.1,0
		c-2-0.6-3.9-1.6-5.7-2.6c-3.4-1.9-5.6-3-7.5-1.9c-0.9,0.5-1.6,1.7-2.4,2.9l-0.3,0.6c-8,12.7-24,19.6-38.9,16.9
		c-4.2-0.8-7.5-2.1-10.2-4.1c-1.9-1.4-3.4-3.2-4.9-4.8c-1.2-1.4-2.3-2.7-3.6-3.7c-2.4-2-6-3-8-1.4c-0.7,0.6-1.2,1.6-1.8,2.6
		c-0.3,0.5-0.6,1.1-0.9,1.6c-3.3,5.1-8.8,7.5-14.1,9.8c-1.1,0.5-2.2,1-3.2,1.4c-8.9,4.2-16.4,10.6-22,18.6c-1.5,2.2-2.9,4.6-4.3,6.9
		c-2.4,4-4.8,8.2-8.1,11.9c-3.9,4.3-10.3,8.5-17.2,8.5c-1.7,0-3.5-0.3-5.2-0.9c-11.2-3.8-25.1-11-38-19.5c3.9,9.6,5.2,19.7,5.2,31.2
		c-0.5,113.3-0.4,226.5-0.1,339.8c0.1,43.4,16.9,66.7,58.5,75.5c43.3,9.1,87.3,14.4,125.8,20.5c4.2-0.5,8.1-1,12.2-1.6
		c-0.1-26.6-0.1-52.2-0.1-77C303,808.2,300.9,808.5,298.5,808.5z M206.6,798.4c-20.5,0.5-22.5-15.1-22.5-31.1
		c0-106.9,0-213.7,0-320.6c0-3.9-1.2-9.1,0.8-11.4c7-8,14.4-19.6,23.2-21.3c15.2-2.8,18.2,11.2,18.3,23.7l0.1,170.8
		c0,53,0,106.1,0,159.1C226.5,782.2,226.2,797.9,206.6,798.4z"/>
</g>
</svg>
