<?xml version="1.0" encoding="utf-8"?>
<!-- Generator: Adobe Illustrator 22.1.0, SVG Export Plug-In . SVG Version: 6.00 Build 0)  -->
<svg version="1.1" id="beer-1" xmlns="http://www.w3.org/2000/svg" xmlns:xlink="http://www.w3.org/1999/xlink" x="0px" y="0px"
	 viewBox="0 0 1024 1024" style="enable-background:new 0 0 1024 1024;" xml:space="preserve">
<g>
	<path d="M262.8,312.7c7.4-7.9,11.9-17.9,18.2-26.8c8.5-12,20.4-21.7,34-27.9c8.8-4,19.1-7.1,24.3-15c1.5-2.3,2.6-5,4.8-6.8
		c4.5-3.7,11.8-1.8,16.3,1.9c4.6,3.7,7.7,8.8,12.5,12.3c4,2.9,8.8,4.5,13.7,5.3c20.6,3.7,43.1-5.8,54.2-22.8c1.5-2.2,2.8-4.7,5.2-6
		c6.9-4,14.5,4,22.2,6.2c9,2.6,18.1-3,27.3-5.1c20.6-4.6,41.1,9.1,62.2,7.9c26.3-1.4,47-25.1,73.2-26.1c5.5-0.2,11.4,0.8,15.1,4.7
		c2.9,3,4,7.2,6.9,10.2c8.3,8.6,22.8,1.3,34.8-1.3c11.5-2.5,23.5,0.2,35.3-0.4c11.8-0.6,25.1-6.5,27.1-17.7c0.6-3.1,0.2-6.4,1.2-9.4
		c1.8-5,7-7.9,11.2-11.2c13.4-10.6,18.9-28.6,16.6-45.1c-2.3-16.5-11.4-31.5-22.8-44.1c-26.7-29.7-67.1-47.6-108-47.9
		c-22.4-0.2-45.5,4.5-66.6-2.6c-11-3.8-20.6-10.5-30.8-16C531,18.1,508,12.2,484.9,12c-12.3-0.1-25.1,1.5-35.2,8.2
		c-6.3,4.2-11.3,10.2-18.1,13.6c-17.6,8.9-38.2-2.2-57.6-6.3c-24.7-5.2-51.8,2.1-70,18.9c-10.1,9.3-19.6,22.2-33.6,21.9
		c-8.4-0.2-15.8-5.4-23.9-7.8c-15.2-4.4-31.5,1.9-45.3,9.5c-31.9,17.7-59,43.5-77.6,74c-7.2,11.8-13.3,25-12.2,38.7
		c1,11.9,7.2,22.7,13.4,33c14.2,24,21.1,58,45,74.3c18.2,12.4,42.3,25.8,63.3,32.8C243.7,326.3,255.4,320.6,262.8,312.7z"/>
	<path d="M765.8,244c-8.7-2.9-14.1-6.5-16.8-11c-6,7.1-16.3,10.9-25.6,11.4c-4.8,0.3-9.6,0-14.3-0.3c-7.2-0.4-13.9-0.8-20.5,0.6
		c-2.6,0.6-5.3,1.4-8,2.2c-10.4,3.1-22.1,6.6-30.1-1.9c-1.8-1.9-2.9-4-4-6c-0.9-1.7-1.8-3.3-2.9-4.5c-3.3-3.5-9.2-3.8-12.4-3.7
		c-12.4,0.5-23.6,6.6-35.4,13c-11.8,6.4-24,13.1-37.8,13.9c-10,0.6-19.8-2.1-29.3-4.7c-11.2-3.1-21.9-5.9-32.3-3.6
		c-2.6,0.6-5.2,1.5-8,2.5c-6.7,2.4-13.7,4.8-21,2.7c-3-0.9-5.7-2.4-8.4-3.9c-5.1-2.8-8.4-4.4-11.1-2.8c-1.4,0.8-2.4,2.5-3.5,4.3
		l-0.5,0.8c-11.9,18.8-35.7,29.1-57.8,25.1c-6.2-1.1-11.2-3.1-15.2-6.1c-2.8-2.1-5.1-4.7-7.3-7.2c-1.8-2-3.5-4-5.4-5.6
		c-3.5-2.9-8.9-4.5-11.9-2c-1,0.9-1.8,2.3-2.7,3.8c-0.4,0.8-0.9,1.6-1.4,2.4c-4.9,7.6-13,11.2-20.9,14.6c-1.6,0.7-3.2,1.4-4.8,2.1
		c-13.2,6.2-24.4,15.7-32.6,27.6c-2.3,3.3-4.3,6.8-6.4,10.3c-3.5,6-7.2,12.2-12.1,17.6c-5.8,6.4-15.4,12.7-25.6,12.7
		c-2.6,0-5.2-0.4-7.8-1.3c-16.7-5.7-37.3-16.3-56.5-29c5.8,14.2,7.8,29.2,7.7,46.3c-0.8,168.4-0.7,336.7-0.2,505.1
		c0.2,64.5,25.1,99.2,86.9,112.2c64.3,13.5,129.8,21.4,186.9,30.4c56.6-7,103.5-14,150.6-18.3c88.3-8,142.4-50.4,135.2-144.8
		c-1.2-16,6.5-38.2,18.1-48.8C848,720,892.5,620.4,909,504.6C925.1,391.6,889.3,284.9,765.8,244z M358.4,599.1
		c0,78.8,0,157.7,0,236.5c0,21.7-0.5,45.1-29.6,45.7c-30.5,0.7-33.4-22.5-33.4-46.2c0-158.8,0-317.6,0-476.5c0-5.8-1.7-13.6,1.3-17
		c10.5-11.9,21.4-29.2,34.5-31.6c22.6-4.2,27.1,16.6,27.1,35.2c0.3,58,0.1,115.9,0.1,173.9C358.4,545.8,358.4,572.5,358.4,599.1z
		 M495.3,610.6c0.1,80.1,0,160.2,0.1,240.4c0,22-0.7,44.7-30,45.5c-30.7,0.8-34-22.2-34-45.9c0-159.1-0.1-318.2,0-477.3
		c0-8-1.1-18.9,3.4-23.5c10.2-10.6,23-23.3,35.9-24.7c7-0.7,22.7,19.7,23.3,31.3c2.7,48.6,1.1,97.5,1.2,146.2
		C495.3,538.6,495.3,574.6,495.3,610.6z M601.4,881.3c-30.1,0.7-34-22.3-34-46.1c0-159.2,0-318.3-0.1-477.5c0-2.3-0.1-4.7,0.1-7
		c2.6-22.2,8.8-43.1,36.1-42.3c27.3,0.8,28.6,22.5,28.6,43.1c0.1,81.3,0,162.7,0,244c0,80.2-0.1,160.3,0,240.5
		C632.3,858.4,629.6,880.6,601.4,881.3z M756.2,706.3c-1.1,1.4-4.3,1-10.7,2.4c0-132.6,0-264.2,0-402.2
		c62.7,22.8,96.6,62.7,104.2,121.4C863.6,535.1,822.1,625.1,756.2,706.3z"/>
</g>
</svg>
