<?xml version="1.0" encoding="utf-8"?>
<!-- Generator: Adobe Illustrator 22.1.0, SVG Export Plug-In . SVG Version: 6.00 Build 0)  -->
<svg version="1.1" id="blitz-coin" xmlns="http://www.w3.org/2000/svg" xmlns:xlink="http://www.w3.org/1999/xlink" x="0px" y="0px"
	 viewBox="0 0 1024 1024" style="enable-background:new 0 0 1024 1024;" xml:space="preserve">
<g>
	<path d="M510.2,12C236.7,12.2,13.8,236.7,13.9,512.1c0,276.1,222.9,499.8,498.2,499.9c275.8,0.1,498.4-222.8,498.4-499.2
		C1010.4,234,788.5,11.8,510.2,12z M514,941.7c-236.3,0.1-427.2-191-427.7-428.2C85.9,277.2,277.3,85,513.5,84.8
		c236.2-0.2,427.3,191.3,427.6,428.3C941.3,749.9,750.3,941.6,514,941.7z"/>
	<path d="M751,260.6c-79.4-60.2-170.3-80.2-268.2-74.4c-95.8,5.7-178.3,41.5-245.6,110c-72.6,73.9-93,180.3-52.5,272.9
		c27.8,63.5,76.6,107.5,135.9,140.7c11.5,6.4,15.7,13.5,15.1,26.4c-1.1,23.7-0.6,47.4-0.2,71.1c0.5,27.9,10.1,37.3,37.7,37.3
		c46.8,0,93.7,0,140.5,0c48,0,96.1,0.1,144.1,0c25.2,0,35.4-10.1,35.7-35.6c0.3-25.5,0.5-51-0.2-76.5c-0.3-10.1,2.8-15.9,11.9-21
		c15.5-8.6,30.7-18.1,44.8-28.9c70.8-53.9,114.5-122.8,113.7-214.5C863,379.5,819.8,312.8,751,260.6z M359.5,636.8
		c-42.8-0.3-77.4-35.3-77.4-78.5c-0.1-42.7,34.9-77.3,78.2-77.3c44.4,0,77.8,33.2,77.9,77.2C438.1,602.7,403.8,637.1,359.5,636.8z
		 M566.3,732.6c-8.4,9.6-18.7,13.6-29.8,6.3c-9.7-6.3-18-14.8-28-23.3c-5.5,5.9-10.7,12.3-16.8,17.8c-12.2,11-24.4,9.8-36.2-1.3
		c-11.8-11.1-6.6-20.5,1.8-30.7c11.3-13.7,21.5-28.2,32.5-42.2c13.2-16.7,26.1-17.2,39.2-1.2c12.8,15.5,24.8,31.7,37.3,47.4
		C573.6,714.7,574.3,723.6,566.3,732.6z M663.4,667.7c-60.1-0.2-107.9-48.8-107.6-109.5c0.2-60.7,47.9-107.9,109-107.7
		c60.6,0.1,109,48.3,108.7,108.3C773.3,619.9,724.6,668,663.4,667.7z"/>
</g>
</svg>
