<?xml version="1.0" encoding="utf-8"?>
<!-- Generator: Adobe Illustrator 22.1.0, SVG Export Plug-In . SVG Version: 6.00 Build 0)  -->
<svg version="1.1" id="bot-lane" xmlns="http://www.w3.org/2000/svg" xmlns:xlink="http://www.w3.org/1999/xlink" x="0px" y="0px"
	 viewBox="0 0 1024 1024" style="enable-background:new 0 0 1024 1024;" xml:space="preserve">
<style type="text/css">
	.st0{fill:#010101;}
</style>
<g>
	<path class="st0" d="M297,849.9c6.8-41.8-18-76.7-29.9-90.7l476-467.1c1.7-1.7,3.4-3.6,5.2-5.5c1.6-1.8,3.3-3.6,4.9-5.2
		c22.7,24.2,55.7,33.8,74.1,37.5c29.6,5.9,36,0.6,38.4-1.3c2.9-2.3,4.5-5.6,4.5-9.3c0-6.7-0.1-13.4-0.2-20.2
		c-0.1-6-0.2-12.1-0.2-18.1V29.5c0-4.8-3.9-8.7-8.7-8.7H432.2l-10,0c-23.1-0.1-46.9-0.2-70.4,4.6c-32,6.5-52.6,22-73.8,43.2
		c-26.4,26.5-53.3,54.3-79.3,81.3c-12.4,12.9-24.9,25.7-37.3,38.5c-13.7,14.1-28.5,28.1-42.8,41.6c-26,24.6-52.8,49.9-75.4,77.9
		c-29.6,36.7-31.3,99-31.4,101.8v438.9c0,4.8,3.9,8.7,8.7,8.7h267.6C292.7,857.2,296.3,854.1,297,849.9z M280.6,839.7H29.5l0-430
		c0-0.6,1.6-58.9,27.5-91c21.8-27,48.2-52,73.8-76.1c14.4-13.7,29.4-27.8,43.3-42.1c12.4-12.8,24.9-25.7,37.3-38.6
		c26-26.9,52.8-54.6,79.1-81.1c19.5-19.5,37.1-32.8,64.9-38.4c21.7-4.4,44.6-4.3,66.8-4.2l430.2,0v231.5c0,6.1,0.1,12.3,0.2,18.4
		c0.1,5.2,0.1,10.5,0.2,15.7c-3.8,0.3-11.2-0.2-22-2.3c-29.1-5.7-53.7-18.7-67.8-35.7c-1-2-4.1-6.5-11.1-4.9
		c-2.4,0.5-3.9,1.8-4.8,2.8c-4.5,3.1-8.3,7.3-11.7,11.1c-1.5,1.7-3,3.3-4.4,4.7l-482.1,473c-1.7,1.7-2.6,3.9-2.6,6.3
		c0,2.4,1,4.6,2.6,6.3C249.2,765.5,282.8,798.8,280.6,839.7z"/>
	<path class="st0" d="M714.2,220.6c-0.1-2.4-1.2-4.7-3-6.3c-0.4-0.4-44-38.6-35-93.7c0.7-4.2-1.8-8.3-5.8-9.7
		c-1.9-0.6-3.8-0.6-5.6,0c-1.7,0.1-5.4-0.2-11-0.6c-1.4-0.1-2.4-0.2-2.8-0.2l-71.7-1.8c-49.4-1.2-97.9-2.4-149.1-3.6
		c-4.2-0.1-8.5-0.3-12.8-0.4c-30.5-1.2-65-2.5-91.2,22.7c-20.3,19.5-40,40.3-59,60.4c-13.1,13.9-26.7,28.3-40.3,42
		c-13.6,13.7-28.2,27.2-42.2,40.3c-24.8,23.1-50.5,46.9-72.6,73.3c-13.5,16.1-13.3,33.7-13.1,50.7l0,273.3c0,4.5,3.4,8.3,7.9,8.7
		c0.5,0.1,50.8,5.5,90.9,47.3c1.6,1.7,3.9,2.7,6.2,2.7c0,0,0.1,0,0.1,0c2.3,0,4.5-0.9,6.2-2.5l501.4-496
		C713.3,225.4,714.3,223,714.2,220.6z M204.1,704.6c-33.7-31.7-71.5-42-87.6-45.1V399.3l0-5.8c-0.1-15.1-0.3-28.1,9.1-39.3
		c21.3-25.6,46.6-49,71.1-71.7c14.2-13.2,28.9-26.9,42.8-40.8c13.7-13.9,27.4-28.3,40.6-42.3c18.9-20,38.4-40.7,58.4-59.8
		c20.9-20,48.8-18.9,78.4-17.8c4.4,0.2,8.7,0.3,13.1,0.4c51.2,1.2,99.7,2.4,149.1,3.6l71.6,1.8l1.9,0.1c1.9,0.2,3.7,0.3,5.3,0.4
		c-3.2,45.6,22.6,79.2,35.3,92.8L204.1,704.6z"/>
	<path class="st0" d="M898.2,57.6l-6.7,527.2l-294,298H26.1l115.1,120.4h519.2c0,0,48.2-16.1,58.9-32.1l251.2-252.5
		c0,0,42.8-30.8,41.5-88.3l0-442.9L898.2,57.6z"/>
</g>
</svg>
