<?xml version="1.0" encoding="utf-8"?>
<!-- Generator: Adobe Illustrator 22.1.0, SVG Export Plug-In . SVG Version: 6.00 Build 0)  -->
<svg version="1.1" id="calendar-check" xmlns="http://www.w3.org/2000/svg" xmlns:xlink="http://www.w3.org/1999/xlink" x="0px"
	 y="0px" viewBox="0 0 1024 1024" style="enable-background:new 0 0 1024 1024;" xml:space="preserve">
<style type="text/css">
	.st0{fill-rule:evenodd;clip-rule:evenodd;}
</style>
<g id="Calendar">
	<g>
		<path class="st0" d="M295.1,12h-38.3v158.1h38.3V12z M767.2,12h-38.3v158.1h38.3V12z M914.4,122.1h-77.8
			c-15.3,0-27.7,12-27.7,26.7v34.6c0,14.7-12.5,26.7-27.7,26.7H715c-15.3,0-27.7-12-27.7-26.7v-34.6c0-14.7-12.5-26.7-27.7-26.7
			h-295c-15.3,0-27.7,12-27.7,26.7v34.6c0,14.7-12.5,26.7-27.7,26.7H243c-15.3,0-27.7-12-27.7-26.7v-34.6
			c0-14.7-12.5-26.7-27.8-26.7h-77.8c-15.3,0-27.7,12-27.7,26.7v836.6c0,14.7,12.5,26.7,27.7,26.7h804.7c15.3,0,27.7-12,27.7-26.7
			V148.8C942.1,134.1,929.6,122.1,914.4,122.1z M900.5,945.3c0,14.7-12.5,26.7-27.7,26.7H151.3c-15.3,0-27.7-12-27.7-26.7v-560
			c0-14.7,12.5-26.7,27.7-26.7h721.5c15.3,0,27.7,12,27.7,26.7V945.3z M831.1,398.7H192.9c-15.3,0-27.7,12-27.7,26.7v480
			c0,14.7,12.5,26.7,27.7,26.7h638.2c15.3,0,27.7-12,27.7-26.7v-480C858.9,410.7,846.4,398.7,831.1,398.7z M768.8,563.9L563.2,757.2
			c-10.9,10.3-28.7,27.1-39.5,37.5l-54.6,52.4c-10.8,10.4-28.4,10.4-39.2,0l-54.6-52.4c-10.8-10.4-28.5-27.3-39.2-37.7L255,679.1
			c-10.8-10.4-10.8-27.3,0-37.7l54.6-52.4c10.8-10.4,28.5-10.4,39.2,0l81.1,77.9c10.8,10.4,28.5,10.5,39.5,0.2L675,473.7
			c10.9-10.3,28.7-10.2,39.5,0.2l54.6,52.4C779.8,536.8,779.7,553.6,768.8,563.9z"/>
	</g>
</g>
</svg>
