<?xml version="1.0" encoding="utf-8"?>
<!-- Generator: Adobe Illustrator 22.1.0, SVG Export Plug-In . SVG Version: 6.00 Build 0)  -->
<svg version="1.1" id="caution" xmlns="http://www.w3.org/2000/svg" xmlns:xlink="http://www.w3.org/1999/xlink" x="0px" y="0px"
	 viewBox="0 0 1024 1024" style="enable-background:new 0 0 1024 1024;" xml:space="preserve">
<path d="M762,512L512,118.5L262,512L12,905.5h500h500L762,512z M564.9,835.4H456.4V726.9h108.5V835.4z M601.9,537.5
	c-2.7,20-7.3,39.7-13,59c-1.7,5.7-14.8,55.1-18.4,55.1c0,0-117.7,0-117.7,0c-17.3-48.1-31.9-94.6-33.7-146.1
	c-0.9-25-1.4-52.4,6.1-76.5c8.5-27.3,26.6-59.2,40.3-70.9c11.8-11.8,28.8-22.1,45.8-22.7c25.9-0.9,53.3,25.4,66.2,46
	c9.2,14.7,15.7,31.1,20.8,47.6C608.6,462.2,606.4,503.3,601.9,537.5z"/>
</svg>
