<?xml version="1.0" encoding="utf-8"?>
<!-- Generator: Adobe Illustrator 22.1.0, SVG Export Plug-In . SVG Version: 6.00 Build 0)  -->
<svg version="1.1" id="coin" xmlns="http://www.w3.org/2000/svg" xmlns:xlink="http://www.w3.org/1999/xlink" x="0px" y="0px"
	 viewBox="0 0 1024 1024" style="enable-background:new 0 0 1024 1024;" xml:space="preserve">
<g>
	<ellipse cx="621.9" cy="509.1" rx="256.9" ry="497.1"/>
	<path d="M313.6,509.1c0-255.9,99.9-466.5,228.4-494c-9.4-2-18.9-3.1-28.5-3.1c-1.4,0-110,0-111.4,0
		c-141.9,0-256.9,222.6-256.9,497.1s115,497.1,256.9,497.1c1.4,0,107.1-0.1,107.1-0.2c0,0,2.9,0.2,4.4,0.2c9.6,0,19.1-1.1,28.5-3.1
		C413.6,975.7,313.6,765,313.6,509.1z"/>
</g>
</svg>
