<?xml version="1.0" encoding="utf-8"?>
<!-- Generator: Adobe Illustrator 22.1.0, SVG Export Plug-In . SVG Version: 6.00 Build 0)  -->
<svg version="1.1" id="crystal" xmlns="http://www.w3.org/2000/svg" xmlns:xlink="http://www.w3.org/1999/xlink" x="0px" y="0px"
	 viewBox="0 0 1024 1024" style="enable-background:new 0 0 1024 1024;" xml:space="preserve">
<g>
	<path d="M399.5,1001c-19.9,1.4-31-7.8-41.1-23c-60-90-121.4-179.1-181.3-269.2c-9.1-13.7-15.6-30.2-18.9-46.3
		c-8.9-43.4-15.3-87.2-23.2-133.5c21.8,0,42.1,0,62.3,0c25.6,0,51.3,0.2,76.9-0.1c8.4-0.1,13.2,1.6,15.5,11.2
		c36.1,151.6,72.6,303.1,109,454.6C399.1,996.5,399.1,998.2,399.5,1001z"/>
	<path d="M471.6,894.4c11.6-176.3,23.3-352.6,35.1-532.1c61.2,12.2,120.9,24.2,183.8,36.7C618.3,565.4,546.6,730.4,475,895.4
		C473.9,895,472.7,894.7,471.6,894.4z"/>
	<path d="M694.8,374.9c-61.5-12.4-120.4-24.2-181.3-36.5c54-109.7,107.3-218,160.7-326.4c1.2,0.2,2.4,0.3,3.5,0.5
		C683.4,132.3,689,252,694.8,374.9z"/>
	<path d="M423.5,991.4c-29.1-121.2-58-241-86.8-360.9c-8.4-34.8-16.8-69.6-25-104.5c-1.3-5.5-2.9-11.4-2.1-16.7
		c5.7-40.3,12-80.6,18.7-125.3c4,8.1,6.4,12.2,8.2,16.6c24.9,59.8,50.2,119.5,74.2,179.6c4.9,12.3,6.4,26.4,7.2,39.9
		c7.1,110.2,13.5,220.4,20.4,330.6C439.4,965.8,440.2,980.3,423.5,991.4z"/>
	<path d="M807,371.6C783.7,438,761.9,500,740.1,562.1c-8.5,24.1-11.6,53.2-27.5,70.6c-15.9,17.4-44,24.8-68,33.2
		c-27.5,9.7-46.7,25.8-57.6,52.9c-4.8,11.9-12.5,22.7-22,32.6c2-5,3.8-10,5.9-14.9c46.5-107.3,93.2-214.6,139.5-322.1
		c4.4-10.1,10.1-16.4,21.2-19.5C755.5,388.4,779,380.4,807,371.6z"/>
	<path d="M489.5,998c0-11.4-2.9-20.9,0.4-27c45.4-83.3,91.7-166.1,138.9-251.2c35.8,24.5,70.7,48.3,107.2,73.3
		C654,861.2,573.2,928.3,489.5,998z"/>
	<path d="M849.7,790.8c-23,29.8-43.5,56.8-64.5,83.4c-2.6,3.3-7.5,5-11.5,7.1c-80.6,42-161.2,84.1-242.1,125.7
		c-6.5,3.4-14.8,3.4-22.2,5c-0.6-1.7-1.1-3.3-1.7-5c36.2-30.1,72.4-60.3,108.7-90.4c42.9-35.6,85.4-71.7,128.9-106.5
		c9-7.2,21.6-11.9,33.2-13.7C800.6,793,823.3,792.7,849.7,790.8z"/>
	<path d="M413.8,303.5c23.2,16.8,44,31.5,64.3,46.8c2.5,1.9,4.2,6.9,4,10.3c-6.7,102.7-13.7,205.4-20.7,308.1c0,0.3-0.7,0.6-3.1,2.4
		c-1.7-24.7-2.8-48-5-71.3c-1-10-3-20.2-6.7-29.5c-15.1-38-31.4-75.5-46.4-113.6c-3.1-8-4.2-17.6-3.1-26.2
		C401.8,389.4,407.7,348.4,413.8,303.5z"/>
	<path d="M810.8,344.2c-31.7,10.1-60.7,19.3-91.3,29c-5.4-113.9-10.7-225.7-16-337.5c0.9-0.3,1.8-0.6,2.7-0.9
		C740.8,137.3,775.5,239.7,810.8,344.2z"/>
	<path d="M634.2,37.3c-47.5,96.4-95,192.9-143.5,291.5c-22.9-16.7-44.3-32.2-67-48.7c69.8-82.3,138.6-163.5,207.5-244.7
		C632.2,36,633.2,36.6,634.2,37.3z"/>
	<path d="M831.5,623.4c-28.9,54.9-55.2,105-82.2,156.2c-35.7-24.4-69.8-47.8-105.9-72.5C706,679.3,766.3,652.4,831.5,623.4z"/>
	<path d="M185.1,345.3c31.1,54.5,60.3,105.4,90.4,158.1c-46.8,0-90.9,0-137.4,0C153.5,451.7,168.6,400.9,185.1,345.3z"/>
	<path d="M308.8,347.9c-6.3,42.1-12.5,82.9-18.6,123.6c-1.3,0.4-2.5,0.7-3.8,1.1c-26.2-45.8-52.4-91.6-80.7-140.9
		C242,337.4,274.7,342.5,308.8,347.9z"/>
	<path d="M859.7,771.2c-29.5,2.2-57.1,4.3-88.4,6.7c27-51.4,52.6-100.1,78.2-148.8c1.2,0.3,2.4,0.6,3.6,0.9
		C855.2,676.2,857.4,722.4,859.7,771.2z"/>
</g>
</svg>
