<?xml version="1.0" encoding="utf-8"?>
<!-- Generator: Adobe Illustrator 22.1.0, SVG Export Plug-In . SVG Version: 6.00 Build 0)  -->
<svg version="1.1" id="en-route-outline" xmlns="http://www.w3.org/2000/svg" xmlns:xlink="http://www.w3.org/1999/xlink" x="0px"
	 y="0px" viewBox="0 0 1024 1024" style="enable-background:new 0 0 1024 1024;" xml:space="preserve">
<path d="M993.8,620.4c-19.1-35.2-50.8-60.8-89.1-72.1c-9-2.7-18.1-4.5-27.2-5.4c10.5-14.6,18.5-31.3,23.2-49.6
	c10-38.7,4.4-79-15.9-113.5c-20.3-34.5-52.8-59-91.5-69.1l-178.9-46.4c4.4-15.9,6.8-32.6,6.8-49.9c0-102.9-83.8-186.7-186.7-186.7
	c-102.9,0-186.7,83.8-186.7,186.7c0,16.9,2.3,33.4,6.6,49c-25.8-20.4-57.3-31.9-90.7-32.3c-40.3-0.4-77.8,14.5-106.5,42.4
	S12.5,338.7,12,378.7c-0.5,40,14.5,77.8,42.4,106.5l123.1,126.5c29.1,29.9,70.4,46.4,112,45.2l-86.3,79.7
	c-29.4,27.1-46.4,64.1-48,104.1c-1.6,40,12.5,78.2,39.6,107.5c28.3,30.6,68.4,48.2,110,48.2c37.8,0,73.9-14.1,101.6-39.7
	l129.2-119.3l44.9,49c46.6,50.8,121.4,63.2,181.9,30.3l171.4-93.2C1006.3,784,1033.3,692.9,993.8,620.4z M434.6,124.1
	c49.8,0,90.2,40.4,90.2,90.2s-40.4,90.2-90.2,90.2s-90.2-40.4-90.2-90.2S384.8,124.1,434.6,124.1z M887.7,738.7l-171.4,93.2
	c-21.5,11.7-48.2,7.2-64.7-10.8L541.3,700.7L341,885.7c-10.2,9.5-23.2,14.1-36.1,14.1c-14.3,0-28.6-5.8-39.1-17.1
	c-20-21.6-18.6-55.3,3-75.2l196.6-181.6l-27.2-159.2L315,551.1c-9.1,6.3-19.6,9.3-30.1,9.3c-14,0-27.8-5.5-38.2-16.1L123.6,417.9
	c-20.5-21.1-20.1-54.8,1-75.3c21.1-20.5,54.8-20.1,75.3,1l91.9,94.4l129.6-88.8c6.8-4.7,14.6-7.7,22.8-8.8l41.4-5.7
	c6.9-0.9,13.9-0.5,20.6,1.2l262.9,68.2c28.5,7.4,45.6,36.4,38.2,64.9c-7.4,28.5-36.4,45.5-64.9,38.2l-155.7-40.4L611.6,613
	c0.4,2.6,0.7,5.2,0.9,7.8l89.5,97.6l134.8-73.3c25.8-14.1,58.2-4.5,72.2,21.3C923.1,692.3,913.5,724.6,887.7,738.7z"/>
</svg>
