<?xml version="1.0" encoding="utf-8"?>
<!-- Generator: Adobe Illustrator 22.1.0, SVG Export Plug-In . SVG Version: 6.00 Build 0)  -->
<svg version="1.1" id="glory-coin" xmlns="http://www.w3.org/2000/svg" xmlns:xlink="http://www.w3.org/1999/xlink" x="0px" y="0px"
	 viewBox="0 0 1024 1024" style="enable-background:new 0 0 1024 1024;" xml:space="preserve">
<g>
	<path d="M512,12C235.9,12,12,235.9,12,512c0,276.1,223.9,500,500,500c276.1,0,500-223.9,500-500C1012,235.9,788.1,12,512,12z
		 M512,946C272.3,946,78,751.7,78,512C78,272.3,272.3,78,512,78c239.7,0,434,194.3,434,434C946,751.7,751.7,946,512,946z"/>
	<path d="M658.4,382.5L631.2,409c-21.5-27.3-52-47-87.1-54.6V316V114.1h-64.2V316v38.5c-35.1,7.6-65.6,27.3-87.1,54.6l-27.2-26.5
		l-133-129.3c0,0-7.5,41.7,0,59.9L350.3,404c-2.9,4.7-5.5,9.5-8,14.5L246.5,351c0,0-4.3,25.4,4.3,41.5l81,51.7
		c-1.5,4.5-2.8,9.1-3.9,13.8L260.4,425c0,0,2.1,29.5,10.7,36l52.4,22.7c-0.6,5.8-0.9,11.6-0.9,17.5l-42.9-15.6
		c0,0-4.5,36.3,60.7,97.4c12.4,11.6,27.3,24.2,45.3,37.5l20.9-8.8c19.4,18.8,43.8,32.4,71.1,38.7l-2,9.7h-11.8l2.9,26.6L485.2,856
		l26.8,49.2l26.8-49.2l18.5-169.3l2.9-26.6h-11.8l-2-9.7c27.2-6.3,51.6-19.9,71.1-38.7l20.9,8.8c18-13.4,32.9-25.9,45.3-37.5
		c65.2-61.1,60.7-97.4,60.7-97.4l-42.9,15.6c0-5.9-0.4-11.7-0.9-17.5l52.4-22.7c8.6-6.4,10.7-36,10.7-36l-67.5,32.9
		c-1.1-4.7-2.4-9.2-3.9-13.8l81-51.7c8.6-16.1,4.3-41.5,4.3-41.5l-95.8,67.6c-2.5-5-5.1-9.8-8-14.5l117.7-90.8
		c7.5-18.2,0-59.9,0-59.9L658.4,382.5z M512,580.4c-42.9,0-77.7-34.8-77.7-77.7S469.1,425,512,425c42.9,0,77.7,34.8,77.7,77.7
		S554.9,580.4,512,580.4z"/>
</g>
</svg>
