<?xml version="1.0" encoding="utf-8"?>
<!-- Generator: Adobe Illustrator 22.1.0, SVG Export Plug-In . SVG Version: 6.00 Build 0)  -->
<svg version="1.1" id="happy-1" xmlns="http://www.w3.org/2000/svg" xmlns:xlink="http://www.w3.org/1999/xlink" x="0px" y="0px"
	 viewBox="0 0 1024 1024" style="enable-background:new 0 0 1024 1024;" xml:space="preserve">
<path d="M706.5,53.7c-39.4-16.3-77.8-28.6-117.9-35.5c-22.4-3.9-45.4-6-69.3-6.2c-64.1-0.5-128,11.2-187.7,34.5
	C93.1,139.7-34.1,388.9,27.4,640.8c57.2,234.3,296.1,396,544,368.1c219.2-24.7,400.9-202.5,433.5-424.2
	C1037.9,360.8,913.9,139.4,706.5,53.7z M294.6,522.7c-32.5-12.6-50.8,0.7-70.1,23.5c-20,23.7-40.3,19.7-55.2-8.6
	c-27.6-52.4,14.4-118.3,75.1-117.5c41.1,0.5,77.4,31.3,81.3,70.4C327.9,512.5,320.7,532.8,294.6,522.7z M700.3,666.4
	c-46.1,36.9-98.7,60.9-158.8,64.9c-5.9,0.4-11.9,0.1-17.8,0.1c-59.9-1.2-114-20.9-163.5-53.1c-17.3-11.2-39.7-24.7-23.5-50.9
	c15.7-25.5,35.4-9.8,52.3,0c96.5,55.3,192,63,287.9-2.3c6.1-4.1,22.6-3.3,28.9,0.4C716.1,631.4,707.8,660.4,700.3,666.4z
	 M855.7,537.7c-14.9,28.2-35.1,32.3-55.2,8.6c-19.3-22.8-37.6-36.1-70.1-23.5c-26.1,10.1-33.2-10.2-31.1-32.2
	c3.9-39,40.2-69.9,81.3-70.4C841.2,419.5,883.3,485.3,855.7,537.7z"/>
</svg>
