<?xml version="1.0" encoding="utf-8"?>
<!-- Generator: Adobe Illustrator 22.1.0, SVG Export Plug-In . SVG Version: 6.00 Build 0)  -->
<svg version="1.1" id="inventory" xmlns="http://www.w3.org/2000/svg" xmlns:xlink="http://www.w3.org/1999/xlink" x="0px" y="0px"
	 viewBox="0 0 1024 1024" style="enable-background:new 0 0 1024 1024;" xml:space="preserve">
<g>
	<rect x="140.3" y="12" width="182.1" height="133.1"/>
	<rect x="700.5" y="12" width="182.1" height="133.1"/>
	<path d="M914.8,456.2C760,605,533.4,632.4,330,585.7c-24.4-5.6-47.7-13.4-69.6-24.1C172.2,518.4,91.6,439.6,37,349.3
		c0,69.1,0,138.2,0,207.2c0,54.9,0,109.9,0,164.8c0,42.2-12.4,107.3,17.2,139.9c24.2,26.7,48.3,53.4,72.3,80.2
		c12.7,14.2,25.5,28.4,38.2,42.6c10.1,11.2,17.5,25.8,34,25.7c133-0.6,266-0.2,399-0.2c42.6,0,85.2,0,127.8,0c22.4,0,44.7,0,67.1,0
		c15,0,43.1,5.3,56.7-1.8c3-1.6,5.5-4,7.9-6.4c18.4-18.5,32.7-40.3,50-59.8c26.1-29.3,54.8-60.9,69.7-97.8
		c21.8-54.3,9.1-128.9,9.1-186.9c0-95.7,0-191.4,0-287.2C965.8,401.2,941.8,430.3,914.8,456.2z M725,845H297.9V690.9H725V845z"/>
	<path d="M978.9,185.7c-0.3,0-934.9,0-934.9,0c3.5,14.5,7.9,29.1,13.2,43.6C97.8,340.8,189.1,447.4,292.4,498
		c19.1,9.3,39.5,16.1,60.8,21c177.4,40.8,375.1,16.9,510.2-112.9c43.3-41.7,78-92.6,98.5-149.3c0.5-1.5,3.8-13.6,7.4-27.5
		C974.4,209.3,980.2,185.7,978.9,185.7z"/>
</g>
</svg>
