<?xml version="1.0" encoding="utf-8"?>
<!-- Generator: Adobe Illustrator 22.1.0, SVG Export Plug-In . SVG Version: 6.00 Build 0)  -->
<svg version="1.1" id="market" xmlns="http://www.w3.org/2000/svg" xmlns:xlink="http://www.w3.org/1999/xlink" x="0px" y="0px"
	 viewBox="0 0 1024 1024" style="enable-background:new 0 0 1024 1024;" xml:space="preserve">
<g>
	<path d="M369.4,522.3l140.5,140.5l140.5-140.5L509.8,381.9L369.4,522.3z M509.8,601.5l-79.2-79.2l79.2-79.2l79.2,79.2L509.8,601.5z
		"/>
	<path d="M579.9,687.6v266.5c-31,25.8-70.1,22.7-70.1,22.7s-39.1,3.1-70.1-22.7V687.6L327.1,578.1H56.4v144.6
		c0,0,145.7,89.9,191.1,82.6l2.1,190.1l260.2,4.1l260.2-4.1l2.1-190.1c45.5,7.2,191.1-82.6,191.1-82.6V578.1H692.5L579.9,687.6z"/>
	<path d="M62.7,973.8c0,0,11.4,24.8,35.1,25.8h112.6V848.2c-46.7-12.9-118.2-53.5-147.7-70.9V973.8z"/>
	<path d="M809.2,999.6h112.6c23.8-1,35.1-25.8,35.1-25.8V777.3c-29.5,17.4-101,58-147.7,70.9V999.6z"/>
	<path d="M338.5,121.2v330.9l171.4-173.6l171.4,173.6V121.2c-25.7,4.7-92.7,8.1-171.4,8.1S364.2,125.9,338.5,121.2z"/>
	<path d="M223.8,452.1h71.3l-35.1-338.8c-15.5,0-104.3-65-104.3-65l68.2,69.2V452.1z"/>
	<path d="M175.2,120.5c0,0-78.5-51.7-102.3-96.1H12l3.1,427.7h160.1V120.5z"/>
	<path d="M799.2,117.4l68.2-69.2c0,0-88.8,65-104.3,65l-35.1,338.8h71.3V117.4z"/>
	<path d="M950.1,24.4c-23.8,44.4-102.3,96.1-102.3,96.1v331.6h160.1l3.1-427.7H950.1z"/>
</g>
</svg>
