<?xml version="1.0" encoding="utf-8"?>
<!-- Generator: Adobe Illustrator 22.1.0, SVG Export Plug-In . SVG Version: 6.00 Build 0)  -->
<svg version="1.1" id="mid-lane" xmlns="http://www.w3.org/2000/svg" xmlns:xlink="http://www.w3.org/1999/xlink" x="0px" y="0px"
	 viewBox="0 0 1024 1024" style="enable-background:new 0 0 1024 1024;" xml:space="preserve">
<style type="text/css">
	.st0{fill:#010101;}
</style>
<g>
	<path class="st0" d="M1005.3,266c-3.2-1.4-6.9-0.7-9.4,1.7l-72.6,69.9c-16.1,15.5-16.1,15.5-16.1,19.2c0,0,0,0.1,0,0.1
		c0.2,20.2,0.3,40.7,0.5,61.2c0.1,17.1,0.2,34.3,0.4,51.3c0.2,18.5,0.8,37.2,1.3,55.3c0.6,19,1.2,38.6,1.4,57.8
		c0.3,42.7-7.9,72.8-25.8,94.8c-7.6,9.4-16.5,17.5-25.8,26.1c-5.3,4.8-10.7,9.8-15.9,15.1L732.5,829.9c-5.7,5.8-11.4,12-16.8,18
		c-22.7,25.1-44.1,48.8-75.9,48.8c-0.4,0-0.8,0-1.2,0c-51.9-0.9-104.9-2.6-156.1-4.2c-37.5-1.2-76.2-2.4-114.3-3.3
		c-2.3-0.1-4.6,0.8-6.3,2.5l-89.4,88c-2.5,2.5-3.3,6.2-1.9,9.4c1.3,3.3,4.5,5.4,8,5.4l174.7,0.2c34.6,0,71.6,0.2,120,0.6
		c20,0.2,40,0.3,60.1,0.5c2.4,0,4.9,0,7.5,0c15,0,32.4-0.7,48.4-6.7c14.9-5.6,29.7-15.3,45.2-29.8c24-22.5,47.1-46.6,69.4-69.9
		c16-16.7,32.5-34,49.3-50.5l98.6-99.7c2.9-2.9,5.9-5.8,9-8.7c6.4-6.1,13.1-12.4,18.8-19.4c29.3-36.3,31-98,31-100.8V274
		C1010.5,270.5,1008.5,267.4,1005.3,266z M966,700.2c-5,6.1-11.2,12-17.2,17.8c-3.2,3-6.4,6-9.4,9.1l-98.5,99.6
		c-16.8,16.6-33.5,34-49.6,50.8c-22.2,23.2-45.1,47.1-68.8,69.3c-13.8,12.9-26.7,21.5-39.4,26.2c-15.7,5.8-33.8,5.7-49.7,5.5
		c-20-0.2-40-0.4-60.1-0.5c-48.5-0.4-85.5-0.6-120.2-0.6l-153.6-0.2l71.7-70.6c36.9,0.9,74.3,2.1,110.5,3.2
		c51.3,1.6,104.3,3.3,156.4,4.2c40.3,0.6,66.9-28.6,90.2-54.5c5.6-6.2,10.8-12,16.3-17.5l110.7-111.5c4.9-4.9,10.2-9.8,15.3-14.5
		c9.4-8.6,19.1-17.6,27.5-27.9c27-33.2,29.9-76.3,29.7-105.8c-0.1-19.4-0.8-39.2-1.4-58.3c-0.6-18-1.2-36.6-1.3-54.9
		c-0.2-17-0.3-34.1-0.4-51.3c-0.1-19.3-0.2-38.5-0.4-57.6c10.3-9.9,47.7-45.9,68.7-66.1l0,315.8C993.2,610.7,991.7,668.4,966,700.2z
		"/>
	<path class="st0" d="M115.4,661.8c0-3.7,0-8.5,0-13.1l0-245.9l0-3.9c-0.1-20-0.1-29.1,13.1-42.9c6.3-6.6,12.9-13.1,19.3-19.5
		c3.5-3.5,7.1-7,10.6-10.5l78.7-79.3c9.4-9.5,19-18.9,28.5-28.3c18.9-18.7,38.5-38,57-57.8c28.7-30.6,49-33.4,88.5-32.5
		c22.5,0.5,45.1,1.1,67.6,1.6l170.8,4.1c2.3,0.1,4.6-0.8,6.3-2.5L745.2,43c2.5-2.5,3.3-6.2,1.9-9.5c-1.3-3.2-4.5-5.4-8-5.4H415.8
		c-49,0.2-99.8,0-136.4,41.7c-16.2,18.5-33.6,37.1-54.8,58.5L76.1,278.6c-3.5,3.5-7.1,7-10.8,10.4c-7.6,7.2-15.6,14.7-22.3,23
		c-29.3,36.3-31,98-31,100.8v331.9c0,3.5,2.1,6.6,5.3,8c1.1,0.5,2.2,0.7,3.4,0.7c2.2,0,4.4-0.8,6-2.4l86.1-82.9
		C114.4,666.4,115.4,664.2,115.4,661.8z M98,648.6c0,3.3,0,6.6,0,9.6l-68.7,66.2l0-311.4c0-0.6,1.6-58.3,27.2-90.1
		c6-7.4,13.5-14.5,20.7-21.4c3.8-3.6,7.6-7.2,11.2-10.8l148.5-150.2c21.4-21.7,39.1-40.5,55.5-59.3c31.1-35.5,75.3-35.8,122.2-35.8
		c0.4,0,0.8,0,1.2,0H718l-72,70.9L479,112.3c-22.5-0.6-45.1-1.1-67.6-1.6c-45.5-1-69.7,4-101.5,38c-18.3,19.5-37.7,38.7-56.5,57.3
		c-9.6,9.5-19.1,18.9-28.6,28.5L146,313.8c-3.5,3.5-7,7-10.5,10.4c-6.5,6.4-13.2,13.1-19.6,19.8C98,362.9,98,378,98.1,398.9l0,243.3
		L98,648.6z"/>
	<path class="st0" d="M860.2,348.5l22.9-22.5l1.9-1.9l84.1-82.8l0.4-0.4V69.6h-84.7c0,0-47.8,0-113,0l-89.6,88.3l-524,516.2
		l-18.9,18.6l-1.9,1.9l-84.1,82.9v102.4v73.3h84.3h108.1l89.4-88L860.2,348.5z"/>
</g>
</svg>
