<?xml version="1.0" encoding="utf-8"?>
<!-- Generator: Adobe Illustrator 22.1.0, SVG Export Plug-In . SVG Version: 6.00 Build 0)  -->
<svg version="1.1" id="mobility" xmlns="http://www.w3.org/2000/svg" xmlns:xlink="http://www.w3.org/1999/xlink" x="0px" y="0px"
	 viewBox="0 0 1024 1024" style="enable-background:new 0 0 1024 1024;" xml:space="preserve">
<g>
	<path d="M721.7,1010.6c-4.5,0-9.1-0.6-13.5,0.1c-35.7,6-64.9-10.6-93.1-28.2c-27.1-16.9-53.4-35.2-79.1-54.1
		c-25-18.3-36.5-45.2-46-74.2c-10-30.7-22.9-60.6-36.8-89.8c-7.4-15.5-21.1-24.9-40.5-19.2c-16.3,4.7-27.6-3.2-35.4-16.3
		c-16.4-27.5-33.1-54.8-47.8-83.1c-7.9-15.3-16.5-32.6-16.4-48.9c0-13.9,10.3-28.8,18.8-41.5c18.3-27.3,45.1-45.3,73.2-61.1
		c30.7-17.2,62.7-32.1,92.9-50.3c23.6-14.2,34.7-38.8,42.8-64.3c9.3-29.2,18-58.7,27.3-87.9c6.6-20.8,14.8-41.1,20.6-62.1
		c17.1-61.5,52.5-109.9,103.4-147.4c22.1-16.3,44.2-32.7,67.5-47.2c14.5-9,30.7-16.5,47.1-21.1c35-9.8,55.4,16.3,77.3,35.8
		c19,16.8,37.8,34.4,53.3,54.3c14.6,18.8,22.2,43.1,37.6,61.1c19.2,22.5,12.1,47.3,13.7,71.6c0.8,11.6-0.9,20.4-12,30
		c-30.2,26.2-56.3,56.9-85.8,84c-46.8,43.1-95.5,84.3-142.4,127.3c-24.8,22.8-47.7,47.9-71,72.4c-3.1,3.3-4.5,9.3-4.6,14
		c-0.8,48-3.8,96.1-0.6,143.9c1.7,26.1,12.9,51.9,21.9,77c8.1,22.5,16.4,45.6,29.4,65.4c14.4,21.9,33.6,40.7,51.6,59.9
		c11.9,12.7,26.1,23.3,38,36c4,4.3,6.7,12.2,6.1,18c-1.7,17.6-34.2,45.4-51.7,45.6c-15.3,0.1-30.5,0-45.8,0
		C721.7,1010.5,721.7,1010.6,721.7,1010.6z"/>
	<path d="M199.2,201.6c10.7-1.5,21.4-4,32.2-4.5c54.6-2.6,109.3-4.4,163.9-7c37.2-1.8,74.3-4.8,111.4-6.4c9-0.4,22.5-4.4,23.7,11.3
		c1.5,21.3-12.2,40-27.4,38.8c-91.6-7.2-183.2-14.5-274.8-21.9c-9.7-0.8-19.3-2.8-28.9-4.2C199.3,205.7,199.2,203.7,199.2,201.6z"/>
	<path d="M32.9,631.5c28.7-4.6,57.3-10,86.2-13.5c38-4.6,76.3-7.4,114.4-11.3c13.7-1.4,21.4,3.8,24.1,17.4
		c1.6,8.2,4.6,16.2,6.7,24.4c3.9,14.9-0.5,20.5-15.7,18.8c-30.2-3.5-60.4-7.5-90.6-11.3c-32.4-4-64.8-8-97.2-12.1
		c-9.6-1.2-19.1-3-28.6-4.5C32.4,636.8,32.6,634.1,32.9,631.5z"/>
	<path d="M252.4,401.2c6.4-1.7,12.6-4.1,19.1-4.9c61.7-7.3,123.3-14.5,185-21.4c12.8-1.4,18.2,7.6,12.5,19.8
		c-12.4,26.8-29.7,37.4-59.3,34.1c-47.7-5.3-95.2-11.5-142.8-17.6c-5.1-0.7-10-2.9-15.1-4.4C252.1,404.9,252.2,403,252.4,401.2z"/>
	<path d="M313.6,816.4c13.1-1.9,23.3-3.4,33.5-4.7c10-1.3,20.1-2.8,30.1-3.4c8.4-0.5,21.6-3.1,24.4,1c7.4,10.7,10.5,24.4,14.4,37.2
		c0.4,1.2-6.6,6.9-8.9,6.2c-29.5-8.8-58.7-18.4-88-28C318,824.3,317.4,822.1,313.6,816.4z"/>
</g>
</svg>
