<?xml version="1.0" encoding="utf-8"?>
<!-- Generator: Adobe Illustrator 22.1.0, SVG Export Plug-In . SVG Version: 6.00 Build 0)  -->
<svg version="1.1" id="news" xmlns="http://www.w3.org/2000/svg" xmlns:xlink="http://www.w3.org/1999/xlink" x="0px" y="0px"
	 viewBox="0 0 1024 1024" style="enable-background:new 0 0 1024 1024;" xml:space="preserve">
<g>
	<path d="M821.6,10.7c60.3,148.5,120.6,296.9,182.7,449.8c-76.5-33.3-152.2-38.5-233.3-34c68.7,63.5,108.3,138.7,114.5,231.5
		c-44.8,0-87.9,0-132.4,0c-8.6-58.9-35.3-107.4-84.8-141.7c-37.9-26.2-80.4-37.7-126.3-34.4c-73.9,5.3-163.3,56.7-182,175.6
		c-43.2,0-86.7,0-132,0c0.5-9.9,1-19.6,1.7-31.7c-27.6,12.7-55.3,22.2-79.5,37.2c-24.1,14.9-44.8,35.3-68,54
		c-20.5-41.6-42.3-85.6-66-133.7c18.7,0,34,1.4,48.9-0.4c15.6-1.8,31.8-4.4,46-10.6c52.6-23,104.7-47.3,156.6-71.8
		c8.5-4,16.9-10.4,22.5-17.8c29.1-38.6,64.7-69.5,106.6-93.5C501.1,329.5,601.3,263.8,692,184.6c20.5-17.9,40-36.9,58.5-56.9
		C781.8,94,809.3,57.6,821.6,10.7z"/>
	<path d="M535.2,875.7c0,44.7,0,88.3,0,134.9c-30.1-6.2-58.6-12.1-89.1-18.3c18.5-43.7,35.4-83.7,52.5-124.1
		C511.3,870.8,522.6,873.1,535.2,875.7z"/>
	<path d="M578,875.7c12.1-2.5,23.4-4.9,36.4-7.6c17,40.3,34,80.3,52.6,124.2c-30.2,6.3-58.7,12.2-89,18.5
		C578,964.3,578,920.8,578,875.7z"/>
	<path d="M745.8,737c2.5-12.7,4.7-24.1,7.2-36.7c43.3,0,86.4,0,134.2,0c-5.6,29-11.1,57.4-17.2,89.1
		C826.4,771,786.4,754.1,745.8,737z"/>
	<path d="M367.6,736.9c-40.8,17.3-80.3,34-123.7,52.3c-6.4-30.5-12.2-58.4-18.4-88.6c46.7,0,90,0,134.5,0
		C362.3,712,364.7,723.3,367.6,736.9z"/>
	<path d="M306.4,896.3c-14.7-21.8-30-44.4-47.1-69.6c42.7-18.2,82.6-35.2,123.7-52.7c6.7,9.8,13.2,19.2,18.9,27.5
		C370.2,832.9,339.3,863.6,306.4,896.3z"/>
	<path d="M853.8,826.5c-16.9,25.1-32.2,47.8-46.7,69.4c-32.6-32.5-63.5-63.2-95.3-94.8c4.7-7.1,10.7-16.2,17.9-27
		C769.8,791,809.8,807.9,853.8,826.5z"/>
	<path d="M772.8,930.2c-21.4,14.3-44.1,29.6-68.8,46.2c-18.2-43.1-35.2-83.1-52.4-123.8c9.8-6.7,18.8-12.8,26-17.7
		C709,866.2,739.7,897,772.8,930.2z"/>
	<path d="M338.8,929.2c32.6-32.5,63.1-62.7,95.3-94.7c7.1,4.6,16.6,10.8,27.4,17.7c-17.1,40.6-34,80.6-52.5,124.3
		C384.3,959.8,361.4,944.3,338.8,929.2z"/>
</g>
</svg>
