<?xml version="1.0" encoding="utf-8"?>
<!-- Generator: Adobe Illustrator 22.1.0, SVG Export Plug-In . SVG Version: 6.00 Build 0)  -->
<svg version="1.1" id="news-2" xmlns="http://www.w3.org/2000/svg" xmlns:xlink="http://www.w3.org/1999/xlink" x="0px" y="0px"
	 viewBox="0 0 1024 1024" style="enable-background:new 0 0 1024 1024;" xml:space="preserve">
<path d="M974.6,986.7c-14.6-4.1-27.5-10.9-40.9-16.9c-8.8-3.9-17-9.2-24-15.8c-14.2-13.2-23.3-30.8-28.7-49.3
	c-11.5-39.3-19.6-81.2-19.7-122.1c-1.1-239.5-0.1-479,1.8-718.5c0.3-37.9-10-51.4-50.6-51.1C570,14.6,327.5,14.3,85.1,12
	C41.1,11.6,28,26.9,28.5,68.5C30,209.8,29,351.2,29,492.5c-0.5,0-1,0-1.6,0c0,139.8-0.1,279.6,0,419.5c0,71.5,28.8,100,100.4,99.9
	c145.8-0.2,291.6-0.5,437.3-0.7c132.4-0.2,264.8,0.2,397.2-1c11.8-0.1,23.6-9.9,35.4-15.2C995.2,996,978.5,987.8,974.6,986.7z
	 M401.4,845.1h-247V501.8h247V845.1z M735.4,846.7H498.1v-67.9h237.3V846.7z M735.4,695.4H498.1v-43.3h237.3V695.4z M735.4,561
	H498.1v-58.3h237.3V561z M758.9,378.1H114.1V184h644.8V378.1z"/>
</svg>
