<?xml version="1.0" encoding="utf-8"?>
<!-- Generator: Adobe Illustrator 22.1.0, SVG Export Plug-In . SVG Version: 6.00 Build 0)  -->
<svg version="1.1" id="offense" xmlns="http://www.w3.org/2000/svg" xmlns:xlink="http://www.w3.org/1999/xlink" x="0px" y="0px"
	 viewBox="0 0 1024 1024" style="enable-background:new 0 0 1024 1024;" xml:space="preserve">
<g>
	<path d="M58.4,12.2c37.9-0.7,37.3-0.6,46.9,36.7c2.6,10.2,7.8,20.9,14.8,28.6c23.8,26,49,50.9,73.8,75.9c9.4,9.5,24.3,7.2,36.5-5.4
		c14.9-15.3,29-31.5,44.9-45.8c6.1-5.5,17.3-10.8,23.8-8.8c6,1.9,9.7,13.4,12.9,21.4c9.3,23.1-3.4,37.8-19.6,52
		c-15.9,13.9-15.8,16.8,0.7,29c34.2,25.3,69.1,49.6,103.5,74.6c34,24.7,67.4,50.1,101.6,74.4c32.8,23.3,66.5,45.3,99.3,68.6
		c32.4,23,64,46.9,96.1,70.2c22.3,16.2,45,32,67.4,48.1c34.1,24.5,68,49.3,102.1,73.9c12.1,8.7,24.1,17.6,36.8,25.4
		c20.8,12.8,33.5,29.8,32.2,55.2c-0.2,4-0.4,8.2,0.4,12.1c10.1,49,20.5,98,30.7,147c3,14.7,5.5,29.5,8.4,44.2
		c4.2,20.8,9.4,41.4,12.5,62.3c1.4,9.5,2,22.3-3.2,28.4c-3.9,4.5-17.8,1.5-26.9,0.1c-13.5-2.2-26.8-6-40.2-9.1
		c-18.4-4.4-36.8-8.8-55.2-13.3c-1.7-0.4-3.2-1.5-4.9-1.8c-40.6-8.2-81.2-16-121.7-24.8c-29.2-6.4-59.3-11.4-86.5-22.7
		c-12.8-5.3-20.1-24.1-29.5-37c-24.8-34-49.6-67.9-74.1-102.1c-23.8-33.2-47-66.9-70.8-100.1c-15.4-21.6-31.6-42.6-47-64.2
		c-23.4-32.8-46.2-66-69.8-98.7c-24.3-33.6-49.6-66.5-73.8-100.3c-23.4-32.8-45.9-66.2-68.8-99.3c-2-2.8-3.6-6-6-8.5
		c-24.1-25.7-23.7-26.8-43.6-1c-14.6,18.9-31,23.6-53,15.2c-18.6-7-23-21.2-8.9-35.8c14.9-15.4,30.3-30.2,45.9-44.8
		c18.5-17.2,18.6-28.3,0.7-45.5c-20.9-20-41.9-40.1-61.4-61.4c-14.5-15.8-32.2-22.2-52.2-23.8c-15.8-1.3-22.3-8.1-20.9-24.3
		c1.3-15,1.1-30.1,0.7-45.1c-0.3-13.8,5.3-20.5,19.4-19.7C41,12.5,49.7,12.2,58.4,12.2z"/>
	<path d="M393.4,799.9c-7.8-2.4-15.6-5.3-23.5-7c-38.4-8.2-76.9-15.6-115.2-24.6c-6.6-1.5-11.8-8.9-17.7-13.6
		c6.6-3.3,13-8.9,19.9-9.6c23.6-2.5,47.3-3.2,71-4.7c6.3-0.4,13.1,0.1,18.9-2.1c5.7-2.1,10.4-7,15.5-10.7
		c-5.1-4.6-9.6-11.2-15.5-13.2c-12.8-4.2-26.4-6.1-39.6-8.9c-0.4-2-0.7-4-1.1-6c5.8-3.5,11.2-7.9,17.4-10.5
		c18.2-7.6,20.1-17.6,5.9-31.6c-5.7-5.6-10.2-12.4-15.3-18.6c9-2.2,17.9-4.7,27-6.5c3.3-0.7,7.1,0.7,10.4,0
		c35.3-8,54.1,13.4,72.1,38.6c46,64.3,93.2,127.7,139.3,191.9c17.2,23.9,31.7,49.7,49.3,73.3c5.8,7.8,16.6,14.1,26.3,16.4
		c42.6,10.4,85.7,19.3,128.6,28.4c18.1,3.8,36.3,7,54.5,10.3c10.2,1.9,20.7,2.9,30.7,5.5c3.7,0.9,6.4,5.4,9.6,8.2
		c-3.5,2.1-6.8,5.3-10.5,6.1c-5.6,1.2-11.5,0.9-17.3,0.9c-155.7,0.1-311.4,0.3-467.2,0c-6.3,0-12.6-4.5-18.8-7
		c5.1-4.7,9.7-10.3,15.5-14c25.4-15.9,51.1-31.3,76.7-46.8c6.4-3.9,13.5-6.7,19.4-11.1c5.1-3.8,8.9-9.2,13.3-13.9
		c-4.9-4.5-9.1-11.1-14.8-13c-17-5.4-34.6-9.5-52.1-13.1c-44.7-9-89.6-17.4-134.4-26.2c-3.9-0.8-8.4-1.7-11.3-4.1
		c-4-3.4-8.8-8.1-9.4-12.7c-0.4-2.8,6.2-8.5,10.4-9.5c16.3-3.6,33.1-5.4,49.5-8.6c20.4-3.9,40.8-8,60.9-13.3
		c7.8-2.1,14.8-7.6,22.1-11.6C393.7,804.7,393.5,802.3,393.4,799.9z"/>
	<path d="M705.9,306.2c2.9,12.6,4.8,25.6,9.1,37.7c2.4,6.6,8.8,11.8,13.3,17.7c3.8-6.2,10.2-12.2,10.9-18.8c3-29.3,4-58.9,6.8-88.3
		c0.6-6.4,6.1-12.3,9.3-18.5c4.7,5.8,12.2,10.9,13.7,17.4c9,38.2,16.5,76.8,24.7,115.2c1.7,8,4.6,15.9,6.9,23.8c2,0.3,4,0.6,6.1,0.9
		c4.3-7.5,10.8-14.5,12.6-22.6c6.2-27,10.6-54.4,15.9-81.6c2.1-10.7,3.4-21.9,7.4-32c4.4-11.1,13.7-11.6,18.9-0.9
		c4.9,10.2,7,21.9,9.4,33.1c11.4,53.7,22.4,107.5,33.8,161.2c1.1,5,2.9,10.2,5.8,14.4c6.4,9.4,14,10.3,20.3-0.2
		c20.9-35.2,41.4-70.6,62.5-105.7c2.9-4.8,8.5-8,12.8-11.9c2.3,5.2,6.5,10.5,6.5,15.7c0.1,153.5-0.1,306.9-0.6,460.4
		c0,5.5-3.6,11-5.5,16.4c-3.4-5.4-8.8-10.4-9.7-16.1c-8.8-51.3-17.4-102.6-24.9-154.1c-4.1-27.8-13.9-48.8-40.6-64
		c-29.3-16.8-54.8-40.3-82-60.7c-11.1-8.3-22.6-15.9-33.9-24c-47.8-34.3-95.6-68.6-143.5-102.8c-6.1-4.3-13.8-6.6-19.4-11.4
		c-6.8-5.8-16.2-12.8-17.2-20.3c-2.7-21-1.9-42.5-1.6-63.8c0-3.1,4.4-8.4,7-8.6c3.7-0.2,8.1,2.8,11.2,5.6c4.2,3.8,6.9,9.5,11.4,12.9
		c12.7,9.7,19.7,7.2,25.9-7.6c2.7-6.6,6.5-12.7,9.9-19C701.4,305.9,703.6,306.1,705.9,306.2z"/>
</g>
</svg>
