<?xml version="1.0" encoding="utf-8"?>
<!-- Generator: Adobe Illustrator 22.1.0, SVG Export Plug-In . SVG Version: 6.00 Build 0)  -->
<svg version="1.1" id="party-simple" xmlns="http://www.w3.org/2000/svg" xmlns:xlink="http://www.w3.org/1999/xlink" x="0px"
	 y="0px" viewBox="0 0 1024 1024" style="enable-background:new 0 0 1024 1024;" xml:space="preserve">
<style type="text/css">
	.st0{fill-rule:evenodd;clip-rule:evenodd;}
</style>
<g id="Shape_12">
	<g>
		<path class="st0" d="M999.8,775.9c-7.3-8.3-236.6-269.7-285-324.8c7-5.6,15.1-12.4,24.4-20.7c15.6-13.8,26.6-27.1,33.1-39.9
			c9.6-19.4,7.4-35-6.4-46.8c-4.8-4-7.9-8.9-9.4-14.8c-0.3-1-0.5-2.3-0.6-3.8c-0.3-3-0.3-6.9,0-11.9c0.1-2.2,0.3-4.5,0.5-6.9
			c-0.1-1.6-0.3-3.2-0.5-4.6c-1.1-10-3.4-17-6.7-21c-2.1-2.5-5.2-5.3-9.5-8.3c-4.6-3.1-8.5-5.2-11.9-6.2c1.5-7.9,0.1-16.2-4.1-24.9
			c-3.4-7.2-10.7-14-21.7-20.3c-2.2-1.3-4.5-2.5-7-3.8c-10.6-4.5-19.7-7.6-27.3-9.5c-1.6-2.6-3.1-5.8-4.5-9.5
			c-0.3-0.7-0.6-1.4-0.9-2.1c-1.8-4.6-6.1-9.3-12.9-14.3c-6.9-4.9-15.6-8.3-26.2-10.1c-12.9-2.2-25.3,0.3-37.3,7.6
			c0.6-8.5,0.3-15.4-1.1-20.8c-1-4.4-3.5-10-7.5-16.9c-11.3-13.1-20.4-18.7-27.3-17l-4.7-6.4c-13.6-21.2-20.8-30.5-26.3-35.6
			c-8.3-10.3-29.4-27.9-66.2-10.6c-0.6,0.3-1.2,0.6-1.8,0.9c-11.2,6.3-24.8,18.8-29.6,41.8c-7.1-1.9-14.4-2.9-21.8-2.9
			c-3.9,0-7.8,0.3-11.8,0.8c-1,0.1-2,0.3-2.9,0.5c-22.3,4.1-42.2,18.2-54.7,36.6c-2.9,0.9-5.8,2-8.6,3.3
			c-25.9,11.7-44.1,36.7-48.9,66.3c-14.1,9.2-24.8,22.3-31,37.8c-3.2,1.4-6.3,2.9-9.5,4.7c-26,14.5-41.3,38.6-43.7,68.2
			c-2,26.9,5.7,50.9,22.3,69.7c3.8,4.3,8.3,7.9,13.2,10.8l36.4,20.9c7.1,4.4,14.7,7.7,22.6,10.1c-0.9,2.4-1.8,4.8-2.9,7.3
			L50.1,711.6l-29.9,37c-10.9,20.6-10.9,41.3,0,61.9c53.4,47.9,117.6,78.9,155.6,92.9c21.9,8.5,42.2,8.2,60.8-0.9l182.1-321.7
			c12.3-15.7,21.6-24.1,27.9-25.3c10.5-1.6,20.8-3.4,31-5.5c8.5-1.7,16.7-3.9,25-5.9c0.7,0,1.5,0.1,2.2,0.1
			c24,29.9,132.2,209.3,218.9,371.6c0.4,0.7,0.8,1.4,1.3,2.1c7.3,11,21.7,23.8,49.3,23.8c1,0,2,0,3-0.1
			c68.5-2,210.7-89.2,222.8-102.8C1016.1,820.9,1016,794.4,999.8,775.9z M464.4,275.4c-5.2,5.4-10.9,7.6-16.7,7.6
			c-16.1,0-33.2-17-44.7-30.4c22.5,31.3,31.3,50.6,14.6,69.6c-4.8,5-10.9,7.6-17.3,7.6c-8.1,0-16.7-4.2-23.6-13.1
			c-1.9-2.6-5-7-7.6-10.6c2.3,3.7,6.8,11.4,6.8,11.4c8.3,15.8,7.5,27.8-3.2,37.1c-5.6,4.9-11,7.3-16.3,7.3
			c-7.5,0-14.6-5.1-21.3-15.2c7.6,12.4,6.4,30.5-2.1,40.3c-4.1,3.9-12.2,6.6-21.3,6.6c-7.7,0-16.1-1.9-23.5-6.6
			c-0.2-0.1-0.4-0.2-0.6-0.3l-37.4-21.5c-7.2-8.1-10.3-18.5-9.4-31c0.9-11.9,6.4-20.7,16.5-26.3c8.1-4.4,15.7-6.7,22.6-6.7
			c2.9,0,5.7,0.4,8.4,1.2v-17.2c1.2-13.4,9.6-21.7,19.8-25.3c3.9-1.3,7.6-2.4,11.1-2.4c3,0,5.9,0.8,8.8,2.7c0,0-5.4-12.4-4.1-28.9
			c1.3-16.5,10.4-26.6,19.2-30.5c2.9-1.3,6.1-1.9,9.4-1.9c7,0,13.9,3,16.1,8.9c0,0,0-3.7,0-15.5c0-11.8,13.4-25.2,25.7-27.5
			c1.8-0.2,3.5-0.4,5.2-0.4c6.1,0,11.8,1.5,18.9,5.5c1.6,0.9,3.2,2.1,4.9,3.4v0c8.1,6.4,17.4,17.6,25.4,27.4
			C458.5,212.7,483,258.2,464.4,275.4z M491.8,170.8c-0.8-1-1.5-2.1-2.2-3c-5.8-7.2-11.7-14.1-17.8-20.6c-0.5-6-0.4-12.3,0.4-19.2
			c0.7-6,2.5-7.9,3.9-8.9c1.5-0.7,2.8-1.1,3.7-1.4c1.2,1.4,2.5,2.7,4,3.9c1.4,1.5,6.1,7.4,18,25.9c0.3,0.5,0.7,1,1,1.5l6.8,9.2
			L491.8,170.8z M775.6,889.3c-3.8,0.2-6.2-0.3-6.8-0.3h-0.1c-24-44.7-151.2-275-211.4-360.2c31.3-10.3,61.2-22.6,89.4-37.3
			c7.3-3.8,15.1-8.1,23-12.4c26.7,30.5,255.7,291.4,287.3,327.4C927.6,826.7,820.3,888,775.6,889.3z"/>
	</g>
</g>
</svg>
