<?xml version="1.0" encoding="utf-8"?>
<!-- Generator: Adobe Illustrator 22.1.0, SVG Export Plug-In . SVG Version: 6.00 Build 0)  -->
<svg version="1.1" id="plate" xmlns="http://www.w3.org/2000/svg" xmlns:xlink="http://www.w3.org/1999/xlink" x="0px" y="0px"
	 viewBox="0 0 1024 1024" style="enable-background:new 0 0 1024 1024;" xml:space="preserve">
<g>
	<path d="M887.3,566.2c-26.6,10.9-49.1,3-70.4-7c-17.5-8.2-28.9-4.4-40.3,10.3c-37.1,47.9-55.3,102.2-58.8,158.8
		c-11.1,9.1-22.1,15.9-30.2,25.2c-66.4,76.2-125.1,157.7-170.1,248.6c-1.3,2.6-2.9,5.1-5.5,9.7c-3.5-5.8-6.3-10-8.6-14.5
		c-46.3-92.3-106.7-174.8-174.8-252c-5.5-6.2-14.1-9.5-23.1-15.4c-2.9-55.3-20-109.1-55.6-156.1c-17.8-23.5-19.3-23.6-46.6-13
		c-30.2,11.8-40,12.7-66.6,5.8C182,504,167.2,433.3,165.3,364c-1.2-40.8-2.8-82.2,2.6-122.4c7.1-52.6,2.2-103.2-9.3-154.2
		c-5.6-24.6-9.5-49.5-14.4-75.4c245.6,0,489.1,0,734.8,0c-5.9,30.6-10.6,60.3-17.3,89.5c-10.6,46.4-11.8,92.4-6.4,140
		c4.8,42.2,2.4,85.2,2.2,127.8c-0.2,29.5-2.9,59-3.1,88.6C854.1,496.5,861.2,533.4,887.3,566.2z"/>
</g>
</svg>
