<?xml version="1.0" encoding="utf-8"?>
<!-- Generator: Adobe Illustrator 22.1.0, SVG Export Plug-In . SVG Version: 6.00 Build 0)  -->
<svg version="1.1" id="quill" xmlns="http://www.w3.org/2000/svg" xmlns:xlink="http://www.w3.org/1999/xlink" x="0px" y="0px"
	 viewBox="0 0 1024 1024" style="enable-background:new 0 0 1024 1024;" xml:space="preserve">
<g>
	<path d="M262.5,793.6c1.1,1.4,2.6,2.4,4.4,2.7c5.3,0.8,8.8-5.3,10.7-10.3c57.9-155.6,118-311,206.9-452
		c79-125.5,176.1-239.6,305.9-314.4c-49.2-6.1-99.5-12.1-148.1-2.6c-6,1.2-12.1,2.6-17.1,6C612,31.9,610,50,609.3,65.7
		c-6.5-9.9-13-26.9-23.9-25.9c-11,0.9-29.3,16.9-39,22.5c5.8,8.1,11.7,16.3,15.3,25.6s4.8,19.9,1.1,29.2
		c-11.3-15.8-22.6-31.5-33.8-47.3c-0.9-1.3-1.9-2.7-3.4-3.2c-1.8-0.7-3.8,0.1-5.6,0.8c-5.3,2.1-10.5,4.2-15.8,6.3
		c-6,2.4-12.3,5.1-16,10.4c-5.8,8.6,1.7,17.6,7.1,24.2c5.8,7.2,13,13,19.4,19.7c9.6,10.2,29,33.3,19.2,48.1c-7,10.7-53-33-58.4-37.7
		c-6-5.2-20.9-23.4-29.4-23.9c-7.7-0.4-24.4,18.5-30.4,23.5c-6.2,5.2-28.3,18.4-30.1,26.2c-0.9,3.8,3.6,9.6,5.3,12.9
		c6.3,12.8,12.8,25.4,19.3,38.1c10.2,20.3,20.5,40.6,30.7,60.8c-24.6-28-47.9-61.2-75.9-85.6c-12.6,9.8-23.6,21.4-34.4,33
		c-5.6,6-12.3,12-17.1,18.6c-7,9.6-6,8.7,1.5,18.9c21.6,29.1,43.9,57.7,66,86.4c1.8,2.4,3.8,5,4,8c1.1,14.7-40.6-13.3-46.6-16.8
		c-17.9-10.2-35.7-20.4-53.6-30.6c-7.6-4.4-18.3-8.4-24.3-1.9c-3.2,16.1,4.9,32,12.8,46.4c16.8,30.8,33.6,61.7,50.4,92.5
		c-25.6-28.7-51.2-57.3-76.8-86c-5.4,18.5-10.8,38.2-5.3,56.7c1.7,5.8,4.5,11.2,7.2,16.5c10.4,20.4,20.8,40.7,31.1,61.1
		c-16.8-22.2-33.6-44.4-50.4-66.6c3.2,4.2-6.2,45.8-3.4,56.6c5.8,23.2,19.3,46.4,27.7,68.8c8.6,23.2,31.3,42.5,32.1,68.2
		c-7.4-1.8-12.7-8-17.5-13.8c-17.6-21.4-41.9-43.1-50.4-70.1c1.4,41.5,3.7,82.7,10.3,123.7c6.9,43.2,22.4,83.8,30.9,126.3
		C259.9,789.1,260.9,791.7,262.5,793.6z"/>
	<path d="M797.5,61.5c1-8,8.6-13.2,8.6-21.4c-16-1.3-39.2,18.9-52.1,27.9c-10.5,7.3-20.8,15.1-30.8,23.2
		c-20.9,17-40.5,35.4-59.2,54.7c-39.9,41.3-75.3,86.7-107.9,133.9c-10.2,14.8-20.2,29.8-29.9,44.9
		c-96.5,150.6-171.7,316.3-231.4,484.7c7.2,5.7,17.6,6,26.2,3.1c8.7-3,16-8.8,23-14.8c29.3-24.9,55.9-53.4,74.9-86.9
		c-4.6-8.1-9.2-16.1-13.8-24.2c14.5,3,29,6,43.5,9c21.9-25.8,44.6-53,52-86c-21.1-4.3-42.2-8.5-63.3-12.8
		c21.4,1.6,42.9,1.5,64.3-0.2c8.9-0.7,19.2-2.7,23.4-10.5c1.9-3.6,2.2-7.9,3-11.9c4.4-21.1,26.5-37.6,24.2-59
		c-1-9.8-6.6-16.5-13.7-22.7c-1.8-1.6-20.3-16-21.4-15.2c10.5-7.7,27.9-4.1,39,0.8c8.9,3.9,23.7,14.3,33.3,5.5c3.3-3,5-7.3,6.8-11.5
		c4.4-10.4,9.6-20.4,15.5-30c8.8-14.4,38.2-47.4,17.3-61.5c-23.2-15.6-50.4-23.3-77.6-29.4c20-3.9,40.3-5.8,60.7-5.3
		c16.5,0.4,31,3.1,46.2-4.9c4.3-2.3,7.2-6.6,11.1-9.5c13.4-10,18.7-3.1,24.2-21c0.6-2,8.7-25.4,7-26.3
		c-26.4-12.3-52.9-24.5-79.3-36.8c8,3.7,31.5,1.6,40.9,1.5c17.3-0.1,34.6-0.1,51.9,0.2c1.5,0,3,0,4.4-0.6c1.6-0.8,2.5-2.3,3.4-3.8
		c6.3-10.8,22.5-37.1,14.1-48.8c-4.1-5.8-27.7-14.4-34.5-12.8c15.9-3.8,36.8-1.3,52.9,0.6c0.3-3.1,6-47.2,4.9-47.6
		c-9.9-4-19.9-7.8-29.9-11.6c11.3,4.3,35.9-3.6,48.2-4.5c1.1-7.1,1.6-14.1,2-21.3c0.2-5.3,1.6-11.1,5.8-14.3
		c3.5-2.6,8.6-3.2,11.1-6.8C799.6,73.1,796.8,66.9,797.5,61.5z"/>
	<path d="M262.6,826.9c0,0-28.7,3.4-20.7,174.8l9.6,10.3l11.1-8l20.7-29.9l11.5-33.3c0,0,17.2-80.5,17.2-92
		C312.1,848.7,274.1,825.7,262.6,826.9z"/>
</g>
</svg>
