<?xml version="1.0" encoding="utf-8"?>
<!-- Generator: Adobe Illustrator 22.1.0, SVG Export Plug-In . SVG Version: 6.00 Build 0)  -->
<svg version="1.1" id="rank-4" xmlns="http://www.w3.org/2000/svg" xmlns:xlink="http://www.w3.org/1999/xlink" x="0px" y="0px"
	 viewBox="0 0 1024 1024" style="enable-background:new 0 0 1024 1024;" xml:space="preserve">
<g>
	<path d="M117.7,556.4c5.1-3.7,10.7-6.7,15.3-10.9c7.8-7,20.3-14.1,21.3-22.3c2.4-19.5-0.8-39.8-1.9-63.4
		c-20.7,12-37.4,20.6-52.7,31c-11.3,7.6-18.9,6-28.1-3.2c-18-17.9-37-34.7-59.3-55.4c0,20.8-0.4,36.1,0.1,51.3
		c1.9,59.8-8.2,42.7,42,74.5C93.7,583,80.1,583.9,117.7,556.4z"/>
	<path d="M1011.7,432.9c-21.2,19.7-40.1,36.1-57.5,53.8c-10.4,10.6-18.7,11.5-31,3c-15.1-10.4-31.8-18.5-51.1-29.5
		c-1.1,21.5-3,38.5-2.4,55.4c0.2,6.9,4.2,15.5,9.4,19.9c15.2,12.9,31.4,24.8,48.3,35.4c5.2,3.3,15.4,3.6,20.8,0.7
		c17.6-9.3,34.4-20.3,50.7-31.8c5.5-3.9,12-10.9,12.3-16.8C1012.4,494.7,1011.7,466.2,1011.7,432.9z"/>
	<path d="M775,199.4c7.1-4.4,15.6-7.2,23.8-9.2c17.7-4.2,19.7-15.7,22.4-32.2c7.7-46.6-9.7-77-51.1-96.6
		c-9.8-4.6-18.3-11.8-27.5-17.8c-1.3,0.9-2.7,1.9-4,2.8c3.5,21.1,6.9,42.2,10.4,63.2c4.5,27.3,4.5,27.1-21.3,39.8
		c-13.9,6.9-27.5,14.4-43.7,23C713.9,192.6,736.1,223.5,775,199.4z"/>
	<path d="M216.3,185.6c18,8.3,36.8,15.2,55.6,21.5c5.9,2,14.5,2.7,19.4-0.2c16-9.6,30.8-21,48.4-33.4c-6.3-4.2-10.6-7.6-15.2-10
		c-12.6-6.6-25-13.8-38.2-18.9c-13.3-5.2-16.2-12.5-12.9-26.4c5.6-23.5,8.6-47.7,12.7-71.6c-1.9-1.1-3.7-2.1-5.6-3.2
		c-24.3,17.4-48.8,34.6-72.9,52.3c-2.6,1.9-3.8,7-3.8,10.7c-0.2,21.1-0.6,42.3,1,63.3C205.3,175.3,211,183.1,216.3,185.6z"/>
	<path d="M146.6,701.4c13-16.5,24.7-34.2,36.2-51.8c2.5-3.8,4-10.1,2.6-14c-6.4-18.1-13.9-35.8-22.6-57.5
		c-15.5,17.9-28.9,32.5-41.3,48c-7.8,9.8-15.1,10.9-26.4,5.2c-22.6-11.3-46.1-20.8-69.3-31c-1.2,1-2.3,2.1-3.5,3.1
		c11,28.4,22,56.8,33.4,85c1,2.6,4.8,5,7.7,5.7c21.6,5.4,43.1,11.1,65,14.9C134.1,709.8,143,706,146.6,701.4z"/>
	<path d="M901,623.7c-11.6-15.1-24.8-28.9-39.5-45.7c-4.7,12.3-6.9,21.9-11.8,29.9c-14.9,24.3-7.7,43,6.9,66
		c18.9,29.7,37.9,44.8,72.4,27.9c2-1,4.5-0.8,6.7-1.2c21.2-3.4,39.1-10,42.7-35.6c1.3-9.3,7.2-17.9,10.5-26.9
		c4.3-11.8,8.2-23.7,13.8-39.8c-27,11.9-49.9,20.6-71.4,31.9C917.9,637.2,910,635.3,901,623.7z"/>
	<path d="M904.5,356.6c-19.1-4.7-38.6-7.4-62.3-11.8c7.4,23.4,12.9,42.8,19.9,61.7c1.3,3.6,7.8,6.1,12.4,7.7
		c18.9,6.3,38.3,11.3,56.9,18.3c9.6,3.6,14.8,0.9,20.3-6.2c10.1-13.1,20.1-26.4,31.2-38.7c10.5-11.6,14.5-22.5,8.3-38.4
		c-9.2-23.5-15.6-48.1-24.7-77c-14.4,27.3-26.8,49.6-37.9,72.3C923.2,355.6,917.1,359.7,904.5,356.6z"/>
	<path d="M75.2,428.1c3.1,3.5,11,5.7,15.7,4.5c20.4-5.4,40.4-12,60.4-18.7c4.5-1.5,10.5-4.6,11.9-8.4c6.7-18.5,12-37.5,19.3-61
		c-21.9,4.2-39,6-55,11.1c-19,6-27.8-1.5-35.2-17.9C82.7,316.7,71,297,57.9,272.4c-10.6,33.8-19.9,62.4-28.2,91.3
		c-1.1,3.9,1.7,10.1,4.5,13.8C47.4,394.8,60.8,411.9,75.2,428.1z"/>
	<path d="M355.5,879.9c0.2-19.9-2-39.9-3.9-59.8c-0.5-4.8-1.8-11.5-5.2-13.7c-16.8-11.1-34.4-20.9-57.1-34.4
		c0,24.8-0.2,44.6,0.1,64.4c0.2,12.2-4.6,18.1-17.3,20.6c-24.3,4.8-48.2,11.8-72.3,17.9c-0.4,2-0.7,4-1.1,6
		c23.1,14,45.9,28.6,69.6,41.5c6.1,3.3,16.1,3.2,22.8,0.7c18.1-6.7,36-14.5,52.8-24C349.7,895.9,355.4,886.6,355.5,879.9z"/>
	<path d="M755.1,857.6c-15.2-2.4-20.4-9.4-20-23.8c0.5-19.1,0.1-38.3,0.1-59.1c-40.9,16.7-72.9,34.5-65.2,82.2
		c0.6,3.8,0.1,8.1-0.8,11.9c-4.2,17.9,1.4,28.7,19.7,34.9c19.3,6.5,37.8,23.4,56,22.4c18.3-0.9,35.8-18,53.4-28.4
		c9.4-5.5,18.4-11.8,30.1-19.4c-6.9-3.4-10.1-5.7-13.6-6.6C795,866.8,775.3,860.8,755.1,857.6z"/>
	<path d="M468.6,854.5c-1.9-4.4-5.4-10.2-9.2-11.2c-19.1-4.8-38.5-8.2-58-12.2c-0.9,4.4-1.9,6.1-1.5,7.6
		c3.4,13.2,5.9,26.9,10.8,39.6c11.6,30.5,8.3,27.6-16.8,44c-17.3,11.3-34.7,22.5-53.8,34.8c3.9,2.8,5.1,4.3,6.6,4.7
		c27.1,6.5,54.2,13.1,81.5,18.8c3.9,0.8,9.9-1.9,13.1-4.9c16-14.6,32-29.4,46.8-45.3c3.8-4.1,5.6-13.4,3.7-18.8
		C485.1,892.1,476.8,873.3,468.6,854.5z"/>
	<path d="M611,886.1c6.4-16.7,10.2-34.3,16.3-55.7c-20.9,4.2-37.8,6.4-53.8,11.2c-6.9,2.1-14.7,8.3-17.9,14.8
		c-8.9,17.8-16.4,36.4-22.8,55.2c-1.8,5.4,0,14.6,3.8,18.8c13.9,15.1,28.6,29.6,44.5,42.6c5.9,4.8,16.2,7.2,23.8,6
		c19.6-3,38.9-8.4,58.2-13.2c6.6-1.6,12.9-4.4,22.9-8c-24-15.4-43.5-29.2-64.2-41C608.3,909.1,605.5,900.7,611,886.1z"/>
	<path d="M117,284.6c2.8,6.2,11.6,12.6,18.3,13.5c19.2,2.5,38.7,2.6,58.1,2.8c5.3,0.1,12.7-0.8,15.5-4.3
		c12.9-15.6,24.5-32.2,38.7-51.5c-22-3-40.3-6.6-58.8-7.8c-15.1-1-22.1-5.9-23.5-22.2c-2.1-24-7.3-47.8-11.1-71.7
		c-2-0.3-4-0.6-6-0.9c-17.5,24.3-35.2,48.5-52.4,73.1c-1.7,2.5-0.9,7.7,0.2,11.1C102.6,246.3,108.7,266,117,284.6z"/>
	<path d="M243.7,783c13.7-41.9,13.7-41.9-14.6-75.2c-4.8-5.6-9.4-11.4-17.8-21.6c-8.7,21.7-16.7,39.6-23,58.2
		c-4.3,12.5-10.7,17-24.1,15.1c-21.5-3.1-43.2-4.6-64.8-6.5c-3.9-0.3-7.9,0.8-14.3,1.5c13.3,16,26.2,28.5,35.5,43.3
		c16.3,26,37.5,33,67.6,28.9C230.3,821,230.6,823,243.7,783z"/>
	<path d="M920.1,753.1c-19.3,1.8-38.8,3.1-57.9,6.1c-14.6,2.3-21.9-2.1-26.5-16.4c-5.7-18.1-14-35.4-22.5-56.5
		c-9.1,10.8-13.8,18.3-20.1,23.7c-21.1,18.1-27,38.7-15.1,64.7c6.1,13.4,8.1,28.6,14.3,41.9c4,8.7,80.4,15.5,87.4,7.8
		c20.1-22.2,39-45.3,61.3-71.5C931,753.1,925.5,752.6,920.1,753.1z"/>
	<path d="M813.9,295c2.2,2.8,6.5,6,9.7,5.9c25-0.7,50.1-2.2,75.1-3.4c7.1-15.8,14.2-31.7,21.3-47.5c0.2-0.5,0.5-1.1,0.7-1.5
		c12.1-20.1,9-37.4-6.9-54.9c-14.2-15.7-25.6-34-40.8-54.7c-2.7,9.1-4.7,13.6-5.4,18.3c-3.1,18.6-7.5,37.1-8.1,55.8
		c-0.7,18.9-9.3,24.1-26.5,24.8c-17.4,0.7-34.7,4.6-56.2,7.6C790.8,264.1,802.1,279.7,813.9,295z"/>
	<path d="M600.5,691.9c5.8,0,11.1-5.2,11.1-11.1l-0.6-71.7h46.1c6.4,0,11.1-5.2,11.1-11.1v-48.4c0-5.8-4.7-10.5-11.1-10.5H611
		l-0.6-239c0-6.4-5.2-11.1-11.1-11.1h-42c-5.2,0-7,1.8-8.7,3.5L345.2,536.8v61.8c0,5.8,4.7,11.1,11.1,11.1h170.8v71.1
		c0,5.8,5.2,11.1,11.1,11.1H600.5z M529.4,537.4h-92.7l92.7-108.4V537.4z"/>
</g>
</svg>
