<?xml version="1.0" encoding="utf-8"?>
<!-- Generator: Adobe Illustrator 22.1.0, SVG Export Plug-In . SVG Version: 6.00 Build 0)  -->
<svg version="1.1" id="recall" xmlns="http://www.w3.org/2000/svg" xmlns:xlink="http://www.w3.org/1999/xlink" x="0px" y="0px"
	 viewBox="0 0 1024 1024" style="enable-background:new 0 0 1024 1024;" xml:space="preserve">
<g>
	<path d="M938.7,769.8c-42.3-20.3-87.9-28.6-134.7-30.2c-10.3-0.4-22.3,0.1-22.1,14.1c0.3,14-11.1,32.5,11.5,40.3
		c36.1,12.5,72.4,24.6,108.4,37.2c6,2.1,11.5,5.8,17.2,8.8c-5.2,4.6-9.7,11.9-15.7,13.3c-46.2,11.1-92.3,22.6-139.1,30.9
		c-13.8,2.5-27.8,4.1-41.8,5.5c-69.5,10.6-138.7,14.3-201.9,14.3c-50.1,0-100.2-3.1-150.1-7.7c-40.3-3.7-80.3-9.9-120.3-16.5
		c-14.4-2.4-28.8-4.8-43.3-7.2c-29.4-4.9-58.3-13.1-87.4-20c-3-0.7-6.1-2.1-8.4-4c-6.8-5.8-8-11.5,1.9-15.2c4.1-1.5,8.8-1.4,12.8-3
		c29.2-11.2,58.9-21.3,87.2-34.3c18-8.2,12.4-27,7.8-40c-2.2-6.3-17-12-25.8-11.7c-55.5,2.2-107.1,18.5-153.8,48.7
		c-22.3,14.5-28.4,32.2-25.2,58.2c0.8,6.4,1.7,13,4.5,18.8c11.3,24.1,54.1,40,76.9,49.9c32,13.9,65.6,23.2,99.4,31.7
		c123.2,30.8,251.3,36.3,377.7,29.8c119.5-6.2,261.3-8.1,369.2-65.1c38.4-20.3,71.7-33.6,66-84.8
		C1005.6,795.9,966.6,783.2,938.7,769.8z"/>
	<path d="M332.8,396.6c97.7,8.4,224.6,13.1,362.1,1.9c2.7-0.7,6.2-1.2,10.7-1.8c65.4-8.3,344.5-27.4,302-146.9
		c-11.5-32.4-46.7-49-79.2-59.9c-33-11-66.8-19.7-101.3-24.6c-10.6-1.5-21.7-2.6-32,0.4c-10.3,3-19.9,10.9-21.7,21.5
		c-3.4,20.2,20,33.4,39.3,40.2c37.7,13.2,75.3,26.4,113,39.6c-86.8,37.1-182.6,48.6-275.9,57.2c-101.3,9.3-203.8,7.4-304.9-3.8
		c-20.2-2.2-40.3-4.8-60.4-7.8c-61.6-9.1-122.8-23.6-180.7-46.7c21.1-10,42.8-18.4,65.1-25.4c16.3-5.1,33.8-9.8,45.7-22.1
		c11.9-12.3,14.9-35.1,1.2-45.3c-8.9-6.7-21.2-5.8-32.2-4.2c-38.1,5.6-75.3,16.4-110.5,32c-21.4,9.5-43.2,22.1-53.6,43.1
		C-40.1,365.8,268.6,391.1,332.8,396.6z"/>
	<path d="M703.3,587.4c-1-6-2.8-7.2-2.7-13c0.9-40.8,1.2-81.7,0.6-122.5c-0.1-8.9-3.8-18.3-7.5-26.5c-2.1-4.7-1.8-6.1-5.1-15.1
		c-55.7,4.3-109.5,6.1-160.3,6.1c-71.3,0-136.6-3.5-192.6-8.2c-0.8,6.8-1.3,8.7-5.1,21.2c-2.1,6.9-7.4,13.7-7.5,20.7
		c-0.6,39.6-0.6,79.2,0.2,118.8c0.2,9.1-0.2,10.7-1.6,18.4C405.8,597.2,552.8,607.8,703.3,587.4z"/>
	<path d="M176.7,659c44.4,6.8,97.1,13.6,156,18.7c108.7,9.4,253.5,14,409-2.5c76-13.8,151-23.9,221.7-57.6
		c34.8-16.6,53.3-43.1,44.2-83.2c-1.6-7-4.4-15.8-9.7-19.5c-60-42.1-123-61.7-196.5-67.9c-7.2-0.6-21.7,7.9-21.4,11.3
		c1.1,14.2-10.3,34.1,9.7,42c36.7,14.4,74.5,26.2,111.7,39.5c6.4,2.3,12,6.9,17.9,10.4c-5.6,4-10.8,10.1-17,11.7
		c-40.6,10.4-81.2,20.5-122.2,29.1c-42.2,8.8-86.2,9.8-129,13.8c-43.3,4-86.9,5.7-130.4,5.7c-42.1,0-84.2-2.2-126.2-5.2
		c-38-2.8-75.9-5.3-113.5-11.5c-37.6-6.2-74.9-14.5-112.2-22.3c-14.9-3.1-29.8-6.3-44.7-9.5c-6.6-1.4-11.9-8.5-17.8-13
		c6.3-3.2,12.3-6.9,18.8-9.5c25.7-10.3,52.9-18.8,77.9-30.7c23.1-11,21.9-21,18.2-44.5c-0.8-5-12.6-12-19.3-11.9
		c-49,1-95.1,15.3-139.3,35.4C26.8,503.7,7,530.6,15.9,572.2C26.4,621.1,104,645.2,176.7,659z"/>
	<path d="M682.7,739.9c8.1-3.6,15.1-16.5,17.8-23c6.6-16.1,9.1-20.6,13.2-27.6c-64.5,5.9-126.9,8.2-185.3,8.2
		c-72.7,0-139.2-3.6-195.9-8.5c-7.8-0.6-16.7-0.3-24.1-2.3c0.2,2.3,0.7,5.2,2.4,7c5.6,5.9,8.3,10.1,12,16.5
		c4.7,8.1,8.2,16.7,15,22.2c8.4,6.9,21.1,8.4,30.1,14.9c8.5,6.1,20.1,15.2,20.7,23.7c2.4,33.8,1.4,67.8,0.9,101.7
		c-0.1,4.7-0.2,10.2-1.4,14.7c7,0,15.1,1.2,22.2,1.7c7.8,0.5,15.6,1,23.5,1.4c16.7,0.9,33.4,1.5,50.1,1.9
		c36.6,0.8,73.3,0.5,109.9-1.3c8.1-0.4,16.2-0.9,24.3-1.4c4.1-0.3,8.2-0.6,12.2-0.9c0.3,0,5.3-0.3,5.3,0.1c0-6.5-0.5-12.9-0.5-19.4
		c-0.2-19.5,0.4-39,0.5-58.5C635.3,760.2,635.6,760.8,682.7,739.9z"/>
	<circle cx="513" cy="178.4" r="138.4"/>
</g>
</svg>
