<?xml version="1.0" encoding="utf-8"?>
<!-- Generator: Adobe Illustrator 22.1.0, SVG Export Plug-In . SVG Version: 6.00 Build 0)  -->
<svg version="1.1" id="recommended-shield" xmlns="http://www.w3.org/2000/svg" xmlns:xlink="http://www.w3.org/1999/xlink" x="0px"
	 y="0px" viewBox="0 0 1024 1024" style="enable-background:new 0 0 1024 1024;" xml:space="preserve">
<g>
	<path d="M902.6,376.2c0,72.6-2.8,145.3,1,217.7c2.5,49.2-12.1,90.7-35,132.1c-39.7,71.6-95.4,128.5-161.8,174.3
		c-47.4,32.7-98.4,60.1-147.8,89.9c-10.1,6.1-19.5,14.4-30.4,17.7c-11.1,3.4-26.1,6.3-35.3,1.6c-40-20.6-79.1-43.1-117.4-66.7
		c-86.5-53.4-165-115.9-217.4-205.3c-25-42.5-38.9-87.2-38.2-138.5c2.3-162.9,1.2-325.9,0.3-488.8c-0.1-21.5,8.5-27.6,27.4-31.1
		c102.6-19.3,205.3-38,307.1-60.5c37.1-8.2,71-8.9,108.2-0.3c82.2,19,165.5,33.1,248.3,49.2c23.2,4.5,46.4,9.4,69.8,13.1
		c16.2,2.5,21.7,10.3,21.6,26.9C902.3,197,902.7,286.6,902.6,376.2C902.6,376.2,902.6,376.2,902.6,376.2z M798.4,390.9
		c-13.2-1.5-20.2-2.9-27.1-3.1c-51.8-0.9-103.6-2.3-155.4-2c-17.7,0.1-26.6-5.9-32.2-22.9c-16.5-50.5-34.4-100.6-52.4-150.6
		c-2.2-6.1-8.3-10.8-12.6-16.2c-4.3,5.4-10.3,10.1-12.5,16.2C487.9,263.1,469.9,314,453,365.1c-5.1,15.4-13.6,20.6-29.2,20.6
		c-51.8,0.1-103.6,1.2-155.4,2.1c-7.7,0.1-15.4,1.5-28.9,2.8c9.4,10.3,14.3,17.4,20.8,22.4c37.2,29.3,74.6,58.3,112.1,87.1
		c28.7,22.1,30.2,26.8,19.4,61.7c-11.8,38.1-23.5,76.2-34.7,114.5c-4.2,14.5-7,29.3-11.9,50.5c12.7-6.5,19.9-9.2,26-13.5
		c42.5-29.6,85.1-59,126.8-89.5c14.9-10.9,26.4-11.2,41.5-0.1c42.3,31.1,85.5,60.9,128.5,91c5.6,3.9,12.3,6.1,23.7,11.7
		c-2.6-12.7-3.5-19.6-5.4-26.2c-13.8-47.5-27.3-95.2-42-142.4c-7.1-22.9-5.4-39.8,16.7-55.3c39.3-27.6,76.4-58.3,114.2-88
		C782.3,408.9,788,401.7,798.4,390.9z"/>
</g>
</svg>
