<?xml version="1.0" encoding="utf-8"?>
<!-- Generator: Adobe Illustrator 22.1.0, SVG Export Plug-In . SVG Version: 6.00 Build 0)  -->
<svg version="1.1" id="sad-1" xmlns="http://www.w3.org/2000/svg" xmlns:xlink="http://www.w3.org/1999/xlink" x="0px" y="0px"
	 viewBox="0 0 1024 1024" style="enable-background:new 0 0 1024 1024;" xml:space="preserve">
<path d="M576.4,15.7c112,13.6,220.2,64.7,303.8,153.6c162.6,172.8,176.6,445.3,37.2,636.2c-26.1,35.7-56.8,68-90.9,96.2
	c-187.3,155-495.5,155.7-687.8-55.7c-169.8-186.6-169.7-481.1,4.5-671C257.8,50.1,420.8-3.2,576.4,15.7z M552.2,589.7
	c-3.8,0-13.4-0.7-22.8,0.1c-59.6,5.1-114.9,22.5-159.2,64c-7.2,6.8-10.1,30.5-1.9,37.3c4.5,3.8,10.6,4.9,16.5,5.1
	c22,0.9,32.8-9.8,51-18.6c87.4-42.3,173.8-46.4,259.1,6.1c12.7,7.8,28.2,29.4,40.1,5.1c4.9-10-4.9-34.4-15.5-43.7
	C673.8,605.3,619,587.4,552.2,589.7z M785.1,584.2c46.4-0.7,82.7-39.3,81.2-86.2c-1.5-46.1-36.8-79.1-84.1-78.6
	c-46.8,0.4-80.6,34.5-80.8,81.5C701.2,548.4,738,585,785.1,584.2z M245.3,419.4c-45.9,0.4-81.4,35.7-81.5,81
	c-0.2,46.3,37.6,84.4,83.1,83.9c45.9-0.6,82.3-38.9,81.3-85.6C327.2,453,291.7,419,245.3,419.4z M788,309.2
	c-15.6,2.6-32.3,10.2-35.3,24.5c-5.9,28,22.9,22.8,39.8,26.4c55.9,11.9,90,64.5,142.4,84.2c19.3,7.2,17.8-35.2,12.8-44.9
	c-28.2-54.3-81.4-81-140-90.6C802.4,307.9,795.3,308,788,309.2z M246.1,308.5c-63.9,0.4-123.4,33.4-152.7,82.3
	c-5.9,9.8-11.3,21.9-11.1,32.9c0.1,8.7,7.1,20.4,14.6,24.9c4.9,2.9,19.4-2.2,23.9-8.1c37.7-48.5,86-77,147.2-84.6
	c7-0.9,18.4-11.9,18-17.5c-0.7-8.7-8-19.5-15.7-24.3C261.9,308.7,249.9,309.2,246.1,308.5z M903.4,564.5c-14.2,25.8-25,48-38.1,68.7
	c-13.8,21.8-17.2,45.3,1.9,61.7c13.2,11.3,36.7,18.8,53.3,15.8c25.1-4.7,38.8-27,36.8-54.1C954.4,618.6,931.4,592.5,903.4,564.5z"/>
</svg>
