<?xml version="1.0" encoding="utf-8"?>
<!-- Generator: Adobe Illustrator 22.1.0, SVG Export Plug-In . SVG Version: 6.00 Build 0)  -->
<svg version="1.1" id="shop-2" xmlns="http://www.w3.org/2000/svg" xmlns:xlink="http://www.w3.org/1999/xlink" x="0px" y="0px"
	 viewBox="0 0 1024 1024" style="enable-background:new 0 0 1024 1024;" xml:space="preserve">
<g>
	<path d="M762.2,360.7c-22.8,65.5-65,100.8-118.3,101.8C580,463.6,540.1,433.7,512.3,362c-22.6,68.8-67.9,106.6-139.9,99.3
		c-57.1-5.8-92.3-42.2-109.2-100.7c-3.2,8.2-5.4,13.5-7.4,18.9c-20,54.8-71.7,87.4-131.2,82.8c-52.3-4-102.5-49.3-111-102.8
		c-3-18.9-1-38.7-0.2-58c0.2-4.2,4.7-8.7,8.2-12.2c41.5-41.5,82.9-83.1,125.1-123.9c5.7-5.5,15.7-9.4,23.7-9.5
		c227.9-0.5,455.9-0.5,683.8,0c8,0,18,4,23.7,9.5c42.2,40.8,83.8,82.2,125,124c4.9,5,8.3,13.6,8.5,20.6c0.6,24.8,2.6,49.7-7.5,73.8
		c-21,50-67.5,79.8-124.3,78.6c-47.8-1.1-93.2-35.1-110.7-83C767.1,374.3,765.2,369.2,762.2,360.7z"/>
	<path d="M256.6,814.9c25.9-26.5,51.3-53.4,78-79.1c6.2-5.9,16.5-10.6,24.9-10.7c102-0.7,204.1-0.7,306.1,0c8,0.1,17.8,4.2,23.6,9.8
		c27.1,26,53.1,53.1,83.5,83.8c0-11.1,0-16.9,0-22.7c0-84.4-0.1-168.7,0-253.1c0-28.9,13.2-47.2,38-53.4c25.2-6.4,51.8,9.7,57.3,35
		c1.5,7.2,2.2,14.7,2.2,22c0.1,119.1,0.1,238.3,0,357.4c0,6.8-0.7,13.7-2,20.3c-4.4,22.9-22.2,37.7-45.7,37.7
		c-206.9,0.1-413.9,0.1-620.8,0c-23.4,0-40.9-15.1-45.4-38.1c-1-5-1.9-10.1-1.9-15.2c-0.1-122-0.2-244,0-366
		c0-26.8,12.5-45.5,33.2-52.3c33.6-11.1,64.2,13,64.3,51.3c0.2,84.4,0.1,168.7,0.1,253.1c0,6.1,0,12.2,0,18.2
		C253.6,813.5,255.1,814.2,256.6,814.9z"/>
	<path d="M175.5,109.7c-13.7-2.7-20.9-11.8-20-25.5c0.8-12.7,8.1-21,21.7-22c4.5-0.3,665.9-0.3,670.4,0c13.6,0.9,20.9,9.4,21.7,22
		c0.9,13.6-6.3,22.8-20,25.4C844.3,110.7,180.4,110.7,175.5,109.7z"/>
</g>
</svg>
