<?xml version="1.0" encoding="utf-8"?>
<!-- Generator: Adobe Illustrator 22.1.0, SVG Export Plug-In . SVG Version: 6.00 Build 0)  -->
<svg version="1.1" id="shop-1" xmlns="http://www.w3.org/2000/svg" xmlns:xlink="http://www.w3.org/1999/xlink" x="0px" y="0px"
	 viewBox="0 0 1024 1024" style="enable-background:new 0 0 1024 1024;" xml:space="preserve">
<g>
	<path d="M250.3,820.2c28.8-27.5,55.6-54.2,83.6-79.5c6.9-6.3,17.9-11.4,27-11.5c99.9-0.8,199.8-0.8,299.7,0
		c9.1,0.1,20,5.2,26.9,11.5c28,25.3,54.8,52,82.8,79c0.3-5.6,0.8-11.7,0.8-17.7c0.1-86.5-0.1-172.9,0.1-259.4
		c0.1-33.4,19.7-54.6,48.8-54c23.3,0.5,42.4,17.5,45.2,40.7c0.8,6.3,0.8,12.8,0.8,19.2c0,120.3,0.1,240.7,0,361
		c0,43.9-16.4,60.2-60.1,60.2c-197.4,0-394.9,0-592.3,0c-41.3,0-58.3-17-58.3-58.4c-0.1-121.5-0.1-243,0.1-364.5
		c0-8.7,0.2-17.7,2.5-26c5.5-19.6,24.4-32.4,45.1-32.3c20.6,0.2,39.1,13.5,44.3,33.3c2.3,8.9,2.8,18.5,2.8,27.7
		c0.2,83.5,0.1,167.1,0.1,250.6C250.3,806.6,250.3,813,250.3,820.2z M307.4,819.6c1.4,1.5,2.7,3.1,4.1,4.6c133.1,0,266.2,0,399.3,0
		c1-1.5,1.9-2.9,2.9-4.4c-16.2-15-32.1-30.4-48.9-44.9c-3.8-3.3-10.4-4.8-15.7-4.9c-92.3-0.3-184.5-0.3-276.8,0
		c-5.3,0-11.8,1.7-15.7,5C339.7,789.4,323.7,804.6,307.4,819.6z"/>
	<path d="M308.3,150.9c-19.6,42.6-38.7,81.9-55.6,122c-6.3,15.1-9.2,32.1-10.6,48.5c-1.8,20.3-1.6,41-0.1,61.3
		c1.3,17.5-5,30.2-17.2,41.7c-37.9,35.9-82.1,47.2-130.8,28.6c-49.9-19.1-75.2-58.1-81.3-111c-3.5-31,3.7-54.9,28.5-76.8
		C78,232.9,110.7,196,145.4,161.3c4.6-4.6,11.4-9.8,17.2-9.9C209.9,150.6,257.2,150.9,308.3,150.9z"/>
	<path d="M713.3,150.9c51,0,98.7-0.2,146.5,0.4c4.9,0.1,10.6,4.4,14.5,8.2c42.5,42.6,84.7,85.6,126.9,128.5c2.8,2.8,6,6,7.1,9.6
		c15.8,53.2-18.1,125.8-70.5,151.2c-52.8,25.6-115.4,10.9-150.8-35.9c-3.9-5.2-7.6-13-6.7-18.9c12-78.5-18.8-146.1-53.1-213
		C722.7,172.4,718.9,163.2,713.3,150.9z"/>
	<path d="M490.4,151c0,8.1,0,14.4,0,20.7c0,72.4,0.4,144.9-0.5,217.3c-0.1,9.5-4.1,20.8-10.2,28.1c-49.6,59.6-139,59.1-188-0.9
		c-5.4-6.6-7.9-16.3-9.5-25c-16-87.6,28.5-159.1,62.9-233.1c1.4-3.1,5.8-6.7,8.8-6.8C398.8,150.9,443.7,151,490.4,151z"/>
	<path d="M532.8,150.9c44.6,0,88.4-0.3,132.1,0.4c4.3,0.1,10.5,5,12.5,9.2c20.2,42.7,40.2,85.6,59,128.9c3.7,8.6,2.8,19.4,2.9,29.2
		c0.4,22.2-0.9,44.5,0.5,66.6c0.9,15.5-4.8,26.6-15,37.3c-52.2,55-139.7,51.2-186.1-8.7c-4-5.2-7.4-12.4-7.5-18.7
		c-0.5-78.9-0.2-157.8-0.1-236.7C531,156.8,531.8,155.1,532.8,150.9z"/>
	<path d="M510.7,103.1c-106.4,0-212.7,0-319.1-0.1c-6.4,0-14.8,1.5-18.7-1.8c-7.2-6.1-16.3-15.5-16-23.2
		c0.3-7.8,10.1-16.2,17.6-22.2c3.6-2.9,11.3-1.1,17.1-1.1c212.7,0,425.4,0,638.2,0c5.3,0,10.6-0.5,15.7,0.5
		c12.3,2.3,19.8,9.9,20.2,22.8c0.4,12.8-6.2,21.2-18.5,24.1c-5.6,1.3-11.6,1-17.4,1C723.5,103.1,617.1,103.1,510.7,103.1z"/>
</g>
</svg>
