<?xml version="1.0" encoding="utf-8"?>
<!-- Generator: Adobe Illustrator 22.1.0, SVG Export Plug-In . SVG Version: 6.00 Build 0)  -->
<svg version="1.1" id="silenced" xmlns="http://www.w3.org/2000/svg" xmlns:xlink="http://www.w3.org/1999/xlink" x="0px" y="0px"
	 viewBox="0 0 1024 1024" style="enable-background:new 0 0 1024 1024;" xml:space="preserve">
<g>
	<path d="M132.8,441.9c2.5-102.9,45.1-202.6,103.7-289.6c33.8-50.1,76.9-88.5,134.1-108.7c26.9-9.5,55-17.7,83.2-20.8
		c53-5.9,106.4-9.7,159.6-10.7c73-1.4,129.4,28.6,169.3,92.4c25.1,40.1,42.3,81.5,54.5,127.1c8.9,33.3,7,67,14.1,99.8
		c9.8,45.4,3.3,94.5,6,140.8c5.2,90.2-9.2,180.4-29.4,268c-22.4,97.5-42.7,179.4-125.4,244.6c-75.3,59.3-202.4,9.7-273.2-34.9
		C346,897.4,253.6,814.3,212.9,723.2c-22.4-50.1-43.6-101-61-152.9C137.6,527.3,131.8,484.3,132.8,441.9z M640.4,617.2
		c19.9-19,38.3-33.4,52.6-51.1c14.2-17.6,26.8-37.6,35.3-58.5c8.2-20.3,10.3-43.1,15.5-66.7c-5.6,1.1-6.3,1.1-6.6,1.4
		c-17.8,17.1-35.8,34-53.2,51.5c-83.7,84.4-184.9,130.1-303.5,138.1c-33.4,2.3-66.7,6.7-104.6,10.5C314.6,660.3,350,674,388.1,676
		c37.9,2.1,76,0.5,113,0.5c-23.5,30-49.2,61.5-73.4,94.1c-24.3,32.7-44.7,67.9-57,107.2c8.7-7.1,15.8-15.4,23.6-23.1
		c33.4-33.2,65.6-67.8,100.9-98.9c67.6-59.4,146.9-83.4,236.5-69.7c20.2,3.1,40.2,7.1,64.4,11.4
		C751.7,654.2,697.7,637.8,640.4,617.2z M403.7,359.5c0.5-31.8-9.3-40.2-39.3-31.3c-43.7,13-84.4,32.9-121.3,59.7
		c-30.5,22.1-43,62.2-32.6,98.4c7.3,25.3,26.1,37.5,52.2,33.8C331.7,510.3,402.6,429.6,403.7,359.5z M654.1,140.5
		c-14.8,5.7-30.4,9.9-44.2,17.3c-57.5,30.8-73.1,86.7-83.6,144.7c-4.3,23.9,5.6,32.6,28.1,23.4c33.3-13.6,66.5-28.4,97.6-46.5
		c27.5-16,45.5-41.8,53.2-73.4C713.9,169.8,692.5,143.1,654.1,140.5z"/>
</g>
</svg>
