<?xml version="1.0" encoding="utf-8"?>
<!-- Generator: Adobe Illustrator 22.1.0, SVG Export Plug-In . SVG Version: 6.00 Build 0)  -->
<svg version="1.1" id="stopwatch" xmlns="http://www.w3.org/2000/svg" xmlns:xlink="http://www.w3.org/1999/xlink" x="0px" y="0px"
	 viewBox="0 0 1024 1024" style="enable-background:new 0 0 1024 1024;" xml:space="preserve">
<g>
	<path d="M511.7,1010.8c-2.3,0-4.6,0-6.9,0c-104.6,1.9-193.2-37.6-269.4-106.6c-63.2-57.2-104.6-127.1-125.5-210.8
		C96.7,641,95.9,588,104,537.5c12.4-77.4,46.8-147.7,101.8-206.4c46.7-49.8,100.9-88.3,164.4-112.4c56-21.2,115-24.6,174.3-21
		c143.8,8.7,247.6,83.3,323.9,200.6c21.7,33.4,33,71.8,44.7,110.1c16.1,52.6,13.3,106,7.2,157.7c-6,51.3-25.7,101.2-54.4,146.2
		c-42.2,66.3-97.1,118.8-166.6,155.3c-23.3,12.2-49,20.3-73.9,29.1C588.7,1009.6,550.7,1014.5,511.7,1010.8z M511.2,962.8
		c189.7,9.8,365.5-161.9,364.2-361.3c-1.2-187-161.9-360.5-366.8-358.9C310.5,244.2,148,412.9,147.9,604.1
		C147.8,801.3,322,971.7,511.2,962.8z"/>
	<path d="M511.6,151.2c-20.2,0-40.4,0-60.6,0c-10.1,0-17.3-2.5-19.1-14.9c-0.9-6.5-6.5-13.5-11.8-18c-11.7-9.8-16.6-21.5-16.1-36.4
		c0.4-12.1-0.4-24.3,0.3-36.3c1.2-20.5,14.9-33.4,35.4-33.5c49.6-0.1,99.2-0.1,148.8,0c21.1,0.1,34.3,11.5,35.9,32.9
		c1.2,14.9,1.4,30.1-0.4,44.9c-1,8.5-5.1,18.4-11.2,24.1c-9.5,8.9-22,13.9-23.5,29.8c-0.3,3-11.2,6.8-17.3,7.1
		C552,151.8,531.8,151.2,511.6,151.2z"/>
	<path d="M132.9,307.1c5.1-9.5,8.2-19.1,14.4-26c15.4-17.2,31.7-33.6,48.6-49.3c12-11.2,25.6-20.6,43.6-12.4
		c13.4,6.1,13.2,12.6,2.6,22.4c-26.6,24.5-52,50.3-78.3,75.1c-5.3,5-12.7,7.8-19.1,11.7C141,321.9,137.3,315.2,132.9,307.1z"/>
	<path d="M511.3,288.1c168.6-8.2,320.2,140.7,320.5,313.4c0.4,179.8-151.8,324.9-332.5,318.9c-158.4-5.3-308.3-138-308.1-318.8
		C191.5,432.2,338.6,280,511.3,288.1z M510.4,315.6c-47.3-2.2-92,7.6-132.5,29.9c-90.7,50.1-146.2,125.8-156.2,230.8
		c-6.7,70.3,8.1,136.4,51.2,193.1c74.7,98.5,173.6,140.5,296.5,117.2c101.5-19.2,174.4-79.6,211.7-173.5
		c44.2-111.4,26-216.8-56.8-307.4c-10.6-11.6-16.7-11.3-25.7,2c-22.1,32.5-43.8,65.1-65.7,97.7c-26.7,39.8-53.1,79.8-80.3,119.2
		c-16.6,24-42.5,27.9-62.6,10.7c-19.7-16.9-19.2-41.4,2-61.8c63.3-60.9,126.8-121.6,190.3-182.3c11.1-10.6,10.5-16.6-2.6-25.5
		C628.3,331,572.1,313,510.4,315.6z"/>
</g>
</svg>
