<?xml version="1.0" encoding="utf-8"?>
<!-- Generator: Adobe Illustrator 22.1.0, SVG Export Plug-In . SVG Version: 6.00 Build 0)  -->
<svg version="1.1" id="stunned" xmlns="http://www.w3.org/2000/svg" xmlns:xlink="http://www.w3.org/1999/xlink" x="0px" y="0px"
	 viewBox="0 0 1024 1024" style="enable-background:new 0 0 1024 1024;" xml:space="preserve">
<path d="M179.6,566.7c-48.5-28-95.9-57.6-133.1-100.8c23.6,14.1,46.2,30.5,71,41.8c45.2,20.6,91.9,38.1,137.9,56.9
	c11.3,4.6,17.2-0.4,22.3-10.4c21.7-42.2,44-84.1,66.1-126.1c2.2-4.2,3.7-9.2,7-12.3c4.9-4.6,11-7.8,16.6-11.6
	c3.7,5.5,9.6,10.5,10.7,16.5c10.2,53,20.1,106.1,28.9,159.4c2,12.1,6.5,18.2,18.8,18.6c57.5,2.2,114.9,5.6,172.4,6
	c12.5,0.1,27.8-8.2,37.1-17.4c46.2-45.9,90.6-93.6,136-140.3c12-12.4,5.5-17.6-6.5-22.8c-20-8.7-40-17.6-59.5-27.4
	c-4.6-2.3-7.2-8.4-10.7-12.8c4.6-2.8,8.8-6.8,13.8-8.2c26.8-7.2,53.8-14,80.9-20.5c12.4-3,14.3-11.6,15.7-22.5
	c1.4-11.7-6.1-13.6-13.7-17.2C700.7,273,605.7,243,508.8,219.8C444.9,204.5,379.8,194,315.4,181c-15-3-25.4,1.7-32.1,15.2
	c-0.5,1.1-1.4,1.9-2,2.9c-17.9,28.6-18.1,28.7,2.1,56.2c13.7,18.6,28.5,36.4,41.9,55.2c3.2,4.5,2.9,11.6,4.2,17.5
	c-5.5,0-11.3,1.1-16.5-0.2c-29.3-7.4-58.3-16-87.8-22.8c-6-1.4-16.4,1-19.8,5.5c-17.1,22.6-32.5,46.4-48.4,69.7
	c-1.7,2.4-2.5,5.8-4.7,7.4c-3.9,2.9-9.3,7.3-12.6,6.3c-3.7-1.1-7.8-7.4-8.2-11.7c-2.3-29.4-4-58.9-5.1-88.5
	c-0.5-12.6-5.3-19.1-17.9-22.3c-26.4-6.7-52.5-14.6-78.4-22.8c-6.5-2.1-12.2-7-18.2-10.7c0.2-1.8,0.5-3.7,0.7-5.5
	c32.4-13.5,64.9-26.6,97-40.8c5-2.2,10.6-9.1,11-14.3c2.5-30.3,3.2-60.7,5.4-91.1c0.4-5.7,4.5-11.2,6.9-16.8
	c4.9,3.7,10.6,6.7,14.4,11.3c15.2,18.2,29.6,37.1,44.6,55.5c14.5,17.8,20.6,19,48.5,8.6c20.5-7.7,40.6-16.5,61.2-23.9
	c4.9-1.8,10.9-0.2,16.4-0.2c-0.6,5.3-0.3,10.9-1.9,15.9c-1.7,5.5-5.1,10.5-9.1,18.6c174.5,22.8,339.5,71.5,500.5,148.3
	c1.4-18.3,2.2-33.8,4.1-49.2c0.7-5.8,4-11.2,6.2-16.8c5.1,3.3,11.3,5.6,15,10c12.4,15,23.9,30.8,38.5,50
	c8.1-16.3,14.7-29.7,21.4-43.1c6.5-13,13.1-25.9,23.3-37.9c-3,11.9-5.4,23.9-9.2,35.5c-5.7,17.5-13,34.4-18.3,52
	c-2,6.6-2.7,16.9,0.9,20.9c3.8,4.1,14,4.3,20.8,2.9c26.1-5.3,51.8-12.5,78-17.5c7.1-1.4,15.1,2.2,22.7,3.5c-2.7,6-4.7,12.3-8.2,17.8
	c-4.1,6.5-9.1,12.5-14.5,18c-8.3,8.6-10.1,17.5-6.3,29.2c8.5,26.1,8.9,52.6-0.6,78.6c-5.2,14.3-4,25.8,6.3,37.7
	c4.1,4.8,3.7,13.4,5.4,20.3c-6.5-0.4-13.9,0.9-19.4-1.7c-12.5-5.7-21-4.6-31,6.2C898.1,567.7,841,595.3,780,614.7
	c-33.7,10.7-69.2,16.1-103.3,25.7c-13.2,3.7-26.5,10.3-37.2,18.8c-53.4,42.7-107,84.7-170.6,111.7c-27.1,11.5-27.3,12-22.7,40.8
	c6.2,38.7,13.4,77.2,19.3,115.9c1,6.7-2.5,14.1-3.9,21.2c-5.8-3-12.5-5-17.2-9.1c-40.4-35-80.8-69.9-120.3-105.9
	c-16.4-15-33.7-10.6-49.7-3.8c-40.4,17.2-79.7,36.8-119.8,54.5c-10.4,4.6-22.3,19.3-32.6,6.4c-4.2-5.2,3.5-21,7.1-31.5
	c5.4-15.5,19.3-32.4,16.1-45.4c-2.6-10.8-25-16.4-38.1-25.1c-54.4-36.2-79.4-89.7-87.1-152.3c-2.6-21.6-1.1-43.8-1-65.7
	c0-4.7,2.3-9.5,3.6-14.2c2,0,4,0,5.9,0c1.5,8.1,3.5,16.2,4.4,24.4c4.8,47.2,15.2,92.5,43.7,131.8c19.4,26.6,44.7,45.1,75.4,57.2
	c10.8,4.3,17,1.8,21.6-7.8c5.9-12.3,13.2-24.3,16.7-37.2c1.7-6.1-2.1-16-6.7-21.1c-35.7-39-72.4-77-108.2-115.8
	c-4.6-5-6-12.8-8.9-19.3c6.6-1.6,13.2-4.9,19.7-4.5c30.7,1.8,61.3,4.6,91.9,7C178.5,569.7,179.1,568.2,179.6,566.7z M926.4,497
	c-11.8-4.8-20.1-7.6-27.8-11.5c-11.6-5.9-20.3-5.4-29.3,5.8c-17.8,22-36.8,43.1-55.9,64.1c-3.5,3.9-9.8,5.3-14.8,7.9
	c-1.5-5.2-4.2-10.5-4.4-15.8c-0.5-18.4-0.2-36.9-0.2-55.4c-1.6-0.2-3.2-0.4-4.8-0.6c-26,32.8-51.9,65.7-81.3,102.9
	C791.2,579.2,865,556.8,926.4,497z"/>
</svg>
