<?xml version="1.0" encoding="utf-8"?>
<!-- Generator: Adobe Illustrator 22.1.0, SVG Export Plug-In . SVG Version: 6.00 Build 0)  -->
<svg version="1.1" id="support" xmlns="http://www.w3.org/2000/svg" xmlns:xlink="http://www.w3.org/1999/xlink" x="0px" y="0px"
	 viewBox="0 0 1024 1024" style="enable-background:new 0 0 1024 1024;" xml:space="preserve">
<g>
	<path d="M914.3,138.9c-23.3,9.7-45.9,21.4-69.8,28.9c-65.7,20.6-129.5,14.4-190.1-19c-55.7-30.7-97.6-76.1-134.8-126.6
		c-10-13.6-13.7-13.7-23.8,0.2c-28.7,39.2-60.6,75.3-100,104.3c-80.2,58.9-166,68.5-257.3,29.6c-17.6-7.5-34.8-16.2-52.1-24.3
		c-2.2,1.1-4.4,2.1-6.6,3.2c3.9,19.9,6.4,40.1,12.1,59.5c15.9,53.9,33.6,107.4,49.8,161.2c13.1,43.4,28.6,86.5,36.9,130.9
		c8.6,46.1,11.3,93.6,14.1,140.6c4.8,79.2,33.8,146.9,88.8,204.1c59,61.4,126.5,112,195.6,160.9c10.1,7.2,20.4,19.6,30.7,19.6
		c10.2,0,20.5-12.5,30.7-19.6c65.1-45.6,128.9-92.9,184.8-149.8c38.6-39.2,73.6-82,85.8-137.2c8.3-37.4,11.6-76,15.7-114.3
		c5.5-51.5,6.4-103.7,15-154.6c17.6-103.2,46.3-203.6,90.8-303C923.3,136,918.7,137.1,914.3,138.9z M802.9,384
		c-2.8,22.7-6.7,45.4-8.1,68.2c-4.3,68.9-5.3,138.1-11.9,206.8c-4.9,52-33.2,95-72.4,127.9C648.5,839,584,888,519.8,937.5
		c-5.1,3.9-18.1,4-23.4,0.3c-71.4-51.3-145.1-99.9-205.6-165c-36.6-39.4-58-84.7-61-139c-2.6-46.6-7.9-93-11.2-139.5
		c-0.8-11.9,2.9-24.2,2-36.1c-1.8-25.1-5.2-50.1-8-75.1c-0.6-5.1-2.1-10.2-2.5-15.3c-2.3-27.6,10.5-39,37.3-33.6
		c3.8,0.8,7.7,1.6,16.3,3.3c-2.3-13.8-4.2-24.2-5.7-34.7c-4.1-27.6,3.8-50.5,22.9-57.7c10.1-3.8,22.8-4.8,33.4-2.4
		c13.1,2.9,20.6-1.3,30.5-8.9c17-13.1,35.8-24.4,55.3-33.5c13.6-6.4,26.2-3.6,37.2,11.3c9,12.2,25.3,18.7,37.3,29.1
		c7.2,6.2,14.4,14,17.8,22.6c4.2,10.5,3.8,22.7,6.6,33.8c1.1,4.2,5.6,7.6,8.6,11.3c3.1-3.5,6.7-6.8,9.2-10.7
		c1.4-2.2,1.3-5.5,1.7-8.4c3.4-24,5.2-47.7,36.1-55.3c9.7-2.4,19.1-13.5,24.9-22.9c9-14.7,20.8-14.6,34.3-11.6
		c23.2,5.2,42.6,17.3,58.3,34.8c8.3,9.3,16.5,11.4,28.8,8.4c36.9-8.8,60.6,12.4,57.9,50.9c-1,13.9-3.6,27.8-5.7,43.5
		c10.5-1.7,17.7-3.5,24.9-4c17.1-1.1,27.5,8.2,27.8,25.4C805.9,366.9,804,375.5,802.9,384z"/>
	<path d="M694.9,548.8c-12.6-4.1-25.2-8-37.9-11.6c-12.9-3.7-16.2-12.7-12.2-24c3.6-10.2,9-19.8,14.1-29.5
		c16.8-32.3,16.6-32.1-10.4-57.3c-8.6-8-16.6-8.9-26.4-3.5c-12.6,6.9-25.2,13.6-38,20.1c-16.6,8.4-26.8,4.1-32.5-13.8
		c-4.2-13.1-6.8-26.9-12.5-39.3c-3-6.5-10.3-13.8-16.9-15.4c-10.3-2.4-21.8-1.5-32.4,0.5c-4.9,0.9-10.4,6.6-12.8,11.6
		c-4.3,8.7-6.5,18.4-9.4,27.7c-12.5,40.2-15.3,41.2-52.9,20.1c-10.4-5.9-21.4-10.7-35.1-17.6c-8.9,8.1-17.9,16.4-26.9,24.7
		c-8.6,8-10.9,16.5-4.2,27.4c7.5,12.2,14.1,25,20.2,38c8,16.9,3.9,25.6-13.5,31.1c-12,3.8-24.7,6.3-36,11.7
		c-8.1,3.9-18.7,10.3-20.7,17.7c-9.1,31.9-0.1,45.1,32.5,53.1c3.4,0.8,6.8,1.4,10.1,2.4c35.7,11,37.7,16,20.5,49.3
		c-1.8,3.6-3.1,7.5-4.9,11c-16.8,31.9-16.8,31.9,9.7,55.8c1.3,1.2,2.4,3.1,3.8,3.4c6.7,1.2,14.6,4.4,20.2,2.2
		c13.8-5.4,26.6-13.3,39.7-20.4c18.4-9.9,28.3-5.9,34.4,14.1c2.5,8.2,4.5,16.6,7.6,24.7c11.6,30.8,16.7,34.3,49.7,29
		c6.5-1.1,14.4-8.3,17.3-14.7c5.9-13,8.4-27.4,13-41c6.1-18.2,16-21.8,32.6-13c10.6,5.7,22.6,9.4,32,16.6
		c15.7,12.1,27.1,7.8,38.1-5.8c2.9-3.6,6.2-6.8,9.4-10.1c7.1-7.3,9.9-14.6,3.9-24.5c-7.4-12.2-13.6-25.2-20.1-38
		c-8.9-17.5-5.7-26.2,12.6-33c12.4-4.6,25.3-7.8,37.6-12.5c21.2-8.1,21-9.9,20.9-40.6C718.8,558.2,707.9,553.1,694.9,548.8z
		 M509.1,648.3c-34.7,0.9-65.3-28.9-65.6-63.8c-0.3-35.9,30-67.1,64.9-66.8C542,518,571.7,548,572.2,582
		C572.8,617.4,544.2,647.3,509.1,648.3z"/>
</g>
</svg>
