<?xml version="1.0" encoding="utf-8"?>
<!-- Generator: Adobe Illustrator 22.1.0, SVG Export Plug-In . SVG Version: 6.00 Build 0)  -->
<svg version="1.1" id="swords" xmlns="http://www.w3.org/2000/svg" xmlns:xlink="http://www.w3.org/1999/xlink" x="0px" y="0px"
	 viewBox="0 0 1024 1024" style="enable-background:new 0 0 1024 1024;" xml:space="preserve">
<g>
	<path d="M48.7,997.4c0-44.3-0.7-85.7,0.7-127c0.3-7.6,8-15.9,14-22.1C162.1,747.6,261,647.1,360.1,546.9
		c8.4-8.5,10.2-13.8,0.1-23.3c-25.3-23.7-50.6-47.7-73.3-74c-17.3-19.9-35.2-19.5-57.4-13.3c-48.3,13.6-97,25.8-145.7,37.9
		c-5.2,1.3-11.5-2.1-17.2-3.3c1.8-6.1,2.1-13.3,5.6-17.9c6.5-8.5,15-15.4,22.5-23c28.4-28.6,56.4-57.5,85.2-85.6
		c10.4-10.1,9.6-16.6-0.3-26.7C125.5,262.3,71.9,206.3,18.1,150.5c-8.3-8.6-8-41.6,0.6-50.4C41.3,77,64.1,54,87,31.2
		c7.9-7.9,35.7-5.8,43.8,2.5c55.5,57.3,111.3,114.4,166.5,172c11.4,11.9,17.2,0.9,23.1-5c27.1-27.3,53.4-55.4,80-83.2
		c7.5-7.8,14.1-16.8,22.5-23.3c4.9-3.8,12.7-3.7,19.2-5.4c1.2,7.3,4.8,15.3,3.2,21.9c-11.7,48.7-24.3,97.3-37,145.7
		c-4.3,16.5-0.5,28.5,11.9,40.4c27.3,26.1,53.5,53.4,79.4,80.9c9.4,9.9,16.8,9.2,25.5,0.2c28.5-29.3,57.5-58.1,85.3-88
		c4.9-5.2,8.7-15.4,7.4-22.2c-6.6-33.9-14.9-67.4-23.1-101c-5.1-21-11.4-41.7-16.1-62.7c-1-4.4,1.4-11.2,4.7-14.4
		c2.3-2.2,9.2-1.4,12.9,0.4c5.2,2.4,9.8,6.7,13.9,10.9c31.2,32.5,62.2,65.4,93.4,97.9c15.6,16.3,15.9,15.7,31.7-0.7
		C788.8,142.5,842.8,87,896.8,31.5c7.4-7.7,36.2-6.6,44.1,1.3c21.6,21.6,43.2,43.2,64.7,64.9c9.8,9.9,7.8,46.4-2,56.5
		c-54,55.6-108,111.3-161.2,167.7c-3.1,3.3-2.3,15.8,1.2,19.4c33.1,34,67.2,67,100.9,100.3c3.4,3.4,7.3,6.9,9,11.1
		c2.5,6.1,3.3,12.9,4.8,19.5c-6,0.8-12.4,3.4-17.8,2c-48.6-12.4-97.1-25.4-145.5-38.4c-19.6-5.3-36.8-7.5-53.1,11.3
		c-22.7,26.3-48.4,49.8-73,74.4c-10.2,10.1-12.1,17.6,0,29.7c94.3,94.8,187.1,191.2,282.2,285.2c19.7,19.4,27.3,38.7,26,65.4
		c-1.5,30.9-0.4,61.9-0.4,94.8c-5.5,0.3-11.8,0.8-18.1,0.8c-39.7,0.1-79.4-0.4-119.1,0.3c-13.3,0.2-21.9-3.6-31.7-14
		C756.3,929.1,703.4,876,651.2,822.2c-42.6-43.9-85-88-127-132.3c-7.9-8.3-13.2-7.3-20.6,0.3c-93.2,95.5-187.4,190.1-279.4,286.9
		c-15.7,16.5-30.1,21.1-50.3,20.6C132.6,996.8,91.2,997.4,48.7,997.4z"/>
</g>
</svg>
