<?xml version="1.0" encoding="utf-8"?>
<!-- Generator: Adobe Illustrator 22.1.0, SVG Export Plug-In . SVG Version: 6.00 Build 0)  -->
<svg version="1.1" id="sword" xmlns="http://www.w3.org/2000/svg" xmlns:xlink="http://www.w3.org/1999/xlink" x="0px" y="0px"
	 viewBox="0 0 1024 1024" style="enable-background:new 0 0 1024 1024;" xml:space="preserve">
<style type="text/css">
	.st0{fill-rule:evenodd;clip-rule:evenodd;}
</style>
<g id="Play">
	<g>
		<path class="st0" d="M794.2,194.5l28.8,29.5L501.9,552.5l83,84.9l416.6-426.2L999,14.4L806.7,12L390.1,438.1l83,84.9L794.2,194.5z
			 M208.3,913.4c-0.3-24.1-9.2-46.9-25-64.6c-17.3-16.1-39.6-25.2-62.9-25.5l-3.1,0C66,824,23.9,867.4,23.9,920.7
			c0,24.3,8.9,47.6,25,65.7c17.7,16.5,40.4,25.6,64.2,25.6c52.1,0,94.6-43,95.2-96.2L208.3,913.4L208.3,913.4z M311.2,637.1
			L162.7,789c0.8,0.3,1.5,0.7,2.3,1c2.9,1.1,5.7,2.2,8.5,3.5c1.4,0.6,2.9,1.3,4.3,2c2.6,1.3,5.2,2.7,7.8,4.2
			c1.4,0.8,2.8,1.6,4.2,2.5c2.6,1.6,5.2,3.4,7.7,5.3c1.2,0.9,2.4,1.7,3.6,2.6c3.6,2.8,7.1,5.7,10.4,8.9l1.1,1.1
			c3.1,3.4,6,7,8.7,10.7c0.9,1.2,1.7,2.5,2.5,3.7c1.8,2.5,3.5,5.1,5.1,7.7c0.9,1.5,1.7,3,2.5,4.6c1.4,2.5,2.7,5,3.9,7.6
			c0.8,1.6,1.5,3.3,2.2,4.9c1.1,2.6,2.1,5.2,3.1,7.9c0.3,1,0.8,1.9,1.1,2.9l148.5-151.9l-76.2-78L311.2,637.1z M458.7,567.2
			L332.5,438.1l0,0l-69.8-71.4c-17.8-18.3-41.5-28.3-66.7-28.3c-52,0-94.3,43.3-94.3,96.4s42.3,96.4,94.3,96.4c3.7,0,7.4-0.3,11-0.7
			l-41.8-42.8l28.8-29.5l55.7,57l0,0L509.4,781l55.7,57l-28.8,29.5l-41.8-42.8c-0.4,3.7-0.7,7.5-0.7,11.3
			c0,53.2,42.3,96.4,94.3,96.4c52,0,94.3-43.3,94.3-96.4c0-25.8-9.8-50-27.7-68.3L458.7,567.2z"/>
	</g>
</g>
</svg>
