<?xml version="1.0" encoding="utf-8"?>
<!-- Generator: Adobe Illustrator 22.1.0, SVG Export Plug-In . SVG Version: 6.00 Build 0)  -->
<svg version="1.1" id="target-scope" xmlns="http://www.w3.org/2000/svg" xmlns:xlink="http://www.w3.org/1999/xlink" x="0px"
	 y="0px" viewBox="0 0 1024 1024" style="enable-background:new 0 0 1024 1024;" xml:space="preserve">
<style type="text/css">
	.st0{fill-rule:evenodd;clip-rule:evenodd;}
</style>
<g id="In_Game_Objective_NEW">
	<g>
		<path class="st0" d="M469.4,165V12C214.1,25.4,25.4,216,12,471.4h152.9C177.9,300.3,298.4,178,469.4,165z M552.8,779
			c126.5-12.6,213.3-99.4,225.9-226H593.4c-14.7,0-26.7-26.1-26.7-40.8c0-14.8,12-40.8,26.7-40.8h185.4
			c-12.6-126.6-99.4-213.4-225.9-226v185.4c0,14.8-26.1,26.7-40.8,26.7c-14.8,0-42.6-12-42.6-26.7V245.4
			c-126.5,12.6-211.6,99.4-224.1,226h185.4c14.7,0,26.7,26.1,26.7,40.8c0,14.8-12,40.8-26.7,40.8H245.3
			c12.6,126.6,97.6,213.4,224.1,226V593.6c0-14.8,27.8-26.7,42.6-26.7c14.7,0,40.8,12,40.8,26.7V779z M859.1,471.4H1012
			C998.6,216,808.1,25.4,552.8,12v153C723.8,178,846.1,300.3,859.1,471.4z M164.9,553H12C25.4,808.4,214.1,999,469.4,1012.4v-153
			C298.4,846.4,177.9,724.1,164.9,553z M859.1,553c-13,171.1-135.3,293.4-306.2,306.4v153C808.1,999,998.6,808.4,1012,553H859.1z"/>
	</g>
</g>
</svg>
