<?xml version="1.0" encoding="utf-8"?>
<!-- Generator: Adobe Illustrator 22.1.0, SVG Export Plug-In . SVG Version: 6.00 Build 0)  -->
<svg version="1.1" id="team-2" xmlns="http://www.w3.org/2000/svg" xmlns:xlink="http://www.w3.org/1999/xlink" x="0px" y="0px"
	 viewBox="0 0 1024 1024" style="enable-background:new 0 0 1024 1024;" xml:space="preserve">
<g>
	<path d="M742.5,614.7c-35-65.2-190.8-144.9-235.8-196.9c-44.9-51.9,0-122,0-122c45.7-1.2,59.4-35,59.4-35s101.4,2.4,137.7,3.6
		c0.9,0,1.8,0,2.7,0c33.3,0,29.9-21.8,29.9-21.8l13.3-61.6c4-19.3-9.7-22.5-19.2-22.5c-4.8,0-8.5,0.8-8.5,0.8
		c-114.7-7.2-260.9-37.4-301.9-48.3c-41.1-10.9-45.9-99-45.9-99c-111.1,177.5-124.4,318.8-56.8,468.6
		c56.4,124.8-19,328.5-45.6,392.9C238,867.1,203.7,859,168.9,849v124.4c0,0,139.6,38.6,337.8,38.6c99.1,0,212.9-9.7,331.3-38.6V849
		c0,0-28.7,9.4-78.5,19.6C799.9,746.5,775.4,675.8,742.5,614.7z M340.5,470.2C282.6,341.8,288.7,222.9,363,82
		c11.3,29.7,28.3,47.7,50.6,53.6c37.8,10,186.7,41.5,306.8,49.1c0.7,0,1.4,0.1,2,0.1c0.2,0,0.4,0,0.6,0l-11.3,52.6
		c-0.1,0.5-0.2,1-0.3,1.5c-1.2,0.2-2.8,0.3-4.8,0.3c-0.6,0-1.2,0-1.9,0c-35.9-1.2-136.9-3.6-137.9-3.6c-0.2,0-0.4,0-0.6,0
		c-10.3,0-19.6,6.2-23.5,15.8c-0.1,0.2-8.3,18.5-36.6,19.2c-8.4,0.2-16.1,4.6-20.7,11.7c-1.4,2.2-13.8,22-20.2,49.4
		c-9.3,39.6-1.5,75.2,22.4,102.8c20.7,24,59.9,51.3,101.4,80.3c50.6,35.3,113.5,79.2,131.1,112c14.6,27.1,30,60.5,34,102.7
		c4,41.8-3.4,88.4-22.5,142c-34.6,6.2-131.2,21.6-243.5,21.6c-69.6,0-133.3-5.8-189.8-17.3C328.6,801.1,399.2,600.1,340.5,470.2z
		 M812.6,953.3c-97.1,22.1-199.9,33.3-305.9,33.3c-151.2,0-268.6-23.1-312.4-33.2v-71.3c97.4,25.1,200.1,37.8,305.8,37.8
		c145.4,0,259.1-23.8,312.6-37.5V953.3z"/>
	<path d="M386.5,167.7c-2.8,3.8-8.2,13.4-5.1,18.4c1.6,2.6,13.3,6,15.7,3.4c10.9-12.1,49.5-19.3,49.5-19.3v-9.7
		C428.1,160.6,399.1,150.6,386.5,167.7z"/>
	<path d="M293.3,486.6c0,0-88.2-171.5-22.9-304.3c0,0-51.9-37.4-51.9-37.4c1.6,1.2-24,93.8-25.2,101.4
		c-16.5,100.1,29.6,195.5,60.2,288.7L293.3,486.6z"/>
	<path d="M713.6,281.1c-17.2,0.5-34.3,1.1-51.5,1.6c-23.5,0.7-47,1.5-70.5,2.2c-12.1,16.9-38.6,21.7-38.6,21.7
		c-12.5,2.3-23,35.8-24.8,45.5c-4.3,22.2-1.5,46.3,9.7,66.2c5.2,9.2,12.2,17.5,20.6,24c2,1.6,9.2,4.6,10.3,6.8
		c-37.4-73.7,8.5-114.7,8.5-114.7c19.3,2.4,33.8-16.9,33.8-16.9c7.2-14.5,31.4-13.3,31.4-13.3s73.7,1.2,115.9,0
		c42.3-1.2,38.8-18.1,38.8-18.1l16.7-74.9c1.2-19.3-20.5-21.5-20.5-21.5c-11.6-0.7-13,11.5-13.6,21.5c-0.2,2.7-0.3,5.3-0.5,7.4
		c-2.1,16.6-7.2,32.6-12.1,48.5c-1.6,5.4-4.5,10.7-9.5,13.4C749.7,284.7,724,280.8,713.6,281.1z"/>
	<path d="M855.1,265.5c1.1-17.7-18.8-19.7-18.8-19.7c-10.6-0.7-11.9,10.5-12.4,19.6c-0.2,2.5-0.3,4.9-0.5,6.8
		c-1.9,15.2-6.6,29.8-11,44.4c-1.5,4.9-4.1,9.8-8.7,12.2c-7.3,3.8-30.8,0.2-40.2,0.5c-15.7,0.5-31.4,1-47.1,1.5
		c-21.5,0.7-43,1.4-64.5,2c-11,15.5-35.3,19.9-35.3,19.9c-11.4,2.1-21,32.8-22.7,41.6c-3.9,20.3-1.4,42.4,8.9,60.5
		c4.8,8.4,11.2,16,18.8,22c1.8,1.4,8.4,4.2,9.4,6.2c-34.2-67.4,7.7-104.9,7.7-104.9c17.7,2.2,30.9-15.5,30.9-15.5
		c6.6-13.3,28.7-12.1,28.7-12.1s67.4,1.1,106,0c38.7-1.1,35.5-16.6,35.5-16.6L855.1,265.5z"/>
</g>
</svg>
