<?xml version="1.0" encoding="utf-8"?>
<!-- Generator: Adobe Illustrator 22.1.0, SVG Export Plug-In . SVG Version: 6.00 Build 0)  -->
<svg version="1.1" id="thumbs-up-1" xmlns="http://www.w3.org/2000/svg" xmlns:xlink="http://www.w3.org/1999/xlink" x="0px"
	 y="0px" viewBox="0 0 1024 1024" style="enable-background:new 0 0 1024 1024;" xml:space="preserve">
<g>
	<path d="M1002.7,642.2c-15.3-27.8-10.5-46.9-1.1-72c17.8-47.6,2-91.6-43.2-114.6c-21.4-10.9-47.1-17.2-71.1-17.8
		c-31.4-0.8-35.8-7.7-29.9-39.7c12.8-69.5,22.1-140.2,24.4-210.7c1.7-50.9-21.7-98.4-62-131.1c-18.3-14.8-51.9-30.5-68.1-23
		c-19.2,8.8-31.9,40.8-38.8,65.2c-12.3,43.1-18.5,87.9-26.6,132.2c-13.1,71.4-58.9,115.5-122.9,140.8
		c-59.5,23.5-121,41.7-181.4,62.6c-77.8,26.9-110,69.6-113.2,152.7c-1.7,43.8-0.3,87.8-0.3,131.7c0.1,0,0.2,0,0.3,0
		c0,36.8-0.1,73.6,0,110.4c0.4,80.5,32.3,118.3,110.6,135.8c147.8,33.1,296.5,34.9,445.9,14.9c18.5-2.5,37.6-7.9,54.1-16.4
		c11.6-5.9,27.6-19.5,27.4-29.3c-0.7-28,20.2-37,33.8-53.9c16.7-20.8,38.3-48.4,36.1-70.9c-2.5-24.8,1.2-42.4,12.3-62
		C1007.6,714,1021.1,675.6,1002.7,642.2z"/>
	<path d="M241.8,575.8c0-52-19.3-88.9-61.7-100.6C131.7,461.9,79.8,455.3,41,497.8c-14.7,16.1-26.6,41.2-27.2,62.5
		c-2.7,98.2-1.9,196.6-0.6,294.9c0.7,51.4,38.7,88.5,90.2,91.6c14.2,0.9,28.4,0.6,42.6,0.1c55.9-2,93.3-38.3,94.8-94
		c1.3-48.5,0.3-97.1,0.3-145.7c0.2,0,0.5,0,0.7,0C241.8,663.4,241.9,619.6,241.8,575.8z"/>
</g>
</svg>
