<?xml version="1.0" encoding="utf-8"?>
<!-- Generator: Adobe Illustrator 22.1.0, SVG Export Plug-In . SVG Version: 6.00 Build 0)  -->
<svg version="1.1" id="timer" xmlns="http://www.w3.org/2000/svg" xmlns:xlink="http://www.w3.org/1999/xlink" x="0px" y="0px"
	 viewBox="0 0 1024 1024" style="enable-background:new 0 0 1024 1024;" xml:space="preserve">
<g>
	<path d="M1011.9,492C1006.4,236.5,782.1,7,498,12.1C242,16.6,12.3,244.2,12,508.5c2.3,281.9,239.6,503.2,486.3,502.4
		C789.7,1009.9,1018.3,790.2,1011.9,492z M502.1,871.5c-177.8,0.6-348.9-159-350.5-362.1c0.2-190.5,165.8-354.6,350.3-357.8
		c204.8-3.6,366.4,161.7,370.4,345.9C877,712.3,712.1,870.7,502.1,871.5z"/>
	<path d="M722.2,626.3C674.4,585,633.3,553.8,585.9,512c-12-10.6-24.3-26.2-26.8-41.1c-4.9-29-4.2-75.7-3.5-105.3
		c0.5-18.5-3.2-34.5-12.5-50.4c-18.6-31.7-47.2-32.8-65.1-0.4c-6.1,11.1-8.8,25-9.7,37.8c-1.5,22.1-0.4,60.8-0.4,83
		c-0.2,0-0.3,0-0.5,0c0,22.8-1.3,45.7,0.5,68.3c1,11.8,4.5,25.7,12,34.1c17,19.1,36.5,36.2,56.2,52.5c45.7,37.8,83.5,67,130.3,103.5
		c24.6,19.2,48.8,23.6,71.1-3.3C753.3,671.8,743.7,644.8,722.2,626.3z"/>
</g>
</svg>
