<?xml version="1.0" encoding="utf-8"?>
<!-- Generator: Adobe Illustrator 22.1.0, SVG Export Plug-In . SVG Version: 6.00 Build 0)  -->
<svg version="1.1" id="today" xmlns="http://www.w3.org/2000/svg" xmlns:xlink="http://www.w3.org/1999/xlink" x="0px" y="0px"
	 viewBox="0 0 1024 1024" style="enable-background:new 0 0 1024 1024;" xml:space="preserve">
<g>
	<path d="M1006.9,362.2c-15.6-37.2-32.5-73.8-48.2-111c-15.5-36.8-30.9-73.7-46.3-110.7c-7.9-19-15.8-37.9-23.7-56.9
		c-5.1-12.3-10.7-41-25.3-43c-3.6-0.5-7.7,0.6-12.5,4c-12.5,8.8-22,28.7-31.5,40.8c-11.1,14.1-22.5,28-35.2,40.7
		C683.5,227.1,566,305.5,439.6,370.2c-126.8,64.9-195.3,200.1-174.9,344c24.2,170.7,202.5,294,371.5,265
		C822.4,947.2,941,780.1,906,599c-3.3-26.2-12-54.3-23-78.3c-5.4-11.8-12.9-22.5-20.7-32.8c-4-5.2-8.1-10.4-12.2-15.6
		c-4.8-6.1-10.4-10.9-16-16.1c-2.8-2.6-5.7-5.2-8.5-7.8c-1.4-1.3-2.8-2.6-4.5-3.6c-8.7-5.4-21.2,0-30.4,1.2
		c-12.3,1.7-102.6,21.8-109.7,24.3c14.4,17.5,34.5,28.7,49.6,45.3c14.6,16,26.2,34.7,36.4,53.8c1,1.8,1.9,3.6,2.9,5.4
		c18.6,36,24,76.5,16,116.1c-18.7,91.8-92.6,155.5-179.4,159c-91.3,3.6-169-53.2-196.3-143.6c-24.1-79.8,15.2-175.8,95.8-220.5
		c149.7-83,308.5-123.5,480.7-92.4c7.9,1.4,21.5-0.8,24.2-5.7C1014,381.7,1010.3,370.2,1006.9,362.2z"/>
	<path d="M69.5,561c-7.7,2.5-53.8,17.7-57.5,13.3c1.6,1.8,48.3,145,63,148.2c-4.2-0.9,42.4-29.1,45.5-30.7
		c27.1-13.7,52.6-28.3,79.9-41.4c1.9-63.5,21.4-123.6,55.7-174.4c-20.5,9.9-96.6,47-110.7,53.9C120.9,542.1,95.6,552.8,69.5,561z"/>
</g>
</svg>
