<?xml version="1.0" encoding="utf-8"?>
<!-- Generator: Adobe Illustrator 22.1.0, SVG Export Plug-In . SVG Version: 6.00 Build 0)  -->
<svg version="1.1" id="top-lane" xmlns="http://www.w3.org/2000/svg" xmlns:xlink="http://www.w3.org/1999/xlink" x="0px" y="0px"
	 viewBox="0 0 1024 1024" style="enable-background:new 0 0 1024 1024;" xml:space="preserve">
<style type="text/css">
	.st0{fill:#010101;}
</style>
<g>
	<path class="st0" d="M924.8,356.8c0-4.5-3.4-8.3-7.9-8.7c-0.5-0.1-50.8-5.5-90.9-47.3c-1.6-1.7-3.9-2.7-6.2-2.7
		c-2.6,0-4.6,0.9-6.3,2.5L312.5,796.4c-3.3,3.2-3.5,8.4-0.5,11.9c0.4,0.4,36.9,43.9,30.1,94.8c-0.3,2.5,0.4,5,2,6.8
		c1.6,1.9,4,3,6.4,3.1c50,1.2,100,2.3,150,3.4c28.7,0.6,57.4,1.3,86.1,1.9c6.9,0.2,13.7,0.3,20.6,0.3c36.7,0,73.5-4.5,104.6-37.4
		c37.8-40,74.9-79,114.4-116.3c6.5-6.2,13.2-12.3,19.8-18.4c22.4-20.7,45.5-42,65.6-66.1c0,0,0,0,0,0c13.5-16.1,13.3-33.7,13.1-50.7
		L924.8,356.8z M898.3,669.4c-19.4,23.2-42.1,44.1-64.1,64.4c-6.7,6.1-13.3,12.3-19.9,18.5c-39.9,37.6-77.2,76.8-115.2,117
		c-31.5,33.4-70.7,32.6-112.1,31.6c-28.7-0.7-57.4-1.3-86.1-1.9c-46.9-1-93.8-2.1-140.7-3.2c2-42.6-19.8-78.2-30-92.3l489.5-484.2
		c33.7,31.7,71.5,42,87.6,45.1v260l0,5.8C907.5,645.2,907.6,658.2,898.3,669.4z"/>
	<path class="st0" d="M1003,166.6H735.5c-4.3,0-7.9,3.1-8.6,7.3c-6.8,41.7,17.9,76.6,29.9,90.7L281,731.5c-1.7,1.7-3.4,3.6-5.2,5.6
		c-1.6,1.8-3.3,3.6-4.9,5.2c-22.7-24.2-55.7-33.8-74.1-37.4c-29.6-5.9-36-0.6-38.4,1.3c-2.9,2.3-4.5,5.6-4.5,9.3
		c0,6.7,0.1,13.5,0.2,20.2c0.1,6,0.2,12,0.2,18.1v240.2c0,4.8,3.9,8.7,8.7,8.7h178.6c29.3,0,59.2-0.3,88.1-0.6
		c59-0.6,119.9-1.2,179.5,0.7l5.1,0.2c7,0.2,14.4,0.5,21.9,0.5c13.3,0,26.9-0.8,39.5-3.9c25-6.1,45.8-22.8,59.2-34.8
		c23.1-20.7,44.3-43.7,64.8-66c17.2-18.7,35.1-38.1,53.8-55.7c8.7-8.2,17.4-16.3,26.2-24.4c34.6-32,70.3-65.2,100.6-102.7
		c29.6-36.7,31.3-99,31.4-101.8V175.4C1011.7,170.5,1007.8,166.6,1003,166.6z M966.8,704.8c-29.6,36.6-64.8,69.3-98.9,100.9
		c-8.8,8.2-17.6,16.3-26.3,24.5c-19.1,18.1-37.2,37.7-54.6,56.6c-20.2,22-41.2,44.7-63.6,64.8c-12,10.8-30.5,25.7-51.7,30.9
		c-17.4,4.3-37.3,3.6-56.6,2.9l-5.2-0.2c-30.6-1-61.4-1.3-92.1-1.3c-29.6,0-59.1,0.3-88.1,0.6c-28.8,0.3-58.7,0.6-87.9,0.6H171.8
		V753.7c0-6.1-0.1-12.2-0.2-18.3c-0.1-5.3-0.1-10.5-0.2-15.8c3.8-0.3,11.2,0.2,22,2.3c29.1,5.7,53.7,18.7,67.7,35.7
		c1,2,4.1,6.5,11.1,4.9c2.4-0.5,3.9-1.8,4.8-2.8c4.5-3.1,8.3-7.3,11.7-11.1c1.5-1.7,3-3.3,4.4-4.7l481.8-472.8
		c1.7-1.7,2.6-3.9,2.6-6.3c0-2.4-1-4.6-2.7-6.3c-0.4-0.3-34-33.5-31.7-74.6h250.9l0,429.8C994.2,614.4,992.7,672.8,966.8,704.8z"/>
	<path class="st0" d="M997.6,141l-115-120.4H363.7c0,0-48.1,16-58.8,32.1L53.8,305.1c0,0-42.8,30.8-41.5,88.3l0,442.7L126,965.8
		l6.7-527L426.5,141H997.6z"/>
</g>
</svg>
