<?xml version="1.0" encoding="utf-8"?>
<!-- Generator: Adobe Illustrator 22.1.0, SVG Export Plug-In . SVG Version: 6.00 Build 0)  -->
<svg version="1.1" id="weapon-shield" xmlns="http://www.w3.org/2000/svg" xmlns:xlink="http://www.w3.org/1999/xlink" x="0px"
	 y="0px" viewBox="0 0 1024 1024" style="enable-background:new 0 0 1024 1024;" xml:space="preserve">
<g>
	<path d="M900.7,377.4c0,85.8,0,171.6,0,257.4c0,15.3-3.4,29-9.8,43.7c-60.1,138.7-171.8,224.1-299.1,294
		c-21.6,11.9-42.1,26.2-64.4,36.5c-9.5,4.3-24.4,5-33.5,0.5c-30.6-15.1-59.8-32.9-89.2-50.2c-83.7-49.2-162.9-104.6-219.1-185.4
		c-24.3-35-41.2-75.3-60.1-113.9c-3.6-7.3-1.7-17.5-1.7-26.4c-0.1-175.8,0.1-351.5-0.6-527.3c-0.1-18,8.8-21.7,22.8-24.4
		c101-19.5,202-39.3,303-59c18.9-3.7,37.7-10.2,56.6-10.4c19.5-0.2,39.1,5.2,58.5,9c81.9,15.8,163.7,31.9,245.6,47.8
		c24.4,4.7,48.7,9.7,73.1,13.8c13.3,2.3,18.4,8.5,18.4,22.6C900.5,196.3,900.7,286.8,900.7,377.4
		C900.7,377.4,900.7,377.4,900.7,377.4z M756.1,593.9c1.8-0.4,3.6-0.7,5.3-1.1c1-4.8,3-9.6,3-14.4c-0.1-51.5-0.8-102.9-0.8-154.4
		c0-15.5-5.4-22.5-21.8-22.4C589.2,402,436.6,401.8,284,402c-25.3,0-30,5.5-30.1,30.1c-0.3,48.5-1.3,96.9-1.6,145.4
		c0,4.7,3,9.4,4.6,14.1c5.3-3,12.3-4.6,15.7-9.1c46-60.8,110.8-86.9,183.1-95.4c54.6-6.4,109.3-6.1,163.4,10.8
		c51.1,16,95.4,40.2,127.5,84.1C749.5,586.2,752.9,590,756.1,593.9z M520.7,714.7c0.1,0,0.1,0,0.2,0c0,62.1-0.1,124.2,0.2,186.3
		c0,5.9,3.2,11.8,5,17.8c5.9-2.1,12.5-3.2,17.6-6.5c11.9-7.7,22.9-16.7,34.6-24.8c14.7-10.1,21.8-22.6,21.6-41.5
		c-0.8-93.4-0.4-186.9-0.4-280.3c0-54.6-0.6-55.2-56.2-56.6c-18.6-0.4-22.6,3.8-22.6,22.9C520.7,592.9,520.7,653.8,520.7,714.7z
		 M503.3,714.6c0.1,0,0.2,0,0.3,0c0-61.5-0.2-122.9,0.2-184.4c0.1-15-5.9-22.2-21-21.2c-11.2,0.8-22.4,1.2-33.6,2.7
		c-21,2.7-24.9,7.5-24.9,28.7c0.1,86.9-0.3,173.7,0.5,260.6c0.8,79.9-12.3,58.6,53,108.9c0.5,0.4,0.9,0.9,1.4,1.1
		c6.3,2.5,12.7,5,19,7.5c1.7-6.5,4.9-13,5-19.5C503.4,837.5,503.3,776,503.3,714.6z M566.3,306.7c-0.1,0-0.1,0-0.2,0
		c0-17.1,0-34.2,0-51.3c0-17.5-4.6-20.7-19.8-13.4c-22.7,10.9-45.4,11.3-67.9,0c-11.2-5.6-17.2-2.5-17.3,10
		c-0.2,37.2-0.2,74.3,0,111.5c0.1,13.6,6.9,20.3,21.2,19.8c20-0.7,40.1-0.3,60.1-0.3c17.3,0,23.5-5.7,23.8-23.2
		C566.5,342.1,566.3,324.4,566.3,306.7z M575.7,159.2c1.6-24.4-14.4-43.2-29.3-62.2c-14.6-18.6-46.6-20.4-62.7-3.1
		c-9.6,10.3-18.2,21.8-25.8,33.6c-15.5,24.1-12.9,51.8,6,75.4c16.3,20.4,41.9,29.4,62.4,22.2C558.9,213.5,575.5,192.1,575.7,159.2z"
		/>
</g>
</svg>
