<?xml version="1.0" encoding="utf-8"?>
<!-- Generator: Adobe Illustrator 22.1.0, SVG Export Plug-In . SVG Version: 6.00 Build 0)  -->
<svg version="1.1" id="brand-mark" xmlns="http://www.w3.org/2000/svg" xmlns:xlink="http://www.w3.org/1999/xlink" x="0px" y="0px"
	 viewBox="0 0 1024 1024" style="enable-background:new 0 0 1024 1024;" xml:space="preserve">
<style type="text/css">
	.st0{fill:#231F20;}
</style>
<g>
	<path class="st0" d="M481.5,323.9c-69.2,13.9-120.3,74.9-120.3,148.4c0,79.4,59.8,143.4,137.3,150c-7.7,7.6-15,14.9-15,15.4
		c0,17.9,32.4,374.3,32.4,374.3s32.4-356.4,32.4-374.3c0-0.6-7.8-8.4-15.8-16.2c73.9-10,130.1-72.3,130.1-149.1
		c0-71.5-48.7-131-115-147.1V20c0-4.2-3.8-8-8-8h-50.3c-4.6,0-8,3.8-8,8L481.5,323.9z M511.8,555.8c-45.7,0-83.5-37.7-83.5-83.5
		c0-46.1,37.7-84.3,83.5-84.3c46.1,0,83.9,38.2,83.9,84.3C595.7,518,557.9,555.8,511.8,555.8z"/>
</g>
</svg>
