<?xml version="1.0" encoding="utf-8"?>
<!-- Generator: Adobe Illustrator 22.1.0, SVG Export Plug-In . SVG Version: 6.00 Build 0)  -->
<svg version="1.1" id="caution-outline" xmlns="http://www.w3.org/2000/svg" xmlns:xlink="http://www.w3.org/1999/xlink" x="0px"
	 y="0px" viewBox="0 0 1024 1024" style="enable-background:new 0 0 1024 1024;" xml:space="preserve">
<g>
	<rect x="468.5" y="672.2" width="84.9" height="84.9"/>
	<path d="M563.2,401.7c-10.1-16.1-31.5-36.7-51.8-36c-13.3,0.5-26.6,8.5-35.8,17.8c-10.7,9.2-24.9,34.1-31.5,55.5
		c-5.9,18.9-5.4,40.4-4.8,59.9c1.4,40.3,12.9,76.7,26.4,114.3c0,0,92.1,0,92.1,0c2.8,0,13.1-38.7,14.4-43.1
		c4.4-15.1,8.1-30.5,10.1-46.2c3.5-26.7,5.2-58.9-2.9-85C575.5,426,570.4,413.2,563.2,401.7z"/>
	<path d="M995.1,753.7l-391.3-616c-19.9-31.4-54.6-50.4-91.7-50.4s-71.8,19-91.7,50.4l-391.3,616c-21.3,33.5-22.6,75.9-3.5,110.6
		c19.1,34.8,55.6,56.4,95.3,56.4h782.6c39.7,0,76.2-21.6,95.3-56.4C1017.7,829.6,1016.3,787.2,995.1,753.7z M512,812H120.7
		l195.7-308L512,196l195.7,308l195.7,308H512z"/>
</g>
</svg>
