<?xml version="1.0" encoding="utf-8"?>
<!-- Generator: Adobe Illustrator 22.1.0, SVG Export Plug-In . SVG Version: 6.00 Build 0)  -->
<svg version="1.1" id="defense" xmlns="http://www.w3.org/2000/svg" xmlns:xlink="http://www.w3.org/1999/xlink" x="0px" y="0px"
	 viewBox="0 0 1024 1024" style="enable-background:new 0 0 1024 1024;" xml:space="preserve">
<g>
	<path d="M913,321c0.2,0,0.3,0,0.5,0c0-68.6,0-137.2,0-205.8c0-26.9-0.1-27.1-25.7-34.1C831.8,65.9,776,50,719.7,35.8
		c-34.8-8.8-70.3-21.2-105.5-21.5c-78.2-0.6-156.1-8-234.9,7.6c-82.5,16.4-163.7,36.6-244.4,59.6c-17.2,4.9-24.4,13-24.2,32.4
		c1.1,98-0.4,196,0.9,293.9c0.8,59.5-9.3,120.2,15.7,177.9c68.7,158.6,162,279.7,305.9,379c20.5,14.2,45.1,39.7,69.3,46.2
		c28.8,7.8,64.1-31.7,86.2-46.7c75.8-51.5,145.1-112.8,201.3-185.4c53-68.4,117.8-164.6,122-253.9C915.2,457.1,913,389,913,321z
		 M862.8,548.7c-5.5,38.8-22.9,77-40.6,112.7c-42.6,85.5-107.7,153.4-180.7,213.2c-37.3,30.5-77.7,57.2-117.6,84.3
		c-5.5,3.7-17.8,3.2-23.7-0.5c-87.4-54.6-167.3-118.6-232.6-198.8c-40-49-72.2-102.7-93.1-163.8c-16.5-48.1-19.7-96.8-21.3-146.1
		c-1.5-46.6-0.3-93.4-0.3-140.1c-0.1,0-0.1,0-0.2,0c0-53.6,0-107.2,0-160.8c0-24.1,6.7-31.6,29.6-37.1c27.4-6.6,54.6-13.6,81.6-21.5
		c69.5-20.4,140.5-31,212.8-33.2c73.3-2.2,146.3,0.3,218.1,18.3c51.8,13,103.8,25.3,155.6,38.1c14.2,3.5,22,13.6,21.6,27.7
		C868.7,277,881.9,413.5,862.8,548.7z"/>
	<path d="M512.2,117.5c0-13.8-3.1-23.3-19-21.4c-47.5,5.5-95.5,8-142.7,16c-45,7.6-87.3,25.2-132.2,32.9
		c-19.1,3.3-23.5,11.1-23.4,28.2c0.5,109.5-1.1,219,1.5,328.5c0.8,32.5,8.6,66.6,21.3,96.5c16.2,38.1,38.5,74,61.9,108.4
		c37.8,55.5,85,102.7,139.2,142.6c24.5,18,48.6,36.4,73.1,54.3c4.5,3.3,10.2,5.1,15.3,7.7c1.7-5.2,4.9-10.3,4.9-15.5
		C513.1,636.2,511.7,376.8,512.2,117.5z"/>
</g>
</svg>
