<?xml version="1.0" encoding="utf-8"?>
<!-- Generator: Adobe Illustrator 22.1.0, SVG Export Plug-In . SVG Version: 6.00 Build 0)  -->
<svg version="1.1" id="defense-shield" xmlns="http://www.w3.org/2000/svg" xmlns:xlink="http://www.w3.org/1999/xlink" x="0px"
	 y="0px" viewBox="0 0 1024 1024" style="enable-background:new 0 0 1024 1024;" xml:space="preserve">
<path d="M901.8,376.9c0,83.6-0.1,167.1,0,250.7c0,18.8-3.2,35.7-11.6,53.8c-35.9,77.5-87.7,141.5-153.9,194.8
	c-58.8,47.2-123.2,85.1-190.5,118.6c-10.8,5.4-21.3,11.7-32.5,15.8c-16.5,6-25.7-9-37.4-15.7c-46.3-26-93.6-50.8-138-79.8
	c-73-47.8-136.8-105.8-180.3-182.8c-22.2-39.4-36.5-80.3-35.9-127.9c2.2-164.8,0.8-329.7,0.8-494.5c0-22.8,1.4-24,24.4-28.4
	C249.7,61.7,352.7,43,455,20.8c25.4-5.5,50.1-10.5,75.6-8.1c15.5,1.5,30.5,8,46,11.1C666.8,42,757.1,60,847.5,77.9
	c11.2,2.2,22.6,3.5,34,4.7c14.9,1.7,20.9,8.5,20.8,24.6C901.5,197.2,901.9,287,901.8,376.9C901.9,376.9,901.9,376.9,901.8,376.9z
	 M403.7,651.2c0.4,0,0.8,0,1.2,0c0-48.1,0.3-96.2-0.2-144.2c-0.2-15.2,5.7-26.1,17.1-35.4c25.6-21.1,51.1-42.3,75.9-64.4
	c12.1-10.8,21.5-9.7,32.6,0.9c25.6,24.6,51.3,49,77.8,72.6c13,11.5,18.7,24.2,18.5,41.9c-0.8,92.7-0.7,185.4-0.4,278.2
	c0,6,4.2,12,6.4,18c5.4-2.4,11.7-3.8,16.2-7.4c17.3-14.1,33.5-29.5,51.1-43.2c13.5-10.5,18.3-23.1,18.2-40
	c-0.6-78.4,2-156.9-1.3-235.2c-1.7-40.6,8.9-70.1,41.9-93.9c21.3-15.4,19.7-17.2,41.5-1c3.7,2.8,10.2,5.6,13.5,4.1
	c3.3-1.4,6.2-8.2,6.2-12.6c0.3-59.5,0.1-119-0.1-178.6c0-9.8-4.4-16.6-15.4-16.6c-28,0.1-56.1,0.1-84.1,0.4
	c-13.5,0.2-19.5,8-19.4,21c0.1,14.9,0.6,29.8,0.4,44.6c-0.4,24.4-9.3,33.2-33.4,33.6c-16.6,0.3-33.2,0.2-49.8,0
	c-27.4-0.3-43-16.4-43.1-44.2c-0.1-13.2-0.1-26.3,0.3-39.5c0.4-11.9-4.2-18.3-16.9-18.2c-26.9,0.2-53.8,0.1-80.7,0.1
	c-12.3,0-17.4,6.4-16.9,18.4c0.5,13.7,0.6,27.5,0.7,41.2c0,25.7-15.8,41.9-41.4,42.2c-16.6,0.2-33.2,0.3-49.8,0
	c-23.1-0.5-34.8-12.1-35.4-35.2c-0.3-13.2,0.2-26.3,0.2-39.5c0-22.5-3.6-26.2-25.6-26.2c-22.9-0.1-45.8,0.1-68.7,0
	c-19.9-0.1-22.6,2.3-22.6,22.8c-0.1,57.8-0.2,115.6,0.1,173.4c0,6.9,2.9,13.9,4.4,20.8c6-3.4,11.9-7.1,18-10.1
	c6.7-3.3,14.5-9.7,20.4-8.4c20.9,4.7,51.6,48.4,51.6,70.3c-0.1,88.7,0.1,177.4-0.3,266.1c-0.1,16.1,4.1,28.2,17.9,38.1
	c17.5,12.7,33.2,28.1,50.3,41.5c4.8,3.7,11.9,4.5,17.9,6.7c1.8-5.7,5-11.4,5.1-17.1C403.9,748.5,403.7,699.8,403.7,651.2z"/>
</svg>
