<?xml version="1.0" encoding="utf-8"?>
<!-- Generator: Adobe Illustrator 22.1.0, SVG Export Plug-In . SVG Version: 6.00 Build 0)  -->
<svg version="1.1" id="en-route" xmlns="http://www.w3.org/2000/svg" xmlns:xlink="http://www.w3.org/1999/xlink" x="0px" y="0px"
	 viewBox="0 0 1024 1024" style="enable-background:new 0 0 1024 1024;" xml:space="preserve">
<g>
	<circle cx="416.1" cy="143.1" r="111.8"/>
	<path d="M1004.1,703.4c-17.4-32-57.5-43.9-89.5-26.5l-167.1,90.8l-110.9-121c-0.2-3.2-0.6-6.4-1.1-9.6l-30.9-181.3l193,50.1
		c35.3,9.1,71.3-12,80.4-47.3c9.2-35.3-12-71.3-47.3-80.4l-325.8-84.5c-8.4-2.2-17-2.7-25.6-1.5l-51.4,7.1
		c-10.1,1.4-19.8,5.1-28.3,10.9l-160.6,110L125.3,303.3C99.8,277.2,58.1,276.6,32,302c-26.1,25.4-26.7,67.2-1.2,93.3l152.6,156.7
		c12.8,13.2,30,20,47.3,20c12.9,0,25.9-3.8,37.3-11.6l152.6-104.6l33.6,197.3l-243.6,225c-26.8,24.7-28.4,66.5-3.7,93.2
		c13,14.1,30.7,21.2,48.5,21.2c16,0,32.1-5.8,44.8-17.5l248.3-229.3L685.1,895c20.5,22.3,53.5,27.8,80.2,13.4l212.4-115.5
		C1009.6,775.5,1021.5,735.4,1004.1,703.4z"/>
</g>
</svg>
