<?xml version="1.0" encoding="utf-8"?>
<!-- Generator: Adobe Illustrator 22.1.0, SVG Export Plug-In . SVG Version: 6.00 Build 0)  -->
<svg version="1.1" id="gift" xmlns="http://www.w3.org/2000/svg" xmlns:xlink="http://www.w3.org/1999/xlink" x="0px" y="0px"
	 viewBox="0 0 1024 1024" style="enable-background:new 0 0 1024 1024;" xml:space="preserve">
<g>
	<path d="M448.1,469.3c0,181.5,0,361.4,0,542.7c-14.6,0-28.2,0-41.8,0c-78.7,0-157.3,0-236,0c-27.2,0-34.5-7.2-34.5-34.3
		c0-163.6,0-327.2,0-490.8c0-5.5,0.5-11.1,0.8-17.6C240.7,469.3,343.6,469.3,448.1,469.3z"/>
	<path d="M575.6,1012c0-182,0-361.8,0-542.6c104,0,206.8,0,311.6,0c0.3,6.3,0.8,12.3,0.8,18.3c0,162.5,0,324.9,0,487.4
		c0,30.4-6.7,36.9-37.2,36.9c-85.5,0-171,0-256.5,0C588.6,1012,583,1012,575.6,1012z"/>
	<path d="M664.8,283c76.4,0,152.8,0,229.2,0c28.4,0,35.5,7,35.6,35c0,21.1,0.4,42.2-0.2,63.3c-0.5,16.7-8.9,25.6-25.6,25.7
		c-107.2,0.3-214.4,0.1-321.7,0c-1.6,0-3.3-0.7-6.7-1.5c0-39.9,0-80.1,0-121.7c-42.4,0-83.1,0-125.8,0c0,40.2,0,80.4,0,122.2
		c-7.2,0.5-12.7,1.2-18.1,1.2c-100.9,0.1-201.9,0.1-302.8,0c-27.6,0-34.3-6.7-34.3-34.2c0-20-0.1-39.9,0-59.9
		c0.2-21.6,8.5-30.1,30-30.1c78.1-0.1,156.2-0.1,235.4-2.9c-4.6-1.6-9.2-3.1-13.8-4.7c-51.1-18-98.8-41.7-135.1-83.5
		c-23.8-27.4-37.9-58.9-32.9-95.6c8.7-63.6,72.6-99.1,139.3-78.5c62.6,19.3,108.3,60.4,140.3,116c20.9,36.3,37.1,75.3,55.9,114
		c1.6-4.2,3.8-9.5,5.8-15c17.7-49,39.4-95.9,72.9-136.5c30.5-36.9,67.7-64.1,113.8-78.3c27.7-8.5,55.2-8.4,81.9,3
		c61.5,26.2,77.8,100.2,34.8,158.6c-32.3,43.8-77.4,69.7-127,89.2c-10.4,4.1-21.1,7.7-31.6,11.5C664.3,281.1,664.5,282.1,664.8,283z
		 M451.3,248.9c2-1.6,3.9-3.3,5.9-4.9c-20.3-36-39.2-73-61.5-107.7C378.2,109.2,353,88.7,323,75.9c-12.9-5.5-27-10.4-40.8-11.3
		c-40.2-2.4-63.8,30-47.3,66.6c7.4,16.5,20,32.1,33.8,44C321.1,220.4,386,235.5,451.3,248.9z M569.1,249.5
		c64.8-12.8,125.6-27.6,176.7-66.6c15.1-11.5,28.5-26.5,39-42.3c11.8-17.8,14.8-39.1,0.4-57.7C770.7,64,749.9,61,727.9,66.1
		c-27.8,6.4-51.7,20.6-72.6,39.8C613.4,144.4,589.8,194,569.1,249.5z"/>
</g>
</svg>
