<?xml version="1.0" encoding="utf-8"?>
<!-- Generator: Adobe Illustrator 22.1.0, SVG Export Plug-In . SVG Version: 6.00 Build 0)  -->
<svg version="1.1" id="party" xmlns="http://www.w3.org/2000/svg" xmlns:xlink="http://www.w3.org/1999/xlink" x="0px" y="0px"
	 viewBox="0 0 1024 1024" style="enable-background:new 0 0 1024 1024;" xml:space="preserve">
<g>
	<path d="M466,167.1c0,0,20,6.1,49.6-12.2c2.3-1.4,4.4-3.8,6.5-5.6c14.8-12.7,29.6-25.3,44.4-38c8.2-7,16.4-14,24.6-21
		c5.9-5.1,16.9-10.2,17.2-18.3c0-1.2-0.2-2.5-0.7-3.8c-2.7-7.4-8.7-15.4-13-22.1c-5.4-8.4-10.6-17.1-14.9-26.1
		c-1.4-2.9-3.1-6-6.1-7.3c-4.4-2-9.4,0.6-13.4,3.1c-15.9,9.7-32.3,17.9-49.6,25.1c-15.2,6.3-32.1,13.5-48.8,14
		c0,0-60.9-11.3-70.5,17.4c0,0-12.2,20.9,0,36.5C391.2,108.8,437.3,166.2,466,167.1z"/>
	<path d="M389.1,285.7c21.4,18.1,50,43.3,81.1,39.2c40.6-5.4,15-67.3,1.9-86.6c-26.9-39.4-58.1-76.3-94.3-107.5
		c-11-9.5-22.5-18.1-34.4-26.4c0,0-20-13.9,0-26.1c0,0,26.1-7-1.7-13c0,0-65.2-11.3-111.3,51.3c0,0-13,21.7,11.3,44.4
		C290.8,202.6,339.9,244.2,389.1,285.7z"/>
	<path d="M242.9,314.3c6.1,5.2,12.3,10.5,18.4,15.7c11.9,10.2,23.8,20.4,35.9,30.4l8.5,7.1c27.1,22.6,52.7,43.9,90.1,51.4
		c4.4,0.9,9.4,1.7,14.6,1.7c8.2,0,16.7-2,22.7-8.9c15.1-17.3,6.7-51.3-6.8-64.4c-5.5-5.3-11.6-10.3-17.5-15
		c-2.9-2.4-5.8-4.7-8.6-7.1L255.7,202.9c-2.5-2.1-5.6-4.4-8.8-6.7c-6.2-4.5-13.3-9.6-16.9-14.8l0,0c-2-2.9-14.4-19.5-29.9-20.6
		c-9.5-0.8-17.9,4.2-24.8,14c-0.9,0.9-21.3,22.1-20.5,46.6c0.4,11.8,5.6,22.3,15.6,31.3L242.9,314.3z"/>
	<path d="M133.4,376.7c20.2,15,40.3,30,60.5,45.1c25.1,18.7,49.6,39.6,76.2,55.8c7.5,4.5,15.5,5.4,23.6,8
		c14.5,4.6,33.8,10.5,48.9,5.1c9.1-3.3,13-10.7,13-20.1c0-34.6-27.8-54.7-52.1-74c-24.1-19.1-48.1-38.3-72.2-57.4
		c-20.3-16.2-40.8-32.1-61-48.5c0,0-23.5-19.1-33.9,9.6c0,0-37.4,47-5.2,74.8C131.8,375.6,132.6,376.1,133.4,376.7z"/>
	<path d="M111.1,497.6c0,0,77.3,61.7,77.4,61.8c8.8,7,24.1,10.8,34.7,13.6c15.5,4.1,38.2,7.1,46.9-10.1c3.1-6.1,3.4-13.4,3.1-20.1
		c-0.2-4.6-0.4-10.8-2.2-15c-5.3-12.4-19.3-21.1-29.5-29.4c-11.9-9.8-23.9-19.6-35.8-29.4c-21.3-17.5-42.6-34.9-63.9-52.4
		c-2.4-2-4.8-3.9-7.2-5.9c0,0-21.7-22.6-36.5,13C98.1,423.7,74.6,465.5,111.1,497.6z"/>
	<path d="M598.2,801.2h-70.5l195.7,192.2c29.6,13,25.2-9.6,25.2-9.6L598.2,801.2z"/>
	<path d="M968.8,757.7l-157.4-107l-56.5,113.9c0,0-21.7,49.6,0,91.3l56.5,113.9c0,0,1.7,7.8,20,0c18.3-7.8,126.1-65.2,151.3-149.6
		C982.7,820.3,988.8,772.5,968.8,757.7z"/>
	<path d="M769.6,637.7c0,0,202.7-193.1,202.7-193.1c13.9-13.2,35.5-35.6,28.4-56.9c-5.2-15.7-38.8-20.1-35.1-38.6
		c4.2-21.5,31.2-41.4,17.7-65c-7.3-12.8-23.5-14.1-31.8-25.6c-5.7-7.8-11.2-15.4-11.2-24.8c0.1-9.9,4.4-20.6,7.3-30
		c5-15.8,14.1-33.2,7.5-50.1c-4.7-12-20.3-24.2-32.3-28.4c-10.2-3.6-21-4.1-30.5-9.6c-22.7-13.1-13.7-38.9-14.8-60.2
		c-1.6-32.9-30.8-35.7-58.1-30.6c-25.5,4.8-51.1,15-75.5,23.6c-25,8.8-49.8,19.1-71.8,34.1c-29.7,20.2-49.2,52.5-80.6,70.6
		c-30.3,17.4-61.5,33.3-92.4,49.6c59.9,33.1,79.2,87.8,79.2,87.8c34.6,111.6-93.9,82.7-93.9,82.7c31.3,118.3-76.5,88.7-76.5,88.7
		c27.8,95.7-69.6,66.1-69.6,66.1c-6.3,93.6-140.9,78.3-140.9,78.3l-140.9,80C4.2,719.4,26.8,801.2,26.8,801.2
		c114.8,227.9,200,210.5,200,210.5l358.8-313.1C676.5,627.2,769.6,637.7,769.6,637.7z M676.8,134.8c1.2-6.7,12.4-11.9,17.8-15.8
		c20.1-14.9,41.9-28.9,66.9-33.5c18.7-3.5,45.5-3.2,52,19.2c5.3,18.6-4.1,40.7-11.7,57.3c-3.7,8.1-8,16-12.5,23.7
		c-2.7,4.8-8.6,13.7,2.1,13.8c1.1,0,2.2-0.3,3.3-0.6c2.9-0.9,5.9-1.8,8.8-2.7c20.9-6.1,55.3-17.2,75.9-4.1
		c13.1,8.3,11.3,24.8,7.5,37.7c-5,16.7-14.1,32.2-23.6,46.7c-4.4,6.7-10,12.9-14.8,19.3c-0.5,0.7-1.1,1.5-1.1,2.4
		c0,0.9,0.4,1.7,0.9,2.4c7.4,11,34.6,1.8,44.5,1.2c21.1-1.3,33,18.6,26.6,38.4c-5.1,15.7-18.4,34.8-7.7,50.2
		c9.6,13.8,32.8,4.1,38.8,24.3c5.1,17.1-16.1,35.8-28,45.1c-14.8,11.6-46.1,22.9-51-5.3c-0.8-4.5-0.2-9.3-2.2-13.5
		c-5.4-11.4-15.7-21.1-25.5-29c-4-3.2-8.2-6.2-11.4-10.1c-7.3-8.7-2.4-18-4-28.2c-1.7-10.2-8-18.8-14.3-26.9
		c-4.1-5.3-10.6-9.7-15.7-14c-2.8-2.3-7.1-4.6-9.3-7.4c-3.7-4.6-2.1-6.2-1.4-12.6c2.6-23.4-10.1-54.1-27.2-68.9
		c-9.2-8-21.2-12.6-30.9-19.7c-4.1-3-3.8-1.8-4.4-7c-0.6-5.3,0.5-10.7-0.6-16.1c-1.9-9.7-14.8-29.3-21.4-36.8
		c-4.8-5.4-22.1-18.5-25.4-25.1C676.8,137.6,676.6,136.2,676.8,134.8z M561,673.3C515,711.7,470.4,751.6,424.4,790
		c-50.2,41.8-100.3,83.6-150.5,125.3c-26.1,21.8-52.2,43.5-78.3,65.3c-0.1,0.1-0.2,0.1-0.3,0.2c-28.7-1.3-69.2-64.6-69.2-64.6
		l-4.6-8.5c39.5,11.6,78.2-17.9,111.6-36.5c46.2-25.8,94.9-60,139.8-88.1c30.9-19.3,61.6-39,92.7-57.9
		c32.5-19.7,62.1-39.3,92.5-57.4c3.2-1.9,6.6-5.1,10.3-4.1C567.9,668,564.1,670.7,561,673.3z"/>
</g>
</svg>
