<?xml version="1.0" encoding="utf-8"?>
<!-- Generator: Adobe Illustrator 22.1.0, SVG Export Plug-In . SVG Version: 6.00 Build 0)  -->
<svg version="1.1" id="season-dial" xmlns="http://www.w3.org/2000/svg" xmlns:xlink="http://www.w3.org/1999/xlink" x="0px"
	 y="0px" viewBox="0 0 1024 1024" style="enable-background:new 0 0 1024 1024;" xml:space="preserve">
<g>
	<path d="M977.6,538.9c0,0.6,0.5,5.5-0.1,10.3c-2.9,24.9,1.5,45.5,16.9,68.1c38.1,55.9,6,129.5-59.1,146.8
		c-9.8,2.6-20.6,10.3-26,18.8c-73.4,114.2-176,186.5-308.7,214c-185.7,38.4-383.9-47.4-483.4-208.2c-8.9-14.4-18.9-22.3-35.6-26.6
		c-66.8-17.1-92.1-103.8-46.2-157.4c8.8-10.3,11-19.8,10-32.5c-18-211.4,118.6-414.7,320.8-478.1c8.6-2.7,17.2-5.6,26-7.5
		c16.9-3.6,28.7-11.5,39.3-26.8c40.3-58.6,125-54.5,164,5.8c4.6,7.1,13,14.3,21,16.4c155.1,41,265.4,134.1,328.1,282
		C967.5,418.3,978.4,475.6,977.6,538.9z M893.6,526.6C890,360.5,775.9,214.9,614.4,169.3c-12-3.4-17.9-1.5-25.3,8.2
		c-36.3,47.1-106.8,54.3-145.6,10.4c-20.6-23.3-37.4-20.5-59.8-11c-7.2,3.1-14.7,5.4-21.9,8.3c-145.4,59.7-242.2,212.4-233.6,368.2
		c0.6,10.3,2.5,17.3,14.5,21.4c61.8,20.9,86.6,93.3,50.2,147.4c-7.9,11.8-7.3,19.4,0.3,30.1c64.5,90.9,150.2,149,261.3,164
		c158.1,21.2,282.3-37.8,375.4-165.7c7-9.6,7.1-16.7,0-27c-35.4-51.8-16.7-121.2,41-145.3c19-7.9,24.7-17.4,22.9-35.5
		C893.2,537.5,893.6,532.1,893.6,526.6z M853.2,748.6c-82.8,121.5-195,189.6-342.6,189.5c-147.5,0-259.6-68.3-342.2-189.5
		c-8.9,5.4-16.8,10.2-24.6,14.9c73.7,131.7,238.3,218,395.9,205.4c146-11.7,258.2-81.5,339.3-205
		C869.7,758.4,862.6,754.2,853.2,748.6z M78.6,570.7c31.4-0.9,31-0.9,31.1-25.3c0.8-140.2,57.4-252.1,170.8-335
		c37.3-27.3,78.6-46.5,122.9-58.6c15.3-4.2,10.3-13.4,9.6-22.2c-1.1-12.7-9.8-9.9-17.3-7.4c-17.7,5.7-35.8,10.6-52.7,18.2
		C198,206.1,110.7,317.4,83.8,474.3C78.4,505.7,80.1,538.4,78.6,570.7z M938.2,571.2C992,414,784.2,127.1,610.3,121
		c-1.1,8.5-2.2,17.2-3.3,26.6c9.6,3.3,17.9,6.4,26.4,9C797.9,206.7,917,372,912.2,543.8C911.6,568.9,911.6,568.9,938.2,571.2z
		 M179.7,669.2c0.3-39.3-30.5-70.9-68.8-70.6c-38,0.3-69.2,30.8-69.9,68.3c-0.7,38.2,30.7,70,69.4,70.4
		C148.3,737.7,179.4,707.2,179.7,669.2z M910.4,598.6c-37.5,0.1-68.7,31.5-68.7,69.2c-0.1,38.7,31.6,70.2,69.9,69.6
		c38.1-0.6,68.8-31.3,69.1-69C980.9,630.4,948.8,598.4,910.4,598.6z M510.1,186.2c39.7-0.1,70.4-30.2,70.3-69
		c-0.1-37.8-32.6-69.8-70.6-69.6c-37,0.2-68,32.1-68,69.9C441.8,156.2,471.8,186.3,510.1,186.2z"/>
</g>
</svg>
