<?xml version="1.0" encoding="utf-8"?>
<!-- Generator: Adobe Illustrator 22.1.0, SVG Export Plug-In . SVG Version: 6.00 Build 0)  -->
<svg version="1.1" id="social" xmlns="http://www.w3.org/2000/svg" xmlns:xlink="http://www.w3.org/1999/xlink" x="0px" y="0px"
	 viewBox="0 0 1024 1024" style="enable-background:new 0 0 1024 1024;" xml:space="preserve">
<g>
	<circle cx="199.4" cy="103.7" r="91.7"/>
	<path d="M321.6,268c0,0-3.8-32.5-21-32.5H92.4l-55.4,72.6l204.4,548.4h133.8L199.4,361.7L321.6,268z"/>
	<circle cx="824.6" cy="103.7" r="91.7"/>
	<path d="M931.6,235.6H723.4c-17.2,0-21,32.5-21,32.5l122.3,93.6L648.9,856.5h133.8l204.4-548.4L931.6,235.6z"/>
	<circle cx="512" cy="187.8" r="133.8"/>
	<polygon points="357.2,692.2 512,780.1 666.8,692.2 779.5,373.1 678.2,298.6 512,440 345.8,298.6 244.5,373.1 	"/>
	<polygon points="512,844.1 372,748.1 468.1,1010.4 512,1010.4 512,1010.4 555.9,1010.4 652,748.1 	"/>
</g>
</svg>
