<?xml version="1.0" encoding="utf-8"?>
<!-- Generator: Adobe Illustrator 22.1.0, SVG Export Plug-In . SVG Version: 6.00 Build 0)  -->
<svg version="1.1" id="target-outline" xmlns="http://www.w3.org/2000/svg" xmlns:xlink="http://www.w3.org/1999/xlink" x="0px"
	 y="0px" viewBox="0 0 1024 1024" style="enable-background:new 0 0 1024 1024;" xml:space="preserve">
<g>
	<path d="M587.6,467.6h167c-18.4-100.4-97.7-179.8-198.1-198.1v167h-88.9v-167c-100.4,18.4-179.8,97.7-198.1,198.1h167v88.9h-167
		c18.4,100.4,97.7,179.8,198.1,198.1v-167h88.9v167c100.4-18.4,179.8-97.7,198.1-198.1h-167V467.6z"/>
	<path d="M925.3,380.9H918C875.9,250.7,773.3,148,643.1,106v-7.4c0-47.9-38.8-86.7-86.7-86.7h-88.9c-47.9,0-86.7,38.8-86.7,86.7v7.4
		C250.7,148,148,250.7,106,380.9h-7.4c-47.9,0-86.7,38.8-86.7,86.7v88.9c0,47.9,38.8,86.7,86.7,86.7h7.4
		C148,773.3,250.7,876,380.9,918v7.4c0,47.9,38.8,86.7,86.7,86.7h88.9c47.9,0,86.7-38.8,86.7-86.7V918
		C773.3,876,875.9,773.3,918,643.1h7.4c47.9,0,86.7-38.8,86.7-86.7v-88.9C1012,419.7,973.2,380.9,925.3,380.9z M925.3,556.4H849
		c-19.9,152-140.6,272.6-292.6,292.6v76.3h-88.9V849c-152-19.9-272.6-140.6-292.6-292.6H98.7v-88.9H175
		c19.9-152,140.6-272.6,292.6-292.6V98.7h88.9V175c152,19.9,272.6,140.6,292.6,292.6h76.3V556.4z"/>
</g>
</svg>
