<?xml version="1.0" encoding="utf-8"?>
<!-- Generator: Adobe Illustrator 22.1.0, SVG Export Plug-In . SVG Version: 6.00 Build 0)  -->
<svg version="1.1" id="team-1" xmlns="http://www.w3.org/2000/svg" xmlns:xlink="http://www.w3.org/1999/xlink" x="0px" y="0px"
	 viewBox="0 0 1024 1024" style="enable-background:new 0 0 1024 1024;" xml:space="preserve">
<g>
	<path d="M182.3,849v124.4c0,0,314,87,669.1,0V849C851.4,849,537.1,951.6,182.3,849z"/>
	<path d="M306.7,486.6c0,0-88.2-171.5-22.9-304.3c0,0-51.9-37.4-51.9-37.4c1.6,1.2-24,93.8-25.2,101.4
		c-16.5,100.1,29.6,195.5,60.2,288.7L306.7,486.6z"/>
	<path d="M276.5,842.9c222.2,55.6,487.4,0,487.4,0c52.7-137.7,27.1-163-8-228.3c-35-65.2-190.8-144.9-235.8-196.9
		c-44.9-51.9,0-122,0-122c45.7-1.2,59.4-35,59.4-35s101.4,2.4,137.7,3.6c36.2,1.2,32.6-21.7,32.6-21.7l13.3-61.6
		c6-29-27.8-21.7-27.8-21.7c-114.7-7.2-260.9-37.4-301.9-48.3c-41.1-10.9-45.9-99-45.9-99c-111.1,177.5-124.4,318.8-56.8,468.6
		S276.5,842.9,276.5,842.9z M400,167.7c12.6-17.2,41.5-7.2,60.1-7.2v9.7c0,0-38.6,7.2-49.5,19.3c-2.4,2.7-14.1-0.8-15.7-3.4
		C391.7,181.1,397.1,171.5,400,167.7z"/>
	<path d="M727,281.1c-17.2,0.5-34.3,1.1-51.5,1.6c-23.5,0.7-47,1.5-70.5,2.2c-12.1,16.9-38.6,21.7-38.6,21.7
		c-12.5,2.3-23,35.8-24.8,45.5c-4.3,22.2-1.5,46.3,9.7,66.2c5.2,9.2,12.2,17.5,20.6,24c2,1.6,9.2,4.6,10.3,6.8
		c-37.4-73.7,8.5-114.7,8.5-114.7c19.3,2.4,33.8-16.9,33.8-16.9c7.2-14.5,31.4-13.3,31.4-13.3s73.7,1.2,115.9,0
		c42.3-1.2,38.8-18.1,38.8-18.1l16.7-74.9c1.2-19.3-20.5-21.5-20.5-21.5c-11.6-0.7-13,11.5-13.6,21.5c-0.2,2.7-0.3,5.3-0.5,7.4
		c-2.1,16.6-7.2,32.6-12.1,48.5c-1.6,5.4-4.5,10.7-9.5,13.4C763.1,284.7,737.4,280.8,727,281.1z"/>
	<path d="M868.5,265.5c1.1-17.7-18.8-19.7-18.8-19.7c-10.6-0.7-11.9,10.5-12.4,19.6c-0.2,2.5-0.3,4.9-0.5,6.8
		c-1.9,15.2-6.6,29.8-11,44.4c-1.5,4.9-4.1,9.8-8.7,12.2c-7.3,3.8-30.8,0.2-40.2,0.5c-15.7,0.5-31.4,1-47.1,1.5
		c-21.5,0.7-43,1.4-64.5,2c-11,15.5-35.3,19.9-35.3,19.9c-11.4,2.1-21,32.8-22.7,41.6c-3.9,20.3-1.4,42.4,8.9,60.5
		c4.8,8.4,11.2,16,18.8,22c1.8,1.4,8.4,4.2,9.4,6.2c-34.2-67.4,7.7-104.9,7.7-104.9c17.7,2.2,30.9-15.5,30.9-15.5
		c6.6-13.3,28.7-12.1,28.7-12.1s67.4,1.1,106,0c38.7-1.1,35.5-16.6,35.5-16.6L868.5,265.5z"/>
</g>
</svg>
