<?xml version="1.0" encoding="utf-8"?>
<!-- Generator: Adobe Illustrator 22.1.0, SVG Export Plug-In . SVG Version: 6.00 Build 0)  -->
<svg version="1.1" id="turret" xmlns="http://www.w3.org/2000/svg" xmlns:xlink="http://www.w3.org/1999/xlink" x="0px" y="0px"
	 viewBox="0 0 1024 1024" style="enable-background:new 0 0 1024 1024;" xml:space="preserve">
<style type="text/css">
	.st0{fill-rule:evenodd;clip-rule:evenodd;}
</style>
<g id="Shape_8">
	<g>
		<path class="st0" d="M896.8,633.7L687.6,468.4H336.4L127.2,633.7L12,825h77.3L203,693.4l239.5-133.5h138.9L821,693.4L934.7,825
			h77.3L896.8,633.7z M616.3,427.9h158.8c58,0,105-47.5,105-106V305c0-58.6-47-106-105-106H616.3c-58,0-105,47.5-105,106v16.9
			C511.2,380.4,558.3,427.9,616.3,427.9z M305.2,386.1V428h211.5c-27.9-26.7-45.4-64.3-45.4-106.1V305c0-5.2,0.3-10.3,0.8-15.4
			H112.2c-10.7,32.1-10.7,64.3,0,96.4H305.2z"/>
	</g>
</g>
</svg>
