<?xml version="1.0" encoding="utf-8"?>
<!-- Generator: Adobe Illustrator 22.1.0, SVG Export Plug-In . SVG Version: 6.00 Build 0)  -->
<svg version="1.1" xmlns="http://www.w3.org/2000/svg" xmlns:xlink="http://www.w3.org/1999/xlink" x="0px" y="0px"
	 viewBox="0 0 1024 1024" style="enable-background:new 0 0 1024 1024;" xml:space="preserve">
<style type="text/css">
	.st0{display:none;}
	.st1{display:inline;fill:none;stroke:#231F20;stroke-miterlimit:10;}
</style>
<g id="BOUNDRY__x28_DELETE_x29_" class="st0">
	<rect x="12" y="12" class="st1" width="1000" height="1000"/>
</g>
<g id="utility">
	<g>
		<path d="M721.2,12.1c50-0.8,109.1,4.6,78.8,35.7c-46.9,48-94.9,94.9-142.5,142.1c-2.8,2.8-6.6,5.8-7.4,9.3
			c-7,27.7-14.3,55.4-19.2,83.6c-1.3,7.4,3.9,18.1,9.5,24.1c23.6,25.1,48,49.4,73.1,73c6.1,5.7,15.9,10.3,24,10.3
			c24,0.1,48.5-0.1,72-4.6c13-2.5,26.3-11.9,36.2-21.5c43.1-42,84.9-85.3,127.3-128c2.8-2.8,6.3-5,9.7-6.9
			c20.5-11.3,26-8.3,26.1,15.1c0.5,101.5-33.9,210.1-110.4,279.9c-37,33.7-82.7,56.1-132.3,63.5c-42.7,6.4-123.4-25.1-151.7,6.7
			c-41.5,46.8-82.3,94.1-123.9,140.8C423.4,810.6,356.4,886,288.3,960.6c-36.4,39.9-98.9,59.7-151.1,48.2
			C17.9,982.5-26.9,814.6,62.2,731c77.9-72.6,157.9-143.1,237.4-214.1c40.2-35.9,80.8-71.3,121.7-106.5
			c21.5-18.5,22.5-25.3,15.3-52.2c-24-89.3,10.8-188.3,69.9-256.4c41-47.2,96-75.6,157.3-86C670.1,14.8,694.3,12.5,721.2,12.1z
			 M172.4,806.8c-29.3-0.4-42.8,12.3-43,40.8c-0.3,30.8,11.5,42.9,42.1,43.4c30.2,0.5,42.7-11.2,43.2-40.3
			C215.2,821.4,201.6,807.2,172.4,806.8z"/>
	</g>
</g>
</svg>
