<?xml version="1.0" encoding="utf-8"?>
<!-- Generator: Adobe Illustrator 22.1.0, SVG Export Plug-In . SVG Version: 6.00 Build 0)  -->
<svg version="1.1" id="warning" xmlns="http://www.w3.org/2000/svg" xmlns:xlink="http://www.w3.org/1999/xlink" x="0px" y="0px"
	 viewBox="0 0 1024 1024" style="enable-background:new 0 0 1024 1024;" xml:space="preserve">
<g>
	<path d="M497.2,225.4L354,509c-8.1,16.1-21.5,42.5-29.6,58.7L181.1,851.2c-8.1,16.1-2,29.3,13.7,29.3h288.8c15.7,0,41.3,0,56.9,0
		h288.8c15.7,0,21.8-13.2,13.6-29.3L699.7,567.6c-8.1-16.1-21.5-42.5-29.6-58.7L526.8,225.4C518.7,209.2,505.3,209.2,497.2,225.4z
		 M512,817.6c-25.3,0-45.8-24.7-45.8-55.2s20.5-55.2,45.8-55.2c25.3,0,45.8,24.7,45.8,55.2S537.3,817.6,512,817.6z M559,435.6
		c-2.2,70.6-5.3,141.1-6.1,211.7c-0.3,20.6-14.1,37.3-31.1,37.3c-6.5,0-12.9,0-19.4,0c-17.1,0-30.8-16.7-31.1-37.3
		c-0.9-70.6-3.9-141.2-6.1-211.7c-0.7-20.5,15.2-37.9,35.5-38.1c7.6-0.1,15.3-0.1,22.9,0C543.7,397.7,559.6,415.1,559,435.6z"/>
	<path d="M1003.1,915.7L555.7,48c-10.2-19.9-26.2-31.3-43.7-31.3c-17.5,0-33.5,11.4-43.7,31.3L20.9,915.7
		c-10.6,20.6-11.8,43.2-3.1,62c8.6,18.8,25.1,29.5,45.2,29.5h898c20.1,0,36.6-10.8,45.2-29.5
		C1014.9,958.9,1013.8,936.3,1003.1,915.7z M95.4,925.6l416.6-808l416.6,808H95.4z"/>
</g>
</svg>
